<?xml version="1.0" encoding="UTF-8" standalone="no"?><svg xmlns="http://www.w3.org/2000/svg" xmlns:xlink="http://www.w3.org/1999/xlink" clip-rule="evenodd" stroke-miterlimit="4.00" viewBox="0 0 1024 768"><desc>SVG generated by Keynote</desc><defs></defs><g transform="matrix(1.00, 0.00, -0.00, -1.00, 0.0, 768.0)"><g><clipPath id="clip-128"><path d="M 0.0 768.0 L 1024.0 768.0 L 1024.0 0.0 L 0.0 0.0 Z M 0.0 768.0 "></path></clipPath><g clip-path="url(#clip-128)"><image xlink:href="../../293415CD-D1BA-41BB-8703-BAEDA9FFCE27/assets/D3CB8578D364082F6943B53F933CCC32.jpeg" width="1024.00" height="768.00" transform="matrix(1.00, 0.00, -0.00, -1.00, 0.0, 768.0)"></image></g></g><text xml:space="preserve" font-family="GillSans-Light" font-size="72.0" fill="#525252" transform="matrix(1.00, 0.00, -0.00, -1.00, 376.0, 628.0)">С</text><text xml:space="preserve" font-family="GillSans-Light" font-size="72.0" fill="#525252" transform="matrix(1.00, 0.00, -0.00, -1.00, 424.7, 628.0)">Б</text><text xml:space="preserve" font-family="GillSans-Light" font-size="72.0" fill="#525252" transform="matrix(1.00, 0.00, -0.00, -1.00, 464.6, 628.0)">О</text><text xml:space="preserve" font-family="GillSans-Light" font-size="72.0" fill="#525252" transform="matrix(1.00, 0.00, -0.00, -1.00, 523.9, 628.0)">Р</text><text xml:space="preserve" font-family="GillSans-Light" font-size="72.0" fill="#525252" transform="matrix(1.00, 0.00, -0.00, -1.00, 560.5, 628.0)">К</text><text xml:space="preserve" font-family="GillSans-Light" font-size="72.0" fill="#525252" transform="matrix(1.00, 0.00, -0.00, -1.00, 599.9, 628.0)">А</text><text xml:space="preserve" font-family="GillSans-SemiBold" font-weight="bold" font-size="50.0" fill="#525252" transform="matrix(1.00, 0.00, -0.00, -1.00, 368.0, 548.0)">1</text><text xml:space="preserve" font-family="GillSans-SemiBold" font-weight="bold" font-size="50.0" fill="#525252" transform="matrix(1.00, 0.00, -0.00, -1.00, 394.4, 548.0)">.</text><text xml:space="preserve" font-family="GillSans-SemiBold" font-weight="bold" font-size="50.0" fill="#525252" transform="matrix(1.00, 0.00, -0.00, -1.00, 406.7, 548.0)"> </text><text xml:space="preserve" font-family="GillSans-SemiBold" font-weight="bold" font-size="50.0" fill="#525252" transform="matrix(1.00, 0.00, -0.00, -1.00, 420.6, 548.0)">n</text><text xml:space="preserve" font-family="GillSans-SemiBold" font-weight="bold" font-size="50.0" fill="#525252" transform="matrix(1.00, 0.00, -0.00, -1.00, 447.6, 548.0)">w</text><text xml:space="preserve" font-family="GillSans-SemiBold" font-weight="bold" font-size="50.0" fill="#525252" transform="matrix(1.00, 0.00, -0.00, -1.00, 485.4, 548.0)">-</text><text xml:space="preserve" font-family="GillSans-SemiBold" font-weight="bold" font-size="50.0" fill="#525252" transform="matrix(1.00, 0.00, -0.00, -1.00, 501.8, 548.0)">b</text><text xml:space="preserve" font-family="GillSans-SemiBold" font-weight="bold" font-size="50.0" fill="#525252" transform="matrix(1.00, 0.00, -0.00, -1.00, 529.3, 548.0)">u</text><text xml:space="preserve" font-family="GillSans-SemiBold" font-weight="bold" font-size="50.0" fill="#525252" transform="matrix(1.00, 0.00, -0.00, -1.00, 556.3, 548.0)">i</text><text xml:space="preserve" font-family="GillSans-SemiBold" font-weight="bold" font-size="50.0" fill="#525252" transform="matrix(1.00, 0.00, -0.00, -1.00, 568.7, 548.0)">l</text><text xml:space="preserve" font-family="GillSans-SemiBold" font-weight="bold" font-size="50.0" fill="#525252" transform="matrix(1.00, 0.00, -0.00, -1.00, 581.1, 548.0)">d</text><text xml:space="preserve" font-family="GillSans-SemiBold" font-weight="bold" font-size="50.0" fill="#525252" transform="matrix(1.00, 0.00, -0.00, -1.00, 608.5, 548.0)">e</text><text xml:space="preserve" font-family="GillSans-SemiBold" font-weight="bold" font-size="50.0" fill="#525252" transform="matrix(1.00, 0.00, -0.00, -1.00, 634.3, 548.0)">r</text><text xml:space="preserve" font-family="GillSans-Light" font-size="50.0" fill="#525252" transform="matrix(1.00, 0.00, -0.00, -1.00, 270.0, 482.0)">n</text><text xml:space="preserve" font-family="GillSans-Light" font-size="50.0" fill="#525252" transform="matrix(1.00, 0.00, -0.00, -1.00, 294.5, 482.0)">p</text><text xml:space="preserve" font-family="GillSans-Light" font-size="50.0" fill="#525252" transform="matrix(1.00, 0.00, -0.00, -1.00, 320.0, 482.0)">m</text><text xml:space="preserve" font-family="GillSans-Light" font-size="50.0" fill="#525252" transform="matrix(1.00, 0.00, -0.00, -1.00, 358.5, 482.0)"> </text><text xml:space="preserve" font-family="GillSans-Light" font-size="50.0" fill="#525252" transform="matrix(1.00, 0.00, -0.00, -1.00, 372.4, 482.0)">i</text><text xml:space="preserve" font-family="GillSans-Light" font-size="50.0" fill="#525252" transform="matrix(1.00, 0.00, -0.00, -1.00, 381.8, 482.0)">n</text><text xml:space="preserve" font-family="GillSans-Light" font-size="50.0" fill="#525252" transform="matrix(1.00, 0.00, -0.00, -1.00, 406.4, 482.0)">s</text><text xml:space="preserve" font-family="GillSans-Light" font-size="50.0" fill="#525252" transform="matrix(1.00, 0.00, -0.00, -1.00, 424.1, 482.0)">t</text><text xml:space="preserve" font-family="GillSans-Light" font-size="50.0" fill="#525252" transform="matrix(1.00, 0.00, -0.00, -1.00, 439.1, 482.0)">a</text><text xml:space="preserve" font-family="GillSans-Light" font-size="50.0" fill="#525252" transform="matrix(1.00, 0.00, -0.00, -1.00, 460.5, 482.0)">l</text><text xml:space="preserve" font-family="GillSans-Light" font-size="50.0" fill="#525252" transform="matrix(1.00, 0.00, -0.00, -1.00, 469.9, 482.0)">l</text><text xml:space="preserve" font-family="GillSans-Light" font-size="50.0" fill="#525252" transform="matrix(1.00, 0.00, -0.00, -1.00, 479.3, 482.0)"> </text><text xml:space="preserve" font-family="GillSans-Light" font-size="50.0" fill="#525252" transform="matrix(1.00, 0.00, -0.00, -1.00, 493.1, 482.0)">-</text><text xml:space="preserve" font-family="GillSans-Light" font-size="50.0" fill="#525252" transform="matrix(1.00, 0.00, -0.00, -1.00, 508.8, 482.0)">g</text><text xml:space="preserve" font-family="GillSans-Light" font-size="50.0" fill="#525252" transform="matrix(1.00, 0.00, -0.00, -1.00, 530.1, 482.0)"> </text><text xml:space="preserve" font-family="GillSans-Light" font-size="50.0" fill="#525252" transform="matrix(1.00, 0.00, -0.00, -1.00, 544.0, 482.0)">n</text><text xml:space="preserve" font-family="GillSans-Light" font-size="50.0" fill="#525252" transform="matrix(1.00, 0.00, -0.00, -1.00, 568.5, 482.0)">w</text><text xml:space="preserve" font-family="GillSans-Light" font-size="50.0" fill="#525252" transform="matrix(1.00, 0.00, -0.00, -1.00, 603.9, 482.0)">-</text><text xml:space="preserve" font-family="GillSans-Light" font-size="50.0" fill="#525252" transform="matrix(1.00, 0.00, -0.00, -1.00, 619.6, 482.0)">b</text><text xml:space="preserve" font-family="GillSans-Light" font-size="50.0" fill="#525252" transform="matrix(1.00, 0.00, -0.00, -1.00, 644.6, 482.0)">u</text><text xml:space="preserve" font-family="GillSans-Light" font-size="50.0" fill="#525252" transform="matrix(1.00, 0.00, -0.00, -1.00, 669.1, 482.0)">i</text><text xml:space="preserve" font-family="GillSans-Light" font-size="50.0" fill="#525252" transform="matrix(1.00, 0.00, -0.00, -1.00, 678.5, 482.0)">l</text><text xml:space="preserve" font-family="GillSans-Light" font-size="50.0" fill="#525252" transform="matrix(1.00, 0.00, -0.00, -1.00, 687.9, 482.0)">d</text><text xml:space="preserve" font-family="GillSans-Light" font-size="50.0" fill="#525252" transform="matrix(1.00, 0.00, -0.00, -1.00, 713.4, 482.0)">e</text><text xml:space="preserve" font-family="GillSans-Light" font-size="50.0" fill="#525252" transform="matrix(1.00, 0.00, -0.00, -1.00, 737.3, 482.0)">r</text><text xml:space="preserve" font-family="GillSans-Light" font-size="50.0" fill="#525252" transform="matrix(1.00, 0.00, -0.00, -1.00, 111.0, 416.0)">И</text><text xml:space="preserve" font-family="GillSans-Light" font-size="50.0" fill="#525252" transform="matrix(1.00, 0.00, -0.00, -1.00, 147.0, 416.0)">с</text><text xml:space="preserve" font-family="GillSans-Light" font-size="50.0" fill="#525252" transform="matrix(1.00, 0.00, -0.00, -1.00, 167.8, 416.0)">п</text><text xml:space="preserve" font-family="GillSans-Light" font-size="50.0" fill="#525252" transform="matrix(1.00, 0.00, -0.00, -1.00, 192.7, 416.0)">о</text><text xml:space="preserve" font-family="GillSans-Light" font-size="50.0" fill="#525252" transform="matrix(1.00, 0.00, -0.00, -1.00, 219.8, 416.0)">л</text><text xml:space="preserve" font-family="GillSans-Light" font-size="50.0" fill="#525252" transform="matrix(1.00, 0.00, -0.00, -1.00, 241.2, 416.0)">ь</text><text xml:space="preserve" font-family="GillSans-Light" font-size="50.0" fill="#525252" transform="matrix(1.00, 0.00, -0.00, -1.00, 262.1, 416.0)">з</text><text xml:space="preserve" font-family="GillSans-Light" font-size="50.0" fill="#525252" transform="matrix(1.00, 0.00, -0.00, -1.00, 281.9, 416.0)">о</text><text xml:space="preserve" font-family="GillSans-Light" font-size="50.0" fill="#525252" transform="matrix(1.00, 0.00, -0.00, -1.00, 309.0, 416.0)">в</text><text xml:space="preserve" font-family="GillSans-Light" font-size="50.0" fill="#525252" transform="matrix(1.00, 0.00, -0.00, -1.00, 330.2, 416.0)">а</text><text xml:space="preserve" font-family="GillSans-Light" font-size="50.0" fill="#525252" transform="matrix(1.00, 0.00, -0.00, -1.00, 351.5, 416.0)">н</text><text xml:space="preserve" font-family="GillSans-Light" font-size="50.0" fill="#525252" transform="matrix(1.00, 0.00, -0.00, -1.00, 376.4, 416.0)">и</text><text xml:space="preserve" font-family="GillSans-Light" font-size="50.0" fill="#525252" transform="matrix(1.00, 0.00, -0.00, -1.00, 401.3, 416.0)">е</text><text xml:space="preserve" font-family="GillSans-Light" font-size="50.0" fill="#525252" transform="matrix(1.00, 0.00, -0.00, -1.00, 425.3, 416.0)"> </text><text xml:space="preserve" font-family="GillSans-Light" font-size="50.0" fill="#525252" transform="matrix(1.00, 0.00, -0.00, -1.00, 439.2, 416.0)">n</text><text xml:space="preserve" font-family="GillSans-Light" font-size="50.0" fill="#525252" transform="matrix(1.00, 0.00, -0.00, -1.00, 463.7, 416.0)">w</text><text xml:space="preserve" font-family="GillSans-Light" font-size="50.0" fill="#525252" transform="matrix(1.00, 0.00, -0.00, -1.00, 499.1, 416.0)">b</text><text xml:space="preserve" font-family="GillSans-Light" font-size="50.0" fill="#525252" transform="matrix(1.00, 0.00, -0.00, -1.00, 524.1, 416.0)">u</text><text xml:space="preserve" font-family="GillSans-Light" font-size="50.0" fill="#525252" transform="matrix(1.00, 0.00, -0.00, -1.00, 548.6, 416.0)">i</text><text xml:space="preserve" font-family="GillSans-Light" font-size="50.0" fill="#525252" transform="matrix(1.00, 0.00, -0.00, -1.00, 558.0, 416.0)">l</text><text xml:space="preserve" font-family="GillSans-Light" font-size="50.0" fill="#525252" transform="matrix(1.00, 0.00, -0.00, -1.00, 567.4, 416.0)">d</text><text xml:space="preserve" font-family="GillSans-Light" font-size="50.0" fill="#525252" transform="matrix(1.00, 0.00, -0.00, -1.00, 592.9, 416.0)"> </text><text xml:space="preserve" font-family="GillSans-Light" font-size="50.0" fill="#525252" transform="matrix(1.00, 0.00, -0.00, -1.00, 606.8, 416.0)">[</text><text xml:space="preserve" font-family="GillSans-Light" font-size="50.0" fill="#525252" transform="matrix(1.00, 0.00, -0.00, -1.00, 621.8, 416.0)">o</text><text xml:space="preserve" font-family="GillSans-Light" font-size="50.0" fill="#525252" transform="matrix(1.00, 0.00, -0.00, -1.00, 648.9, 416.0)">p</text><text xml:space="preserve" font-family="GillSans-Light" font-size="50.0" fill="#525252" transform="matrix(1.00, 0.00, -0.00, -1.00, 674.4, 416.0)">t</text><text xml:space="preserve" font-family="GillSans-Light" font-size="50.0" fill="#525252" transform="matrix(1.00, 0.00, -0.00, -1.00, 689.5, 416.0)">i</text><text xml:space="preserve" font-family="GillSans-Light" font-size="50.0" fill="#525252" transform="matrix(1.00, 0.00, -0.00, -1.00, 698.9, 416.0)">o</text><text xml:space="preserve" font-family="GillSans-Light" font-size="50.0" fill="#525252" transform="matrix(1.00, 0.00, -0.00, -1.00, 726.0, 416.0)">n</text><text xml:space="preserve" font-family="GillSans-Light" font-size="50.0" fill="#525252" transform="matrix(1.00, 0.00, -0.00, -1.00, 750.5, 416.0)">s</text><text xml:space="preserve" font-family="GillSans-Light" font-size="50.0" fill="#525252" transform="matrix(1.00, 0.00, -0.00, -1.00, 768.2, 416.0)">]</text><text xml:space="preserve" font-family="GillSans-Light" font-size="50.0" fill="#525252" transform="matrix(1.00, 0.00, -0.00, -1.00, 783.3, 416.0)"> </text><text xml:space="preserve" font-family="GillSans-Light" font-size="50.0" fill="#525252" transform="matrix(1.00, 0.00, -0.00, -1.00, 797.2, 416.0)">[</text><text xml:space="preserve" font-family="GillSans-Light" font-size="50.0" fill="#525252" transform="matrix(1.00, 0.00, -0.00, -1.00, 812.3, 416.0)">p</text><text xml:space="preserve" font-family="GillSans-Light" font-size="50.0" fill="#525252" transform="matrix(1.00, 0.00, -0.00, -1.00, 837.7, 416.0)">a</text><text xml:space="preserve" font-family="GillSans-Light" font-size="50.0" fill="#525252" transform="matrix(1.00, 0.00, -0.00, -1.00, 859.1, 416.0)">t</text><text xml:space="preserve" font-family="GillSans-Light" font-size="50.0" fill="#525252" transform="matrix(1.00, 0.00, -0.00, -1.00, 874.1, 416.0)">h</text><text xml:space="preserve" font-family="GillSans-Light" font-size="50.0" fill="#525252" transform="matrix(1.00, 0.00, -0.00, -1.00, 898.7, 416.0)">]</text><text xml:space="preserve" font-family="GillSans-SemiBold" font-weight="bold" font-size="50.0" fill="#525252" transform="matrix(1.00, 0.00, -0.00, -1.00, 301.0, 338.0)">2</text><text xml:space="preserve" font-family="GillSans-SemiBold" font-weight="bold" font-size="50.0" fill="#525252" transform="matrix(1.00, 0.00, -0.00, -1.00, 327.4, 338.0)">.</text><text xml:space="preserve" font-family="GillSans-SemiBold" font-weight="bold" font-size="50.0" fill="#525252" transform="matrix(1.00, 0.00, -0.00, -1.00, 339.7, 338.0)"> </text><text xml:space="preserve" font-family="GillSans-SemiBold" font-weight="bold" font-size="50.0" fill="#525252" transform="matrix(1.00, 0.00, -0.00, -1.00, 353.6, 338.0)">g</text><text xml:space="preserve" font-family="GillSans-SemiBold" font-weight="bold" font-size="50.0" fill="#525252" transform="matrix(1.00, 0.00, -0.00, -1.00, 378.1, 338.0)">r</text><text xml:space="preserve" font-family="GillSans-SemiBold" font-weight="bold" font-size="50.0" fill="#525252" transform="matrix(1.00, 0.00, -0.00, -1.00, 399.0, 338.0)">u</text><text xml:space="preserve" font-family="GillSans-SemiBold" font-weight="bold" font-size="50.0" fill="#525252" transform="matrix(1.00, 0.00, -0.00, -1.00, 426.0, 338.0)">n</text><text xml:space="preserve" font-family="GillSans-SemiBold" font-weight="bold" font-size="50.0" fill="#525252" transform="matrix(1.00, 0.00, -0.00, -1.00, 453.1, 338.0)">t</text><text xml:space="preserve" font-family="GillSans-SemiBold" font-weight="bold" font-size="50.0" fill="#525252" transform="matrix(1.00, 0.00, -0.00, -1.00, 471.5, 338.0)">-</text><text xml:space="preserve" font-family="GillSans-SemiBold" font-weight="bold" font-size="50.0" fill="#525252" transform="matrix(1.00, 0.00, -0.00, -1.00, 488.0, 338.0)">n</text><text xml:space="preserve" font-family="GillSans-SemiBold" font-weight="bold" font-size="50.0" fill="#525252" transform="matrix(1.00, 0.00, -0.00, -1.00, 515.0, 338.0)">w</text><text xml:space="preserve" font-family="GillSans-SemiBold" font-weight="bold" font-size="50.0" fill="#525252" transform="matrix(1.00, 0.00, -0.00, -1.00, 552.8, 338.0)">-</text><text xml:space="preserve" font-family="GillSans-SemiBold" font-weight="bold" font-size="50.0" fill="#525252" transform="matrix(1.00, 0.00, -0.00, -1.00, 569.2, 338.0)">b</text><text xml:space="preserve" font-family="GillSans-SemiBold" font-weight="bold" font-size="50.0" fill="#525252" transform="matrix(1.00, 0.00, -0.00, -1.00, 596.7, 338.0)">u</text><text xml:space="preserve" font-family="GillSans-SemiBold" font-weight="bold" font-size="50.0" fill="#525252" transform="matrix(1.00, 0.00, -0.00, -1.00, 623.7, 338.0)">i</text><text xml:space="preserve" font-family="GillSans-SemiBold" font-weight="bold" font-size="50.0" fill="#525252" transform="matrix(1.00, 0.00, -0.00, -1.00, 636.1, 338.0)">l</text><text xml:space="preserve" font-family="GillSans-SemiBold" font-weight="bold" font-size="50.0" fill="#525252" transform="matrix(1.00, 0.00, -0.00, -1.00, 648.5, 338.0)">d</text><text xml:space="preserve" font-family="GillSans-SemiBold" font-weight="bold" font-size="50.0" fill="#525252" transform="matrix(1.00, 0.00, -0.00, -1.00, 675.9, 338.0)">e</text><text xml:space="preserve" font-family="GillSans-SemiBold" font-weight="bold" font-size="50.0" fill="#525252" transform="matrix(1.00, 0.00, -0.00, -1.00, 701.7, 338.0)">r</text><path d="M 155.3 310.5 L 868.7 310.5 L 868.7 267.5 L 155.3 267.5 Z M 155.3 310.5 " fill="#F7F7F7"></path><g><clipPath id="clip-129"><path d="M 150.6 262.8 L 873.4 262.8 L 873.4 315.2 L 150.6 315.2 Z M 150.6 262.8 "></path></clipPath><g clip-path="url(#clip-129)"><path d="M 159.3 306.5 L 863.7 306.5 L 863.7 271.5 L 159.3 271.5 Z M 159.3 306.5 " fill="#F7F7F7"></path><text xml:space="preserve" font-family="Menlo-Regular" font-size="30.0" fill="#323232" transform="matrix(1.00, 0.00, -0.00, -1.00, 159.0, 279.0)">g</text><text xml:space="preserve" font-family="Menlo-Regular" font-size="30.0" fill="#323232" transform="matrix(1.00, 0.00, -0.00, -1.00, 177.1, 279.0)">r</text><text xml:space="preserve" font-family="Menlo-Regular" font-size="30.0" fill="#323232" transform="matrix(1.00, 0.00, -0.00, -1.00, 195.1, 279.0)">u</text><text xml:space="preserve" font-family="Menlo-Regular" font-size="30.0" fill="#323232" transform="matrix(1.00, 0.00, -0.00, -1.00, 213.2, 279.0)">n</text><text xml:space="preserve" font-family="Menlo-Regular" font-size="30.0" fill="#323232" transform="matrix(1.00, 0.00, -0.00, -1.00, 231.3, 279.0)">t</text><text xml:space="preserve" font-family="Menlo-Regular" font-size="30.0" fill="#323232" transform="matrix(1.00, 0.00, -0.00, -1.00, 249.3, 279.0)">.</text><text xml:space="preserve" font-family="Menlo-Regular" font-size="30.0" fill="#795DA3" transform="matrix(1.00, 0.00, -0.00, -1.00, 267.4, 279.0)">l</text><text xml:space="preserve" font-family="Menlo-Regular" font-size="30.0" fill="#795DA3" transform="matrix(1.00, 0.00, -0.00, -1.00, 285.4, 279.0)">o</text><text xml:space="preserve" font-family="Menlo-Regular" font-size="30.0" fill="#795DA3" transform="matrix(1.00, 0.00, -0.00, -1.00, 303.5, 279.0)">a</text><text xml:space="preserve" font-family="Menlo-Regular" font-size="30.0" fill="#795DA3" transform="matrix(1.00, 0.00, -0.00, -1.00, 321.6, 279.0)">d</text><text xml:space="preserve" font-family="Menlo-Regular" font-size="30.0" fill="#795DA3" transform="matrix(1.00, 0.00, -0.00, -1.00, 339.6, 279.0)">N</text><text xml:space="preserve" font-family="Menlo-Regular" font-size="30.0" fill="#795DA3" transform="matrix(1.00, 0.00, -0.00, -1.00, 357.7, 279.0)">p</text><text xml:space="preserve" font-family="Menlo-Regular" font-size="30.0" fill="#795DA3" transform="matrix(1.00, 0.00, -0.00, -1.00, 375.8, 279.0)">m</text><text xml:space="preserve" font-family="Menlo-Regular" font-size="30.0" fill="#795DA3" transform="matrix(1.00, 0.00, -0.00, -1.00, 393.8, 279.0)">T</text><text xml:space="preserve" font-family="Menlo-Regular" font-size="30.0" fill="#795DA3" transform="matrix(1.00, 0.00, -0.00, -1.00, 411.9, 279.0)">a</text><text xml:space="preserve" font-family="Menlo-Regular" font-size="30.0" fill="#795DA3" transform="matrix(1.00, 0.00, -0.00, -1.00, 429.9, 279.0)">s</text><text xml:space="preserve" font-family="Menlo-Regular" font-size="30.0" fill="#795DA3" transform="matrix(1.00, 0.00, -0.00, -1.00, 448.0, 279.0)">k</text><text xml:space="preserve" font-family="Menlo-Regular" font-size="30.0" fill="#795DA3" transform="matrix(1.00, 0.00, -0.00, -1.00, 466.1, 279.0)">s</text><text xml:space="preserve" font-family="Menlo-Regular" font-size="30.0" fill="#323232" transform="matrix(1.00, 0.00, -0.00, -1.00, 484.1, 279.0)">(</text><text xml:space="preserve" font-family="Menlo-Regular" font-size="30.0" fill="#183690" transform="matrix(1.00, 0.00, -0.00, -1.00, 502.2, 279.0)">'</text><text xml:space="preserve" font-family="Menlo-Regular" font-size="30.0" fill="#183690" transform="matrix(1.00, 0.00, -0.00, -1.00, 520.2, 279.0)">g</text><text xml:space="preserve" font-family="Menlo-Regular" font-size="30.0" fill="#183690" transform="matrix(1.00, 0.00, -0.00, -1.00, 538.3, 279.0)">r</text><text xml:space="preserve" font-family="Menlo-Regular" font-size="30.0" fill="#183690" transform="matrix(1.00, 0.00, -0.00, -1.00, 556.4, 279.0)">u</text><text xml:space="preserve" font-family="Menlo-Regular" font-size="30.0" fill="#183690" transform="matrix(1.00, 0.00, -0.00, -1.00, 574.4, 279.0)">n</text><text xml:space="preserve" font-family="Menlo-Regular" font-size="30.0" fill="#183690" transform="matrix(1.00, 0.00, -0.00, -1.00, 592.5, 279.0)">t</text><text xml:space="preserve" font-family="Menlo-Regular" font-size="30.0" fill="#183690" transform="matrix(1.00, 0.00, -0.00, -1.00, 610.6, 279.0)">-</text><text xml:space="preserve" font-family="Menlo-Regular" font-size="30.0" fill="#183690" transform="matrix(1.00, 0.00, -0.00, -1.00, 628.6, 279.0)">n</text><text xml:space="preserve" font-family="Menlo-Regular" font-size="30.0" fill="#183690" transform="matrix(1.00, 0.00, -0.00, -1.00, 646.7, 279.0)">w</text><text xml:space="preserve" font-family="Menlo-Regular" font-size="30.0" fill="#183690" transform="matrix(1.00, 0.00, -0.00, -1.00, 664.7, 279.0)">-</text><text xml:space="preserve" font-family="Menlo-Regular" font-size="30.0" fill="#183690" transform="matrix(1.00, 0.00, -0.00, -1.00, 682.8, 279.0)">b</text><text xml:space="preserve" font-family="Menlo-Regular" font-size="30.0" fill="#183690" transform="matrix(1.00, 0.00, -0.00, -1.00, 700.9, 279.0)">u</text><text xml:space="preserve" font-family="Menlo-Regular" font-size="30.0" fill="#183690" transform="matrix(1.00, 0.00, -0.00, -1.00, 718.9, 279.0)">i</text><text xml:space="preserve" font-family="Menlo-Regular" font-size="30.0" fill="#183690" transform="matrix(1.00, 0.00, -0.00, -1.00, 737.0, 279.0)">l</text><text xml:space="preserve" font-family="Menlo-Regular" font-size="30.0" fill="#183690" transform="matrix(1.00, 0.00, -0.00, -1.00, 755.1, 279.0)">d</text><text xml:space="preserve" font-family="Menlo-Regular" font-size="30.0" fill="#183690" transform="matrix(1.00, 0.00, -0.00, -1.00, 773.1, 279.0)">e</text><text xml:space="preserve" font-family="Menlo-Regular" font-size="30.0" fill="#183690" transform="matrix(1.00, 0.00, -0.00, -1.00, 791.2, 279.0)">r</text><text xml:space="preserve" font-family="Menlo-Regular" font-size="30.0" fill="#183690" transform="matrix(1.00, 0.00, -0.00, -1.00, 809.3, 279.0)">'</text><text xml:space="preserve" font-family="Menlo-Regular" font-size="30.0" fill="#323232" transform="matrix(1.00, 0.00, -0.00, -1.00, 827.3, 279.0)">)</text><text xml:space="preserve" font-family="Menlo-Regular" font-size="30.0" fill="#323232" transform="matrix(1.00, 0.00, -0.00, -1.00, 845.3, 279.0)">;</text></g></g><path d="M 148.3 244.5 L 960.2 244.5 L 960.2 20.5 L 148.3 20.5 Z M 148.3 244.5 " fill="#F7F7F7"></path><g><clipPath id="clip-130"><path d="M 146.5 18.7 L 962.0 18.7 L 962.0 246.3 L 146.5 246.3 Z M 146.5 18.7 "></path></clipPath><g clip-path="url(#clip-130)"><path d="M 152.3 240.5 L 381.1 240.5 L 381.1 216.5 L 152.3 216.5 Z M 152.3 240.5 " fill="#F7F7F7"></path><path d="M 152.3 216.5 L 272.7 216.5 L 272.7 192.5 L 152.3 192.5 Z M 152.3 216.5 " fill="#F7F7F7"></path><path d="M 152.3 192.5 L 333.0 192.5 L 333.0 168.5 L 152.3 168.5 Z M 152.3 192.5 " fill="#F7F7F7"></path><path d="M 152.3 168.5 L 561.7 168.5 L 561.7 144.5 L 152.3 144.5 Z M 152.3 168.5 " fill="#F7F7F7"></path><path d="M 152.3 144.5 L 501.5 144.5 L 501.5 120.5 L 152.3 120.5 Z M 152.3 144.5 " fill="#F7F7F7"></path><path d="M 152.3 120.5 L 236.6 120.5 L 236.6 96.5 L 152.3 96.5 Z M 152.3 120.5 " fill="#F7F7F7"></path><path d="M 152.3 96.5 L 537.7 96.5 L 537.7 72.5 L 152.3 72.5 Z M 152.3 96.5 " fill="#F7F7F7"></path><path d="M 152.3 72.5 L 212.5 72.5 L 212.5 48.5 L 152.3 48.5 Z M 152.3 72.5 " fill="#F7F7F7"></path><path d="M 152.3 48.5 L 176.4 48.5 L 176.4 24.5 L 152.3 24.5 Z M 152.3 48.5 " fill="#F7F7F7"></path><text xml:space="preserve" font-family="Menlo-Regular" font-size="20.0" fill="#323232" transform="matrix(1.00, 0.00, -0.00, -1.00, 152.0, 221.0)">g</text><text xml:space="preserve" font-family="Menlo-Regular" font-size="20.0" fill="#323232" transform="matrix(1.00, 0.00, -0.00, -1.00, 164.0, 221.0)">r</text><text xml:space="preserve" font-family="Menlo-Regular" font-size="20.0" fill="#323232" transform="matrix(1.00, 0.00, -0.00, -1.00, 176.1, 221.0)">u</text><text xml:space="preserve" font-family="Menlo-Regular" font-size="20.0" fill="#323232" transform="matrix(1.00, 0.00, -0.00, -1.00, 188.1, 221.0)">n</text><text xml:space="preserve" font-family="Menlo-Regular" font-size="20.0" fill="#323232" transform="matrix(1.00, 0.00, -0.00, -1.00, 200.2, 221.0)">t</text><text xml:space="preserve" font-family="Menlo-Regular" font-size="20.0" fill="#323232" transform="matrix(1.00, 0.00, -0.00, -1.00, 212.2, 221.0)">.</text><text xml:space="preserve" font-family="Menlo-Regular" font-size="20.0" fill="#795DA3" transform="matrix(1.00, 0.00, -0.00, -1.00, 224.2, 221.0)">i</text><text xml:space="preserve" font-family="Menlo-Regular" font-size="20.0" fill="#795DA3" transform="matrix(1.00, 0.00, -0.00, -1.00, 236.3, 221.0)">n</text><text xml:space="preserve" font-family="Menlo-Regular" font-size="20.0" fill="#795DA3" transform="matrix(1.00, 0.00, -0.00, -1.00, 248.3, 221.0)">i</text><text xml:space="preserve" font-family="Menlo-Regular" font-size="20.0" fill="#795DA3" transform="matrix(1.00, 0.00, -0.00, -1.00, 260.4, 221.0)">t</text><text xml:space="preserve" font-family="Menlo-Regular" font-size="20.0" fill="#795DA3" transform="matrix(1.00, 0.00, -0.00, -1.00, 272.4, 221.0)">C</text><text xml:space="preserve" font-family="Menlo-Regular" font-size="20.0" fill="#795DA3" transform="matrix(1.00, 0.00, -0.00, -1.00, 284.5, 221.0)">o</text><text xml:space="preserve" font-family="Menlo-Regular" font-size="20.0" fill="#795DA3" transform="matrix(1.00, 0.00, -0.00, -1.00, 296.5, 221.0)">n</text><text xml:space="preserve" font-family="Menlo-Regular" font-size="20.0" fill="#795DA3" transform="matrix(1.00, 0.00, -0.00, -1.00, 308.5, 221.0)">f</text><text xml:space="preserve" font-family="Menlo-Regular" font-size="20.0" fill="#795DA3" transform="matrix(1.00, 0.00, -0.00, -1.00, 320.6, 221.0)">i</text><text xml:space="preserve" font-family="Menlo-Regular" font-size="20.0" fill="#795DA3" transform="matrix(1.00, 0.00, -0.00, -1.00, 332.6, 221.0)">g</text><text xml:space="preserve" font-family="Menlo-Regular" font-size="20.0" fill="#323232" transform="matrix(1.00, 0.00, -0.00, -1.00, 344.7, 221.0)">(</text><text xml:space="preserve" font-family="Menlo-Regular" font-size="20.0" fill="#323232" transform="matrix(1.00, 0.00, -0.00, -1.00, 356.7, 221.0)">{</text><text xml:space="preserve" font-family="Menlo-Regular" font-size="20.0" fill="#323232" transform="matrix(1.00, 0.00, -0.00, -1.00, 368.7, 221.0)"> </text><text xml:space="preserve" font-family="Menlo-Regular" font-size="20.0" fill="#323232" transform="matrix(1.00, 0.00, -0.00, -1.00, 152.0, 197.0)"> </text><text xml:space="preserve" font-family="Menlo-Regular" font-size="20.0" fill="#323232" transform="matrix(1.00, 0.00, -0.00, -1.00, 164.0, 197.0)"> </text><text xml:space="preserve" font-family="Menlo-Regular" font-size="20.0" fill="#323232" transform="matrix(1.00, 0.00, -0.00, -1.00, 176.1, 197.0)">n</text><text xml:space="preserve" font-family="Menlo-Regular" font-size="20.0" fill="#323232" transform="matrix(1.00, 0.00, -0.00, -1.00, 188.1, 197.0)">w</text><text xml:space="preserve" font-family="Menlo-Regular" font-size="20.0" fill="#323232" transform="matrix(1.00, 0.00, -0.00, -1.00, 200.2, 197.0)">j</text><text xml:space="preserve" font-family="Menlo-Regular" font-size="20.0" fill="#323232" transform="matrix(1.00, 0.00, -0.00, -1.00, 212.2, 197.0)">s</text><text xml:space="preserve" font-family="Menlo-Regular" font-size="20.0" fill="#A61C5D" transform="matrix(1.00, 0.00, -0.00, -1.00, 224.2, 197.0)">:</text><text xml:space="preserve" font-family="Menlo-Regular" font-size="20.0" fill="#323232" transform="matrix(1.00, 0.00, -0.00, -1.00, 236.3, 197.0)"> </text><text xml:space="preserve" font-family="Menlo-Regular" font-size="20.0" fill="#323232" transform="matrix(1.00, 0.00, -0.00, -1.00, 248.3, 197.0)">{</text><text xml:space="preserve" font-family="Menlo-Regular" font-size="20.0" fill="#323232" transform="matrix(1.00, 0.00, -0.00, -1.00, 260.4, 197.0)"> </text><text xml:space="preserve" font-family="Menlo-Regular" font-size="20.0" fill="#323232" transform="matrix(1.00, 0.00, -0.00, -1.00, 152.0, 173.0)"> </text><text xml:space="preserve" font-family="Menlo-Regular" font-size="20.0" fill="#323232" transform="matrix(1.00, 0.00, -0.00, -1.00, 164.0, 173.0)"> </text><text xml:space="preserve" font-family="Menlo-Regular" font-size="20.0" fill="#323232" transform="matrix(1.00, 0.00, -0.00, -1.00, 176.1, 173.0)"> </text><text xml:space="preserve" font-family="Menlo-Regular" font-size="20.0" fill="#323232" transform="matrix(1.00, 0.00, -0.00, -1.00, 188.1, 173.0)"> </text><text xml:space="preserve" font-family="Menlo-Regular" font-size="20.0" fill="#323232" transform="matrix(1.00, 0.00, -0.00, -1.00, 200.2, 173.0)">o</text><text xml:space="preserve" font-family="Menlo-Regular" font-size="20.0" fill="#323232" transform="matrix(1.00, 0.00, -0.00, -1.00, 212.2, 173.0)">p</text><text xml:space="preserve" font-family="Menlo-Regular" font-size="20.0" fill="#323232" transform="matrix(1.00, 0.00, -0.00, -1.00, 224.3, 173.0)">t</text><text xml:space="preserve" font-family="Menlo-Regular" font-size="20.0" fill="#323232" transform="matrix(1.00, 0.00, -0.00, -1.00, 236.3, 173.0)">i</text><text xml:space="preserve" font-family="Menlo-Regular" font-size="20.0" fill="#323232" transform="matrix(1.00, 0.00, -0.00, -1.00, 248.3, 173.0)">o</text><text xml:space="preserve" font-family="Menlo-Regular" font-size="20.0" fill="#323232" transform="matrix(1.00, 0.00, -0.00, -1.00, 260.4, 173.0)">n</text><text xml:space="preserve" font-family="Menlo-Regular" font-size="20.0" fill="#323232" transform="matrix(1.00, 0.00, -0.00, -1.00, 272.4, 173.0)">s</text><text xml:space="preserve" font-family="Menlo-Regular" font-size="20.0" fill="#A61C5D" transform="matrix(1.00, 0.00, -0.00, -1.00, 284.5, 173.0)">:</text><text xml:space="preserve" font-family="Menlo-Regular" font-size="20.0" fill="#323232" transform="matrix(1.00, 0.00, -0.00, -1.00, 296.5, 173.0)"> </text><text xml:space="preserve" font-family="Menlo-Regular" font-size="20.0" fill="#323232" transform="matrix(1.00, 0.00, -0.00, -1.00, 308.5, 173.0)">{</text><text xml:space="preserve" font-family="Menlo-Regular" font-size="20.0" fill="#323232" transform="matrix(1.00, 0.00, -0.00, -1.00, 320.6, 173.0)"> </text><text xml:space="preserve" font-family="Menlo-Regular" font-size="20.0" fill="#323232" transform="matrix(1.00, 0.00, -0.00, -1.00, 152.0, 149.0)"> </text><text xml:space="preserve" font-family="Menlo-Regular" font-size="20.0" fill="#323232" transform="matrix(1.00, 0.00, -0.00, -1.00, 164.0, 149.0)"> </text><text xml:space="preserve" font-family="Menlo-Regular" font-size="20.0" fill="#323232" transform="matrix(1.00, 0.00, -0.00, -1.00, 176.1, 149.0)"> </text><text xml:space="preserve" font-family="Menlo-Regular" font-size="20.0" fill="#323232" transform="matrix(1.00, 0.00, -0.00, -1.00, 188.1, 149.0)"> </text><text xml:space="preserve" font-family="Menlo-Regular" font-size="20.0" fill="#323232" transform="matrix(1.00, 0.00, -0.00, -1.00, 200.2, 149.0)"> </text><text xml:space="preserve" font-family="Menlo-Regular" font-size="20.0" fill="#323232" transform="matrix(1.00, 0.00, -0.00, -1.00, 212.2, 149.0)"> </text><text xml:space="preserve" font-family="Menlo-Regular" font-size="20.0" fill="#323232" transform="matrix(1.00, 0.00, -0.00, -1.00, 224.3, 149.0)"> </text><text xml:space="preserve" font-family="Menlo-Regular" font-size="20.0" fill="#323232" transform="matrix(1.00, 0.00, -0.00, -1.00, 236.3, 149.0)"> </text><text xml:space="preserve" font-family="Menlo-Regular" font-size="20.0" fill="#323232" transform="matrix(1.00, 0.00, -0.00, -1.00, 248.3, 149.0)">p</text><text xml:space="preserve" font-family="Menlo-Regular" font-size="20.0" fill="#323232" transform="matrix(1.00, 0.00, -0.00, -1.00, 260.4, 149.0)">l</text><text xml:space="preserve" font-family="Menlo-Regular" font-size="20.0" fill="#323232" transform="matrix(1.00, 0.00, -0.00, -1.00, 272.4, 149.0)">a</text><text xml:space="preserve" font-family="Menlo-Regular" font-size="20.0" fill="#323232" transform="matrix(1.00, 0.00, -0.00, -1.00, 284.5, 149.0)">t</text><text xml:space="preserve" font-family="Menlo-Regular" font-size="20.0" fill="#323232" transform="matrix(1.00, 0.00, -0.00, -1.00, 296.5, 149.0)">f</text><text xml:space="preserve" font-family="Menlo-Regular" font-size="20.0" fill="#323232" transform="matrix(1.00, 0.00, -0.00, -1.00, 308.6, 149.0)">o</text><text xml:space="preserve" font-family="Menlo-Regular" font-size="20.0" fill="#323232" transform="matrix(1.00, 0.00, -0.00, -1.00, 320.6, 149.0)">r</text><text xml:space="preserve" font-family="Menlo-Regular" font-size="20.0" fill="#323232" transform="matrix(1.00, 0.00, -0.00, -1.00, 332.6, 149.0)">m</text><text xml:space="preserve" font-family="Menlo-Regular" font-size="20.0" fill="#323232" transform="matrix(1.00, 0.00, -0.00, -1.00, 344.7, 149.0)">s</text><text xml:space="preserve" font-family="Menlo-Regular" font-size="20.0" fill="#A61C5D" transform="matrix(1.00, 0.00, -0.00, -1.00, 356.7, 149.0)">:</text><text xml:space="preserve" font-family="Menlo-Regular" font-size="20.0" fill="#323232" transform="matrix(1.00, 0.00, -0.00, -1.00, 368.7, 149.0)"> </text><text xml:space="preserve" font-family="Menlo-Regular" font-size="20.0" fill="#323232" transform="matrix(1.00, 0.00, -0.00, -1.00, 380.8, 149.0)">[</text><text xml:space="preserve" font-family="Menlo-Regular" font-size="20.0" fill="#183690" transform="matrix(1.00, 0.00, -0.00, -1.00, 392.8, 149.0)">'</text><text xml:space="preserve" font-family="Menlo-Regular" font-size="20.0" fill="#183690" transform="matrix(1.00, 0.00, -0.00, -1.00, 404.9, 149.0)">w</text><text xml:space="preserve" font-family="Menlo-Regular" font-size="20.0" fill="#183690" transform="matrix(1.00, 0.00, -0.00, -1.00, 416.9, 149.0)">i</text><text xml:space="preserve" font-family="Menlo-Regular" font-size="20.0" fill="#183690" transform="matrix(1.00, 0.00, -0.00, -1.00, 428.9, 149.0)">n</text><text xml:space="preserve" font-family="Menlo-Regular" font-size="20.0" fill="#183690" transform="matrix(1.00, 0.00, -0.00, -1.00, 441.0, 149.0)">'</text><text xml:space="preserve" font-family="Menlo-Regular" font-size="20.0" fill="#323232" transform="matrix(1.00, 0.00, -0.00, -1.00, 453.0, 149.0)">,</text><text xml:space="preserve" font-family="Menlo-Regular" font-size="20.0" fill="#183690" transform="matrix(1.00, 0.00, -0.00, -1.00, 465.1, 149.0)">'</text><text xml:space="preserve" font-family="Menlo-Regular" font-size="20.0" fill="#183690" transform="matrix(1.00, 0.00, -0.00, -1.00, 477.1, 149.0)">o</text><text xml:space="preserve" font-family="Menlo-Regular" font-size="20.0" fill="#183690" transform="matrix(1.00, 0.00, -0.00, -1.00, 489.2, 149.0)">s</text><text xml:space="preserve" font-family="Menlo-Regular" font-size="20.0" fill="#183690" transform="matrix(1.00, 0.00, -0.00, -1.00, 501.2, 149.0)">x</text><text xml:space="preserve" font-family="Menlo-Regular" font-size="20.0" fill="#183690" transform="matrix(1.00, 0.00, -0.00, -1.00, 513.2, 149.0)">'</text><text xml:space="preserve" font-family="Menlo-Regular" font-size="20.0" fill="#323232" transform="matrix(1.00, 0.00, -0.00, -1.00, 525.3, 149.0)">]</text><text xml:space="preserve" font-family="Menlo-Regular" font-size="20.0" fill="#323232" transform="matrix(1.00, 0.00, -0.00, -1.00, 537.3, 149.0)">,</text><text xml:space="preserve" font-family="Menlo-Regular" font-size="20.0" fill="#323232" transform="matrix(1.00, 0.00, -0.00, -1.00, 549.4, 149.0)"> </text><text xml:space="preserve" font-family="Menlo-Regular" font-size="20.0" fill="#323232" transform="matrix(1.00, 0.00, -0.00, -1.00, 152.0, 125.0)"> </text><text xml:space="preserve" font-family="Menlo-Regular" font-size="20.0" fill="#323232" transform="matrix(1.00, 0.00, -0.00, -1.00, 164.0, 125.0)"> </text><text xml:space="preserve" font-family="Menlo-Regular" font-size="20.0" fill="#323232" transform="matrix(1.00, 0.00, -0.00, -1.00, 176.1, 125.0)"> </text><text xml:space="preserve" font-family="Menlo-Regular" font-size="20.0" fill="#323232" transform="matrix(1.00, 0.00, -0.00, -1.00, 188.1, 125.0)"> </text><text xml:space="preserve" font-family="Menlo-Regular" font-size="20.0" fill="#323232" transform="matrix(1.00, 0.00, -0.00, -1.00, 200.2, 125.0)"> </text><text xml:space="preserve" font-family="Menlo-Regular" font-size="20.0" fill="#323232" transform="matrix(1.00, 0.00, -0.00, -1.00, 212.2, 125.0)"> </text><text xml:space="preserve" font-family="Menlo-Regular" font-size="20.0" fill="#323232" transform="matrix(1.00, 0.00, -0.00, -1.00, 224.3, 125.0)"> </text><text xml:space="preserve" font-family="Menlo-Regular" font-size="20.0" fill="#323232" transform="matrix(1.00, 0.00, -0.00, -1.00, 236.3, 125.0)"> </text><text xml:space="preserve" font-family="Menlo-Regular" font-size="20.0" fill="#323232" transform="matrix(1.00, 0.00, -0.00, -1.00, 248.3, 125.0)">b</text><text xml:space="preserve" font-family="Menlo-Regular" font-size="20.0" fill="#323232" transform="matrix(1.00, 0.00, -0.00, -1.00, 260.4, 125.0)">u</text><text xml:space="preserve" font-family="Menlo-Regular" font-size="20.0" fill="#323232" transform="matrix(1.00, 0.00, -0.00, -1.00, 272.4, 125.0)">i</text><text xml:space="preserve" font-family="Menlo-Regular" font-size="20.0" fill="#323232" transform="matrix(1.00, 0.00, -0.00, -1.00, 284.5, 125.0)">l</text><text xml:space="preserve" font-family="Menlo-Regular" font-size="20.0" fill="#323232" transform="matrix(1.00, 0.00, -0.00, -1.00, 296.5, 125.0)">d</text><text xml:space="preserve" font-family="Menlo-Regular" font-size="20.0" fill="#323232" transform="matrix(1.00, 0.00, -0.00, -1.00, 308.6, 125.0)">D</text><text xml:space="preserve" font-family="Menlo-Regular" font-size="20.0" fill="#323232" transform="matrix(1.00, 0.00, -0.00, -1.00, 320.6, 125.0)">i</text><text xml:space="preserve" font-family="Menlo-Regular" font-size="20.0" fill="#323232" transform="matrix(1.00, 0.00, -0.00, -1.00, 332.6, 125.0)">r</text><text xml:space="preserve" font-family="Menlo-Regular" font-size="20.0" fill="#A61C5D" transform="matrix(1.00, 0.00, -0.00, -1.00, 344.7, 125.0)">:</text><text xml:space="preserve" font-family="Menlo-Regular" font-size="20.0" fill="#323232" transform="matrix(1.00, 0.00, -0.00, -1.00, 356.7, 125.0)"> </text><text xml:space="preserve" font-family="Menlo-Regular" font-size="20.0" fill="#183690" transform="matrix(1.00, 0.00, -0.00, -1.00, 368.7, 125.0)">'</text><text xml:space="preserve" font-family="Menlo-Regular" font-size="20.0" fill="#183690" transform="matrix(1.00, 0.00, -0.00, -1.00, 380.8, 125.0)">.</text><text xml:space="preserve" font-family="Menlo-Regular" font-size="20.0" fill="#183690" transform="matrix(1.00, 0.00, -0.00, -1.00, 392.8, 125.0)">/</text><text xml:space="preserve" font-family="Menlo-Regular" font-size="20.0" fill="#183690" transform="matrix(1.00, 0.00, -0.00, -1.00, 404.9, 125.0)">b</text><text xml:space="preserve" font-family="Menlo-Regular" font-size="20.0" fill="#183690" transform="matrix(1.00, 0.00, -0.00, -1.00, 416.9, 125.0)">u</text><text xml:space="preserve" font-family="Menlo-Regular" font-size="20.0" fill="#183690" transform="matrix(1.00, 0.00, -0.00, -1.00, 429.0, 125.0)">i</text><text xml:space="preserve" font-family="Menlo-Regular" font-size="20.0" fill="#183690" transform="matrix(1.00, 0.00, -0.00, -1.00, 441.0, 125.0)">l</text><text xml:space="preserve" font-family="Menlo-Regular" font-size="20.0" fill="#183690" transform="matrix(1.00, 0.00, -0.00, -1.00, 453.0, 125.0)">d</text><text xml:space="preserve" font-family="Menlo-Regular" font-size="20.0" fill="#183690" transform="matrix(1.00, 0.00, -0.00, -1.00, 465.1, 125.0)">'</text><text xml:space="preserve" font-family="Menlo-Regular" font-size="20.0" fill="#323232" transform="matrix(1.00, 0.00, -0.00, -1.00, 477.1, 125.0)">,</text><text xml:space="preserve" font-family="Menlo-Regular" font-size="20.0" fill="#323232" transform="matrix(1.00, 0.00, -0.00, -1.00, 489.2, 125.0)"> </text><text xml:space="preserve" font-family="Menlo-Regular" font-size="20.0" fill="#323232" transform="matrix(1.00, 0.00, -0.00, -1.00, 152.0, 101.0)"> </text><text xml:space="preserve" font-family="Menlo-Regular" font-size="20.0" fill="#323232" transform="matrix(1.00, 0.00, -0.00, -1.00, 164.0, 101.0)"> </text><text xml:space="preserve" font-family="Menlo-Regular" font-size="20.0" fill="#323232" transform="matrix(1.00, 0.00, -0.00, -1.00, 176.1, 101.0)"> </text><text xml:space="preserve" font-family="Menlo-Regular" font-size="20.0" fill="#323232" transform="matrix(1.00, 0.00, -0.00, -1.00, 188.1, 101.0)"> </text><text xml:space="preserve" font-family="Menlo-Regular" font-size="20.0" fill="#323232" transform="matrix(1.00, 0.00, -0.00, -1.00, 200.2, 101.0)">}</text><text xml:space="preserve" font-family="Menlo-Regular" font-size="20.0" fill="#323232" transform="matrix(1.00, 0.00, -0.00, -1.00, 212.2, 101.0)">,</text><text xml:space="preserve" font-family="Menlo-Regular" font-size="20.0" fill="#323232" transform="matrix(1.00, 0.00, -0.00, -1.00, 224.3, 101.0)"> </text><text xml:space="preserve" font-family="Menlo-Regular" font-size="20.0" fill="#323232" transform="matrix(1.00, 0.00, -0.00, -1.00, 152.0, 77.0)"> </text><text xml:space="preserve" font-family="Menlo-Regular" font-size="20.0" fill="#323232" transform="matrix(1.00, 0.00, -0.00, -1.00, 164.0, 77.0)"> </text><text xml:space="preserve" font-family="Menlo-Regular" font-size="20.0" fill="#323232" transform="matrix(1.00, 0.00, -0.00, -1.00, 176.1, 77.0)"> </text><text xml:space="preserve" font-family="Menlo-Regular" font-size="20.0" fill="#323232" transform="matrix(1.00, 0.00, -0.00, -1.00, 188.1, 77.0)"> </text><text xml:space="preserve" font-family="Menlo-Regular" font-size="20.0" fill="#323232" transform="matrix(1.00, 0.00, -0.00, -1.00, 200.2, 77.0)">s</text><text xml:space="preserve" font-family="Menlo-Regular" font-size="20.0" fill="#323232" transform="matrix(1.00, 0.00, -0.00, -1.00, 212.2, 77.0)">r</text><text xml:space="preserve" font-family="Menlo-Regular" font-size="20.0" fill="#323232" transform="matrix(1.00, 0.00, -0.00, -1.00, 224.3, 77.0)">c</text><text xml:space="preserve" font-family="Menlo-Regular" font-size="20.0" fill="#A61C5D" transform="matrix(1.00, 0.00, -0.00, -1.00, 236.3, 77.0)">:</text><text xml:space="preserve" font-family="Menlo-Regular" font-size="20.0" fill="#323232" transform="matrix(1.00, 0.00, -0.00, -1.00, 248.3, 77.0)"> </text><text xml:space="preserve" font-family="Menlo-Regular" font-size="20.0" fill="#323232" transform="matrix(1.00, 0.00, -0.00, -1.00, 260.4, 77.0)">[</text><text xml:space="preserve" font-family="Menlo-Regular" font-size="20.0" fill="#183690" transform="matrix(1.00, 0.00, -0.00, -1.00, 272.4, 77.0)">‘</text><text xml:space="preserve" font-family="Menlo-Regular" font-size="20.0" fill="#183690" transform="matrix(1.00, 0.00, -0.00, -1.00, 284.5, 77.0)">.</text><text xml:space="preserve" font-family="Menlo-Regular" font-size="20.0" fill="#183690" transform="matrix(1.00, 0.00, -0.00, -1.00, 296.5, 77.0)">/</text><text xml:space="preserve" font-family="Menlo-Regular" font-size="20.0" fill="#183690" transform="matrix(1.00, 0.00, -0.00, -1.00, 308.5, 77.0)">s</text><text xml:space="preserve" font-family="Menlo-Regular" font-size="20.0" fill="#183690" transform="matrix(1.00, 0.00, -0.00, -1.00, 320.6, 77.0)">r</text><text xml:space="preserve" font-family="Menlo-Regular" font-size="20.0" fill="#183690" transform="matrix(1.00, 0.00, -0.00, -1.00, 332.6, 77.0)">c</text><text xml:space="preserve" font-family="Menlo-Regular" font-size="20.0" fill="#183690" transform="matrix(1.00, 0.00, -0.00, -1.00, 344.7, 77.0)">/</text><text xml:space="preserve" font-family="Menlo-Regular" font-size="20.0" fill="#183690" transform="matrix(1.00, 0.00, -0.00, -1.00, 356.7, 77.0)">*</text><text xml:space="preserve" font-family="Menlo-Regular" font-size="20.0" fill="#183690" transform="matrix(1.00, 0.00, -0.00, -1.00, 368.8, 77.0)">*</text><text xml:space="preserve" font-family="Menlo-Regular" font-size="20.0" fill="#183690" transform="matrix(1.00, 0.00, -0.00, -1.00, 380.8, 77.0)">/</text><text xml:space="preserve" font-family="Menlo-Regular" font-size="20.0" fill="#183690" transform="matrix(1.00, 0.00, -0.00, -1.00, 392.8, 77.0)">*</text><text xml:space="preserve" font-family="Menlo-Regular" font-size="20.0" fill="#183690" transform="matrix(1.00, 0.00, -0.00, -1.00, 404.9, 77.0)">’</text><text xml:space="preserve" font-family="Menlo-Regular" font-size="20.0" fill="#183690" transform="matrix(1.00, 0.00, -0.00, -1.00, 416.9, 77.0)">,</text><text xml:space="preserve" font-family="Menlo-Regular" font-size="20.0" fill="#183690" transform="matrix(1.00, 0.00, -0.00, -1.00, 429.0, 77.0)"> </text><text xml:space="preserve" font-family="Menlo-Regular" font-size="20.0" fill="#183690" transform="matrix(1.00, 0.00, -0.00, -1.00, 441.0, 77.0)">‘</text><text xml:space="preserve" font-family="Menlo-Regular" font-size="20.0" fill="#183690" transform="matrix(1.00, 0.00, -0.00, -1.00, 453.1, 77.0)">!</text><text xml:space="preserve" font-family="Menlo-Regular" font-size="20.0" fill="#183690" transform="matrix(1.00, 0.00, -0.00, -1.00, 465.1, 77.0)">b</text><text xml:space="preserve" font-family="Menlo-Regular" font-size="20.0" fill="#183690" transform="matrix(1.00, 0.00, -0.00, -1.00, 477.1, 77.0)">i</text><text xml:space="preserve" font-family="Menlo-Regular" font-size="20.0" fill="#183690" transform="matrix(1.00, 0.00, -0.00, -1.00, 489.2, 77.0)">n</text><text xml:space="preserve" font-family="Menlo-Regular" font-size="20.0" fill="#183690" transform="matrix(1.00, 0.00, -0.00, -1.00, 501.2, 77.0)">’</text><text xml:space="preserve" font-family="Menlo-Regular" font-size="20.0" fill="#323232" transform="matrix(1.00, 0.00, -0.00, -1.00, 513.2, 77.0)">]</text><text xml:space="preserve" font-family="Menlo-Regular" font-size="20.0" fill="#323232" transform="matrix(1.00, 0.00, -0.00, -1.00, 525.3, 77.0)"> </text><text xml:space="preserve" font-family="Menlo-Regular" font-size="20.0" fill="#323232" transform="matrix(1.00, 0.00, -0.00, -1.00, 152.0, 53.0)"> </text><text xml:space="preserve" font-family="Menlo-Regular" font-size="20.0" fill="#323232" transform="matrix(1.00, 0.00, -0.00, -1.00, 164.0, 53.0)"> </text><text xml:space="preserve" font-family="Menlo-Regular" font-size="20.0" fill="#323232" transform="matrix(1.00, 0.00, -0.00, -1.00, 176.1, 53.0)">}</text><text xml:space="preserve" font-family="Menlo-Regular" font-size="20.0" fill="#323232" transform="matrix(1.00, 0.00, -0.00, -1.00, 188.1, 53.0)">,</text><text xml:space="preserve" font-family="Menlo-Regular" font-size="20.0" fill="#323232" transform="matrix(1.00, 0.00, -0.00, -1.00, 200.2, 53.0)"> </text><text xml:space="preserve" font-family="Menlo-Regular" font-size="20.0" fill="#323232" transform="matrix(1.00, 0.00, -0.00, -1.00, 152.0, 29.0)">}</text><text xml:space="preserve" font-family="Menlo-Regular" font-size="20.0" fill="#323232" transform="matrix(1.00, 0.00, -0.00, -1.00, 164.0, 29.0)">)</text></g></g></g></svg>