<?xml version="1.0" encoding="UTF-8" standalone="no"?><svg xmlns="http://www.w3.org/2000/svg" xmlns:xlink="http://www.w3.org/1999/xlink" clip-rule="evenodd" stroke-miterlimit="4.00" viewBox="0 0 1024 768"><desc>SVG generated by Keynote</desc><defs></defs><g transform="matrix(1.00, 0.00, -0.00, -1.00, 0.0, 768.0)"><g><clipPath id="clip-23"><path d="M 0.0 768.0 L 1024.0 768.0 L 1024.0 0.0 L 0.0 0.0 Z M 0.0 768.0 "></path></clipPath><g clip-path="url(#clip-23)"><image xlink:href="../../293415CD-D1BA-41BB-8703-BAEDA9FFCE27/assets/D3CB8578D364082F6943B53F933CCC32.jpeg" width="1024.00" height="768.00" transform="matrix(1.00, 0.00, -0.00, -1.00, 0.0, 768.0)"></image></g></g><text xml:space="preserve" font-family="GillSans-SemiBold" font-weight="bold" font-size="48.0" fill="#525252" transform="matrix(1.00, 0.00, -0.00, -1.00, 61.0, 699.0)">С</text><text xml:space="preserve" font-family="GillSans-SemiBold" font-weight="bold" font-size="48.0" fill="#525252" transform="matrix(1.00, 0.00, -0.00, -1.00, 95.8, 699.0)">О</text><text xml:space="preserve" font-family="GillSans-SemiBold" font-weight="bold" font-size="48.0" fill="#525252" transform="matrix(1.00, 0.00, -0.00, -1.00, 136.6, 699.0)">З</text><text xml:space="preserve" font-family="GillSans-SemiBold" font-weight="bold" font-size="48.0" fill="#525252" transform="matrix(1.00, 0.00, -0.00, -1.00, 163.4, 699.0)">Д</text><text xml:space="preserve" font-family="GillSans-SemiBold" font-weight="bold" font-size="48.0" fill="#525252" transform="matrix(1.00, 0.00, -0.00, -1.00, 200.1, 699.0)">А</text><text xml:space="preserve" font-family="GillSans-SemiBold" font-weight="bold" font-size="48.0" fill="#525252" transform="matrix(1.00, 0.00, -0.00, -1.00, 235.0, 699.0)">Д</text><text xml:space="preserve" font-family="GillSans-SemiBold" font-weight="bold" font-size="48.0" fill="#525252" transform="matrix(1.00, 0.00, -0.00, -1.00, 271.7, 699.0)">И</text><text xml:space="preserve" font-family="GillSans-SemiBold" font-weight="bold" font-size="48.0" fill="#525252" transform="matrix(1.00, 0.00, -0.00, -1.00, 308.7, 699.0)">М</text><text xml:space="preserve" font-family="GillSans-SemiBold" font-weight="bold" font-size="48.0" fill="#525252" transform="matrix(1.00, 0.00, -0.00, -1.00, 348.8, 699.0)"> </text><text xml:space="preserve" font-family="GillSans-SemiBold" font-weight="bold" font-size="48.0" fill="#525252" transform="matrix(1.00, 0.00, -0.00, -1.00, 362.1, 699.0)">П</text><text xml:space="preserve" font-family="GillSans-SemiBold" font-weight="bold" font-size="48.0" fill="#525252" transform="matrix(1.00, 0.00, -0.00, -1.00, 399.3, 699.0)">Р</text><text xml:space="preserve" font-family="GillSans-SemiBold" font-weight="bold" font-size="48.0" fill="#525252" transform="matrix(1.00, 0.00, -0.00, -1.00, 427.3, 699.0)">О</text><text xml:space="preserve" font-family="GillSans-SemiBold" font-weight="bold" font-size="48.0" fill="#525252" transform="matrix(1.00, 0.00, -0.00, -1.00, 468.1, 699.0)">С</text><text xml:space="preserve" font-family="GillSans-SemiBold" font-weight="bold" font-size="48.0" fill="#525252" transform="matrix(1.00, 0.00, -0.00, -1.00, 502.9, 699.0)">Т</text><text xml:space="preserve" font-family="GillSans-SemiBold" font-weight="bold" font-size="48.0" fill="#525252" transform="matrix(1.00, 0.00, -0.00, -1.00, 533.4, 699.0)">О</text><text xml:space="preserve" font-family="GillSans-SemiBold" font-weight="bold" font-size="48.0" fill="#525252" transform="matrix(1.00, 0.00, -0.00, -1.00, 574.2, 699.0)">Е</text><text xml:space="preserve" font-family="GillSans-SemiBold" font-weight="bold" font-size="48.0" fill="#525252" transform="matrix(1.00, 0.00, -0.00, -1.00, 601.6, 699.0)"> </text><text xml:space="preserve" font-family="GillSans-SemiBold" font-weight="bold" font-size="48.0" fill="#525252" transform="matrix(1.00, 0.00, -0.00, -1.00, 614.9, 699.0)">П</text><text xml:space="preserve" font-family="GillSans-SemiBold" font-weight="bold" font-size="48.0" fill="#525252" transform="matrix(1.00, 0.00, -0.00, -1.00, 652.0, 699.0)">Р</text><text xml:space="preserve" font-family="GillSans-SemiBold" font-weight="bold" font-size="48.0" fill="#525252" transform="matrix(1.00, 0.00, -0.00, -1.00, 680.1, 699.0)">И</text><text xml:space="preserve" font-family="GillSans-SemiBold" font-weight="bold" font-size="48.0" fill="#525252" transform="matrix(1.00, 0.00, -0.00, -1.00, 717.1, 699.0)">Л</text><text xml:space="preserve" font-family="GillSans-SemiBold" font-weight="bold" font-size="48.0" fill="#525252" transform="matrix(1.00, 0.00, -0.00, -1.00, 750.1, 699.0)">О</text><text xml:space="preserve" font-family="GillSans-SemiBold" font-weight="bold" font-size="48.0" fill="#525252" transform="matrix(1.00, 0.00, -0.00, -1.00, 789.0, 699.0)">Ж</text><text xml:space="preserve" font-family="GillSans-SemiBold" font-weight="bold" font-size="48.0" fill="#525252" transform="matrix(1.00, 0.00, -0.00, -1.00, 835.1, 699.0)">Е</text><text xml:space="preserve" font-family="GillSans-SemiBold" font-weight="bold" font-size="48.0" fill="#525252" transform="matrix(1.00, 0.00, -0.00, -1.00, 862.5, 699.0)">Н</text><text xml:space="preserve" font-family="GillSans-SemiBold" font-weight="bold" font-size="48.0" fill="#525252" transform="matrix(1.00, 0.00, -0.00, -1.00, 899.4, 699.0)">И</text><text xml:space="preserve" font-family="GillSans-SemiBold" font-weight="bold" font-size="48.0" fill="#525252" transform="matrix(1.00, 0.00, -0.00, -1.00, 936.4, 699.0)">Е</text><text xml:space="preserve" font-family="GillSans-Light" font-size="50.0" fill="#525252" transform="matrix(1.00, 0.00, -0.00, -1.00, 325.0, 322.0)">$</text><text xml:space="preserve" font-family="GillSans-Light" font-size="50.0" fill="#525252" transform="matrix(1.00, 0.00, -0.00, -1.00, 351.0, 322.0)"> </text><text xml:space="preserve" font-family="GillSans-Light" font-size="50.0" fill="#525252" transform="matrix(1.00, 0.00, -0.00, -1.00, 364.9, 322.0)">n</text><text xml:space="preserve" font-family="GillSans-Light" font-size="50.0" fill="#525252" transform="matrix(1.00, 0.00, -0.00, -1.00, 389.5, 322.0)">p</text><text xml:space="preserve" font-family="GillSans-Light" font-size="50.0" fill="#525252" transform="matrix(1.00, 0.00, -0.00, -1.00, 414.9, 322.0)">m</text><text xml:space="preserve" font-family="GillSans-Light" font-size="50.0" fill="#525252" transform="matrix(1.00, 0.00, -0.00, -1.00, 453.5, 322.0)"> </text><text xml:space="preserve" font-family="GillSans-Light" font-size="50.0" fill="#525252" transform="matrix(1.00, 0.00, -0.00, -1.00, 467.4, 322.0)">i</text><text xml:space="preserve" font-family="GillSans-Light" font-size="50.0" fill="#525252" transform="matrix(1.00, 0.00, -0.00, -1.00, 476.8, 322.0)">n</text><text xml:space="preserve" font-family="GillSans-Light" font-size="50.0" fill="#525252" transform="matrix(1.00, 0.00, -0.00, -1.00, 501.3, 322.0)">s</text><text xml:space="preserve" font-family="GillSans-Light" font-size="50.0" fill="#525252" transform="matrix(1.00, 0.00, -0.00, -1.00, 519.0, 322.0)">t</text><text xml:space="preserve" font-family="GillSans-Light" font-size="50.0" fill="#525252" transform="matrix(1.00, 0.00, -0.00, -1.00, 534.1, 322.0)">a</text><text xml:space="preserve" font-family="GillSans-Light" font-size="50.0" fill="#525252" transform="matrix(1.00, 0.00, -0.00, -1.00, 555.4, 322.0)">l</text><text xml:space="preserve" font-family="GillSans-Light" font-size="50.0" fill="#525252" transform="matrix(1.00, 0.00, -0.00, -1.00, 564.8, 322.0)">l</text><text xml:space="preserve" font-family="GillSans-Light" font-size="50.0" fill="#525252" transform="matrix(1.00, 0.00, -0.00, -1.00, 574.2, 322.0)"> </text><text xml:space="preserve" font-family="GillSans-Light" font-size="50.0" fill="#525252" transform="matrix(1.00, 0.00, -0.00, -1.00, 588.1, 322.0)">-</text><text xml:space="preserve" font-family="GillSans-Light" font-size="50.0" fill="#525252" transform="matrix(1.00, 0.00, -0.00, -1.00, 603.7, 322.0)">g</text><text xml:space="preserve" font-family="GillSans-Light" font-size="50.0" fill="#525252" transform="matrix(1.00, 0.00, -0.00, -1.00, 625.0, 322.0)"> </text><text xml:space="preserve" font-family="GillSans-Light" font-size="50.0" fill="#525252" transform="matrix(1.00, 0.00, -0.00, -1.00, 638.9, 322.0)">n</text><text xml:space="preserve" font-family="GillSans-Light" font-size="50.0" fill="#525252" transform="matrix(1.00, 0.00, -0.00, -1.00, 663.5, 322.0)">w</text><text xml:space="preserve" font-family="GillSans-Light" font-size="60.0" fill="#525252" transform="matrix(1.00, 0.00, -0.00, -1.00, 386.0, 404.0)">У</text><text xml:space="preserve" font-family="GillSans-Light" font-size="60.0" fill="#525252" transform="matrix(1.00, 0.00, -0.00, -1.00, 421.7, 404.0)">с</text><text xml:space="preserve" font-family="GillSans-Light" font-size="60.0" fill="#525252" transform="matrix(1.00, 0.00, -0.00, -1.00, 446.7, 404.0)">т</text><text xml:space="preserve" font-family="GillSans-Light" font-size="60.0" fill="#525252" transform="matrix(1.00, 0.00, -0.00, -1.00, 474.6, 404.0)">а</text><text xml:space="preserve" font-family="GillSans-Light" font-size="60.0" fill="#525252" transform="matrix(1.00, 0.00, -0.00, -1.00, 500.2, 404.0)">н</text><text xml:space="preserve" font-family="GillSans-Light" font-size="60.0" fill="#525252" transform="matrix(1.00, 0.00, -0.00, -1.00, 530.0, 404.0)">о</text><text xml:space="preserve" font-family="GillSans-Light" font-size="60.0" fill="#525252" transform="matrix(1.00, 0.00, -0.00, -1.00, 562.6, 404.0)">в</text><text xml:space="preserve" font-family="GillSans-Light" font-size="60.0" fill="#525252" transform="matrix(1.00, 0.00, -0.00, -1.00, 588.0, 404.0)">к</text><text xml:space="preserve" font-family="GillSans-Light" font-size="60.0" fill="#525252" transform="matrix(1.00, 0.00, -0.00, -1.00, 612.0, 404.0)">а</text></g></svg>