<?xml version="1.0" encoding="UTF-8" standalone="no"?><svg xmlns="http://www.w3.org/2000/svg" xmlns:xlink="http://www.w3.org/1999/xlink" clip-rule="evenodd" stroke-miterlimit="4.00" viewBox="0 0 1024 768"><desc>SVG generated by Keynote</desc><defs></defs><g transform="matrix(1.00, 0.00, -0.00, -1.00, 0.0, 768.0)"><g><clipPath id="clip-133"><path d="M 0.0 768.0 L 1024.0 768.0 L 1024.0 0.0 L 0.0 0.0 Z M 0.0 768.0 "></path></clipPath><g clip-path="url(#clip-133)"><image xlink:href="../../293415CD-D1BA-41BB-8703-BAEDA9FFCE27/assets/D3CB8578D364082F6943B53F933CCC32.jpeg" width="1024.00" height="768.00" transform="matrix(1.00, 0.00, -0.00, -1.00, 0.0, 768.0)"></image></g></g><text xml:space="preserve" font-family="GillSans-Light" font-size="72.0" fill="#525252" transform="matrix(1.00, 0.00, -0.00, -1.00, 272.0, 628.0)">О</text><text xml:space="preserve" font-family="GillSans-Light" font-size="72.0" fill="#525252" transform="matrix(1.00, 0.00, -0.00, -1.00, 331.3, 628.0)">Б</text><text xml:space="preserve" font-family="GillSans-Light" font-size="72.0" fill="#525252" transform="matrix(1.00, 0.00, -0.00, -1.00, 371.2, 628.0)">Н</text><text xml:space="preserve" font-family="GillSans-Light" font-size="72.0" fill="#525252" transform="matrix(1.00, 0.00, -0.00, -1.00, 423.0, 628.0)">О</text><text xml:space="preserve" font-family="GillSans-Light" font-size="72.0" fill="#525252" transform="matrix(1.00, 0.00, -0.00, -1.00, 482.3, 628.0)">В</text><text xml:space="preserve" font-family="GillSans-Light" font-size="72.0" fill="#525252" transform="matrix(1.00, 0.00, -0.00, -1.00, 521.5, 628.0)">Л</text><text xml:space="preserve" font-family="GillSans-Light" font-size="72.0" fill="#525252" transform="matrix(1.00, 0.00, -0.00, -1.00, 569.5, 628.0)">Е</text><text xml:space="preserve" font-family="GillSans-Light" font-size="72.0" fill="#525252" transform="matrix(1.00, 0.00, -0.00, -1.00, 604.9, 628.0)">Н</text><text xml:space="preserve" font-family="GillSans-Light" font-size="72.0" fill="#525252" transform="matrix(1.00, 0.00, -0.00, -1.00, 656.7, 628.0)">И</text><text xml:space="preserve" font-family="GillSans-Light" font-size="72.0" fill="#525252" transform="matrix(1.00, 0.00, -0.00, -1.00, 708.5, 628.0)">Я</text><text xml:space="preserve" font-family="GillSans-SemiBold" font-weight="bold" font-size="50.0" fill="#525252" transform="matrix(1.00, 0.00, -0.00, -1.00, 260.0, 510.0)">n</text><text xml:space="preserve" font-family="GillSans-SemiBold" font-weight="bold" font-size="50.0" fill="#525252" transform="matrix(1.00, 0.00, -0.00, -1.00, 287.1, 510.0)">p</text><text xml:space="preserve" font-family="GillSans-SemiBold" font-weight="bold" font-size="50.0" fill="#525252" transform="matrix(1.00, 0.00, -0.00, -1.00, 314.4, 510.0)">m</text><text xml:space="preserve" font-family="GillSans-SemiBold" font-weight="bold" font-size="50.0" fill="#525252" transform="matrix(1.00, 0.00, -0.00, -1.00, 356.8, 510.0)"> </text><text xml:space="preserve" font-family="GillSans-SemiBold" font-weight="bold" font-size="50.0" fill="#525252" transform="matrix(1.00, 0.00, -0.00, -1.00, 370.6, 510.0)">i</text><text xml:space="preserve" font-family="GillSans-SemiBold" font-weight="bold" font-size="50.0" fill="#525252" transform="matrix(1.00, 0.00, -0.00, -1.00, 383.0, 510.0)">n</text><text xml:space="preserve" font-family="GillSans-SemiBold" font-weight="bold" font-size="50.0" fill="#525252" transform="matrix(1.00, 0.00, -0.00, -1.00, 410.1, 510.0)">s</text><text xml:space="preserve" font-family="GillSans-SemiBold" font-weight="bold" font-size="50.0" fill="#525252" transform="matrix(1.00, 0.00, -0.00, -1.00, 430.3, 510.0)">t</text><text xml:space="preserve" font-family="GillSans-SemiBold" font-weight="bold" font-size="50.0" fill="#525252" transform="matrix(1.00, 0.00, -0.00, -1.00, 448.7, 510.0)">a</text><text xml:space="preserve" font-family="GillSans-SemiBold" font-weight="bold" font-size="50.0" fill="#525252" transform="matrix(1.00, 0.00, -0.00, -1.00, 472.9, 510.0)">l</text><text xml:space="preserve" font-family="GillSans-SemiBold" font-weight="bold" font-size="50.0" fill="#525252" transform="matrix(1.00, 0.00, -0.00, -1.00, 485.3, 510.0)">l</text><text xml:space="preserve" font-family="GillSans-SemiBold" font-weight="bold" font-size="50.0" fill="#525252" transform="matrix(1.00, 0.00, -0.00, -1.00, 497.7, 510.0)"> </text><text xml:space="preserve" font-family="GillSans-SemiBold" font-weight="bold" font-size="50.0" fill="#525252" transform="matrix(1.00, 0.00, -0.00, -1.00, 511.6, 510.0)">n</text><text xml:space="preserve" font-family="GillSans-SemiBold" font-weight="bold" font-size="50.0" fill="#525252" transform="matrix(1.00, 0.00, -0.00, -1.00, 538.6, 510.0)">w</text><text xml:space="preserve" font-family="GillSans-SemiBold" font-weight="bold" font-size="50.0" fill="#525252" transform="matrix(1.00, 0.00, -0.00, -1.00, 576.4, 510.0)">-</text><text xml:space="preserve" font-family="GillSans-SemiBold" font-weight="bold" font-size="50.0" fill="#525252" transform="matrix(1.00, 0.00, -0.00, -1.00, 592.8, 510.0)">u</text><text xml:space="preserve" font-family="GillSans-SemiBold" font-weight="bold" font-size="50.0" fill="#525252" transform="matrix(1.00, 0.00, -0.00, -1.00, 619.8, 510.0)">p</text><text xml:space="preserve" font-family="GillSans-SemiBold" font-weight="bold" font-size="50.0" fill="#525252" transform="matrix(1.00, 0.00, -0.00, -1.00, 647.2, 510.0)">d</text><text xml:space="preserve" font-family="GillSans-SemiBold" font-weight="bold" font-size="50.0" fill="#525252" transform="matrix(1.00, 0.00, -0.00, -1.00, 674.6, 510.0)">a</text><text xml:space="preserve" font-family="GillSans-SemiBold" font-weight="bold" font-size="50.0" fill="#525252" transform="matrix(1.00, 0.00, -0.00, -1.00, 698.7, 510.0)">t</text><text xml:space="preserve" font-family="GillSans-SemiBold" font-weight="bold" font-size="50.0" fill="#525252" transform="matrix(1.00, 0.00, -0.00, -1.00, 717.2, 510.0)">e</text><text xml:space="preserve" font-family="GillSans-SemiBold" font-weight="bold" font-size="50.0" fill="#525252" transform="matrix(1.00, 0.00, -0.00, -1.00, 743.0, 510.0)">r</text></g></svg>