<?xml version="1.0" encoding="UTF-8" standalone="no"?><svg xmlns="http://www.w3.org/2000/svg" xmlns:xlink="http://www.w3.org/1999/xlink" clip-rule="evenodd" stroke-miterlimit="4.00" viewBox="0 0 1024 768"><desc>SVG generated by Keynote</desc><defs></defs><g transform="matrix(1.00, 0.00, -0.00, -1.00, 0.0, 768.0)"><g><clipPath id="clip-63"><path d="M 0.0 768.0 L 1024.0 768.0 L 1024.0 0.0 L 0.0 0.0 Z M 0.0 768.0 "></path></clipPath><g clip-path="url(#clip-63)"><image xlink:href="../../293415CD-D1BA-41BB-8703-BAEDA9FFCE27/assets/D3CB8578D364082F6943B53F933CCC32.jpeg" width="1024.00" height="768.00" transform="matrix(1.00, 0.00, -0.00, -1.00, 0.0, 768.0)"></image></g></g><text xml:space="preserve" font-family="GillSans-Light" font-size="72.0" fill="#525252" transform="matrix(1.00, 0.00, -0.00, -1.00, 95.0, 628.0)">2</text><text xml:space="preserve" font-family="GillSans-Light" font-size="72.0" fill="#525252" transform="matrix(1.00, 0.00, -0.00, -1.00, 131.0, 628.0)">.</text><text xml:space="preserve" font-family="GillSans-Light" font-size="72.0" fill="#525252" transform="matrix(1.00, 0.00, -0.00, -1.00, 137.9, 628.0)"> </text><text xml:space="preserve" font-family="GillSans-Light" font-size="72.0" fill="#525252" transform="matrix(1.00, 0.00, -0.00, -1.00, 157.9, 628.0)">У</text><text xml:space="preserve" font-family="GillSans-Light" font-size="72.0" fill="#525252" transform="matrix(1.00, 0.00, -0.00, -1.00, 200.7, 628.0)">Д</text><text xml:space="preserve" font-family="GillSans-Light" font-size="72.0" fill="#525252" transform="matrix(1.00, 0.00, -0.00, -1.00, 249.7, 628.0)">А</text><text xml:space="preserve" font-family="GillSans-Light" font-size="72.0" fill="#525252" transform="matrix(1.00, 0.00, -0.00, -1.00, 297.7, 628.0)">Л</text><text xml:space="preserve" font-family="GillSans-Light" font-size="72.0" fill="#525252" transform="matrix(1.00, 0.00, -0.00, -1.00, 345.7, 628.0)">Е</text><text xml:space="preserve" font-family="GillSans-Light" font-size="72.0" fill="#525252" transform="matrix(1.00, 0.00, -0.00, -1.00, 381.0, 628.0)">Н</text><text xml:space="preserve" font-family="GillSans-Light" font-size="72.0" fill="#525252" transform="matrix(1.00, 0.00, -0.00, -1.00, 432.8, 628.0)">Н</text><text xml:space="preserve" font-family="GillSans-Light" font-size="72.0" fill="#525252" transform="matrix(1.00, 0.00, -0.00, -1.00, 484.6, 628.0)">А</text><text xml:space="preserve" font-family="GillSans-Light" font-size="72.0" fill="#525252" transform="matrix(1.00, 0.00, -0.00, -1.00, 532.6, 628.0)">Я</text><text xml:space="preserve" font-family="GillSans-Light" font-size="72.0" fill="#525252" transform="matrix(1.00, 0.00, -0.00, -1.00, 575.5, 628.0)"> </text><text xml:space="preserve" font-family="GillSans-Light" font-size="72.0" fill="#525252" transform="matrix(1.00, 0.00, -0.00, -1.00, 595.5, 628.0)">О</text><text xml:space="preserve" font-family="GillSans-Light" font-size="72.0" fill="#525252" transform="matrix(1.00, 0.00, -0.00, -1.00, 654.8, 628.0)">Т</text><text xml:space="preserve" font-family="GillSans-Light" font-size="72.0" fill="#525252" transform="matrix(1.00, 0.00, -0.00, -1.00, 696.1, 628.0)">Л</text><text xml:space="preserve" font-family="GillSans-Light" font-size="72.0" fill="#525252" transform="matrix(1.00, 0.00, -0.00, -1.00, 744.1, 628.0)">А</text><text xml:space="preserve" font-family="GillSans-Light" font-size="72.0" fill="#525252" transform="matrix(1.00, 0.00, -0.00, -1.00, 792.1, 628.0)">Д</text><text xml:space="preserve" font-family="GillSans-Light" font-size="72.0" fill="#525252" transform="matrix(1.00, 0.00, -0.00, -1.00, 841.0, 628.0)">К</text><text xml:space="preserve" font-family="GillSans-Light" font-size="72.0" fill="#525252" transform="matrix(1.00, 0.00, -0.00, -1.00, 880.4, 628.0)">А</text><text xml:space="preserve" font-family="GillSans-Light" font-size="36.0" fill="#525252" transform="matrix(1.00, 0.00, -0.00, -1.00, 93.0, 556.0)">Д</text><text xml:space="preserve" font-family="GillSans-Light" font-size="36.0" fill="#525252" transform="matrix(1.00, 0.00, -0.00, -1.00, 117.5, 556.0)">л</text><text xml:space="preserve" font-family="GillSans-Light" font-size="36.0" fill="#525252" transform="matrix(1.00, 0.00, -0.00, -1.00, 132.8, 556.0)">я</text><text xml:space="preserve" font-family="GillSans-Light" font-size="36.0" fill="#525252" transform="matrix(1.00, 0.00, -0.00, -1.00, 149.2, 556.0)"> </text><text xml:space="preserve" font-family="GillSans-Light" font-size="36.0" fill="#525252" transform="matrix(1.00, 0.00, -0.00, -1.00, 159.2, 556.0)">з</text><text xml:space="preserve" font-family="GillSans-Light" font-size="36.0" fill="#525252" transform="matrix(1.00, 0.00, -0.00, -1.00, 173.4, 556.0)">а</text><text xml:space="preserve" font-family="GillSans-Light" font-size="36.0" fill="#525252" transform="matrix(1.00, 0.00, -0.00, -1.00, 188.8, 556.0)">п</text><text xml:space="preserve" font-family="GillSans-Light" font-size="36.0" fill="#525252" transform="matrix(1.00, 0.00, -0.00, -1.00, 206.7, 556.0)">у</text><text xml:space="preserve" font-family="GillSans-Light" font-size="36.0" fill="#525252" transform="matrix(1.00, 0.00, -0.00, -1.00, 221.7, 556.0)">с</text><text xml:space="preserve" font-family="GillSans-Light" font-size="36.0" fill="#525252" transform="matrix(1.00, 0.00, -0.00, -1.00, 236.7, 556.0)">к</text><text xml:space="preserve" font-family="GillSans-Light" font-size="36.0" fill="#525252" transform="matrix(1.00, 0.00, -0.00, -1.00, 251.2, 556.0)">а</text><text xml:space="preserve" font-family="GillSans-Light" font-size="36.0" fill="#525252" transform="matrix(1.00, 0.00, -0.00, -1.00, 266.5, 556.0)"> </text><text xml:space="preserve" font-family="GillSans-Light" font-size="36.0" fill="#525252" transform="matrix(1.00, 0.00, -0.00, -1.00, 276.5, 556.0)">у</text><text xml:space="preserve" font-family="GillSans-Light" font-size="36.0" fill="#525252" transform="matrix(1.00, 0.00, -0.00, -1.00, 291.5, 556.0)">д</text><text xml:space="preserve" font-family="GillSans-Light" font-size="36.0" fill="#525252" transform="matrix(1.00, 0.00, -0.00, -1.00, 308.9, 556.0)">а</text><text xml:space="preserve" font-family="GillSans-Light" font-size="36.0" fill="#525252" transform="matrix(1.00, 0.00, -0.00, -1.00, 324.3, 556.0)">л</text><text xml:space="preserve" font-family="GillSans-Light" font-size="36.0" fill="#525252" transform="matrix(1.00, 0.00, -0.00, -1.00, 339.6, 556.0)">е</text><text xml:space="preserve" font-family="GillSans-Light" font-size="36.0" fill="#525252" transform="matrix(1.00, 0.00, -0.00, -1.00, 356.9, 556.0)">н</text><text xml:space="preserve" font-family="GillSans-Light" font-size="36.0" fill="#525252" transform="matrix(1.00, 0.00, -0.00, -1.00, 374.8, 556.0)">н</text><text xml:space="preserve" font-family="GillSans-Light" font-size="36.0" fill="#525252" transform="matrix(1.00, 0.00, -0.00, -1.00, 392.7, 556.0)">о</text><text xml:space="preserve" font-family="GillSans-Light" font-size="36.0" fill="#525252" transform="matrix(1.00, 0.00, -0.00, -1.00, 412.3, 556.0)">й</text><text xml:space="preserve" font-family="GillSans-Light" font-size="36.0" fill="#525252" transform="matrix(1.00, 0.00, -0.00, -1.00, 430.2, 556.0)"> </text><text xml:space="preserve" font-family="GillSans-Light" font-size="36.0" fill="#525252" transform="matrix(1.00, 0.00, -0.00, -1.00, 440.2, 556.0)">о</text><text xml:space="preserve" font-family="GillSans-Light" font-size="36.0" fill="#525252" transform="matrix(1.00, 0.00, -0.00, -1.00, 459.7, 556.0)">т</text><text xml:space="preserve" font-family="GillSans-Light" font-size="36.0" fill="#525252" transform="matrix(1.00, 0.00, -0.00, -1.00, 476.4, 556.0)">л</text><text xml:space="preserve" font-family="GillSans-Light" font-size="36.0" fill="#525252" transform="matrix(1.00, 0.00, -0.00, -1.00, 491.8, 556.0)">а</text><text xml:space="preserve" font-family="GillSans-Light" font-size="36.0" fill="#525252" transform="matrix(1.00, 0.00, -0.00, -1.00, 507.1, 556.0)">д</text><text xml:space="preserve" font-family="GillSans-Light" font-size="36.0" fill="#525252" transform="matrix(1.00, 0.00, -0.00, -1.00, 524.6, 556.0)">к</text><text xml:space="preserve" font-family="GillSans-Light" font-size="36.0" fill="#525252" transform="matrix(1.00, 0.00, -0.00, -1.00, 539.0, 556.0)">и</text><text xml:space="preserve" font-family="GillSans-Light" font-size="36.0" fill="#525252" transform="matrix(1.00, 0.00, -0.00, -1.00, 556.9, 556.0)"> </text><text xml:space="preserve" font-family="GillSans-Light" font-size="36.0" fill="#525252" transform="matrix(1.00, 0.00, -0.00, -1.00, 566.9, 556.0)">п</text><text xml:space="preserve" font-family="GillSans-Light" font-size="36.0" fill="#525252" transform="matrix(1.00, 0.00, -0.00, -1.00, 584.8, 556.0)">р</text><text xml:space="preserve" font-family="GillSans-Light" font-size="36.0" fill="#525252" transform="matrix(1.00, 0.00, -0.00, -1.00, 603.2, 556.0)">и</text><text xml:space="preserve" font-family="GillSans-Light" font-size="36.0" fill="#525252" transform="matrix(1.00, 0.00, -0.00, -1.00, 621.1, 556.0)"> </text><text xml:space="preserve" font-family="GillSans-Light" font-size="36.0" fill="#525252" transform="matrix(1.00, 0.00, -0.00, -1.00, 631.1, 556.0)">з</text><text xml:space="preserve" font-family="GillSans-Light" font-size="36.0" fill="#525252" transform="matrix(1.00, 0.00, -0.00, -1.00, 645.4, 556.0)">а</text><text xml:space="preserve" font-family="GillSans-Light" font-size="36.0" fill="#525252" transform="matrix(1.00, 0.00, -0.00, -1.00, 660.7, 556.0)">п</text><text xml:space="preserve" font-family="GillSans-Light" font-size="36.0" fill="#525252" transform="matrix(1.00, 0.00, -0.00, -1.00, 678.6, 556.0)">у</text><text xml:space="preserve" font-family="GillSans-Light" font-size="36.0" fill="#525252" transform="matrix(1.00, 0.00, -0.00, -1.00, 693.7, 556.0)">с</text><text xml:space="preserve" font-family="GillSans-Light" font-size="36.0" fill="#525252" transform="matrix(1.00, 0.00, -0.00, -1.00, 708.7, 556.0)">к</text><text xml:space="preserve" font-family="GillSans-Light" font-size="36.0" fill="#525252" transform="matrix(1.00, 0.00, -0.00, -1.00, 723.1, 556.0)">е</text><text xml:space="preserve" font-family="GillSans-Light" font-size="36.0" fill="#525252" transform="matrix(1.00, 0.00, -0.00, -1.00, 740.3, 556.0)"> </text><text xml:space="preserve" font-family="GillSans-Light" font-size="36.0" fill="#525252" transform="matrix(1.00, 0.00, -0.00, -1.00, 750.3, 556.0)">п</text><text xml:space="preserve" font-family="GillSans-Light" font-size="36.0" fill="#525252" transform="matrix(1.00, 0.00, -0.00, -1.00, 768.3, 556.0)">р</text><text xml:space="preserve" font-family="GillSans-Light" font-size="36.0" fill="#525252" transform="matrix(1.00, 0.00, -0.00, -1.00, 786.6, 556.0)">и</text><text xml:space="preserve" font-family="GillSans-Light" font-size="36.0" fill="#525252" transform="matrix(1.00, 0.00, -0.00, -1.00, 804.5, 556.0)">л</text><text xml:space="preserve" font-family="GillSans-Light" font-size="36.0" fill="#525252" transform="matrix(1.00, 0.00, -0.00, -1.00, 819.9, 556.0)">о</text><text xml:space="preserve" font-family="GillSans-Light" font-size="36.0" fill="#525252" transform="matrix(1.00, 0.00, -0.00, -1.00, 839.4, 556.0)">ж</text><text xml:space="preserve" font-family="GillSans-Light" font-size="36.0" fill="#525252" transform="matrix(1.00, 0.00, -0.00, -1.00, 861.7, 556.0)">е</text><text xml:space="preserve" font-family="GillSans-Light" font-size="36.0" fill="#525252" transform="matrix(1.00, 0.00, -0.00, -1.00, 879.0, 556.0)">н</text><text xml:space="preserve" font-family="GillSans-Light" font-size="36.0" fill="#525252" transform="matrix(1.00, 0.00, -0.00, -1.00, 896.9, 556.0)">и</text><text xml:space="preserve" font-family="GillSans-Light" font-size="36.0" fill="#525252" transform="matrix(1.00, 0.00, -0.00, -1.00, 914.8, 556.0)">я</text><text xml:space="preserve" font-family="GillSans-Light" font-size="36.0" fill="#525252" transform="matrix(1.00, 0.00, -0.00, -1.00, 931.2, 556.0)"> </text><text xml:space="preserve" font-family="GillSans-Light" font-size="36.0" fill="#525252" transform="matrix(1.00, 0.00, -0.00, -1.00, 128.0, 515.0)">и</text><text xml:space="preserve" font-family="GillSans-Light" font-size="36.0" fill="#525252" transform="matrix(1.00, 0.00, -0.00, -1.00, 145.9, 515.0)">с</text><text xml:space="preserve" font-family="GillSans-Light" font-size="36.0" fill="#525252" transform="matrix(1.00, 0.00, -0.00, -1.00, 160.9, 515.0)">п</text><text xml:space="preserve" font-family="GillSans-Light" font-size="36.0" fill="#525252" transform="matrix(1.00, 0.00, -0.00, -1.00, 178.9, 515.0)">о</text><text xml:space="preserve" font-family="GillSans-Light" font-size="36.0" fill="#525252" transform="matrix(1.00, 0.00, -0.00, -1.00, 198.4, 515.0)">л</text><text xml:space="preserve" font-family="GillSans-Light" font-size="36.0" fill="#525252" transform="matrix(1.00, 0.00, -0.00, -1.00, 213.7, 515.0)">ь</text><text xml:space="preserve" font-family="GillSans-Light" font-size="36.0" fill="#525252" transform="matrix(1.00, 0.00, -0.00, -1.00, 228.8, 515.0)">з</text><text xml:space="preserve" font-family="GillSans-Light" font-size="36.0" fill="#525252" transform="matrix(1.00, 0.00, -0.00, -1.00, 243.1, 515.0)">у</text><text xml:space="preserve" font-family="GillSans-Light" font-size="36.0" fill="#525252" transform="matrix(1.00, 0.00, -0.00, -1.00, 258.1, 515.0)">е</text><text xml:space="preserve" font-family="GillSans-Light" font-size="36.0" fill="#525252" transform="matrix(1.00, 0.00, -0.00, -1.00, 275.3, 515.0)">м</text><text xml:space="preserve" font-family="GillSans-Light" font-size="36.0" fill="#525252" transform="matrix(1.00, 0.00, -0.00, -1.00, 297.1, 515.0)"> </text><text xml:space="preserve" font-family="GillSans-Light" font-size="36.0" fill="#525252" transform="matrix(1.00, 0.00, -0.00, -1.00, 307.1, 515.0)">ф</text><text xml:space="preserve" font-family="GillSans-Light" font-size="36.0" fill="#525252" transform="matrix(1.00, 0.00, -0.00, -1.00, 330.4, 515.0)">л</text><text xml:space="preserve" font-family="GillSans-Light" font-size="36.0" fill="#525252" transform="matrix(1.00, 0.00, -0.00, -1.00, 345.7, 515.0)">а</text><text xml:space="preserve" font-family="GillSans-Light" font-size="36.0" fill="#525252" transform="matrix(1.00, 0.00, -0.00, -1.00, 361.1, 515.0)">г</text><text xml:space="preserve" font-family="GillSans-Light" font-size="36.0" fill="#525252" transform="matrix(1.00, 0.00, -0.00, -1.00, 373.9, 515.0)"> </text><text xml:space="preserve" font-family="GillSans-Light" font-size="36.0" fill="#525252" transform="matrix(1.00, 0.00, -0.00, -1.00, 383.9, 515.0)">—</text><text xml:space="preserve" font-family="GillSans-Light" font-size="36.0" fill="#525252" transform="matrix(1.00, 0.00, -0.00, -1.00, 419.9, 515.0)">r</text><text xml:space="preserve" font-family="GillSans-Light" font-size="36.0" fill="#525252" transform="matrix(1.00, 0.00, -0.00, -1.00, 431.9, 515.0)">e</text><text xml:space="preserve" font-family="GillSans-Light" font-size="36.0" fill="#525252" transform="matrix(1.00, 0.00, -0.00, -1.00, 449.2, 515.0)">m</text><text xml:space="preserve" font-family="GillSans-Light" font-size="36.0" fill="#525252" transform="matrix(1.00, 0.00, -0.00, -1.00, 476.9, 515.0)">o</text><text xml:space="preserve" font-family="GillSans-Light" font-size="36.0" fill="#525252" transform="matrix(1.00, 0.00, -0.00, -1.00, 496.4, 515.0)">t</text><text xml:space="preserve" font-family="GillSans-Light" font-size="36.0" fill="#525252" transform="matrix(1.00, 0.00, -0.00, -1.00, 507.3, 515.0)">e</text><text xml:space="preserve" font-family="GillSans-Light" font-size="36.0" fill="#525252" transform="matrix(1.00, 0.00, -0.00, -1.00, 524.5, 515.0)">-</text><text xml:space="preserve" font-family="GillSans-Light" font-size="36.0" fill="#525252" transform="matrix(1.00, 0.00, -0.00, -1.00, 535.8, 515.0)">d</text><text xml:space="preserve" font-family="GillSans-Light" font-size="36.0" fill="#525252" transform="matrix(1.00, 0.00, -0.00, -1.00, 554.2, 515.0)">e</text><text xml:space="preserve" font-family="GillSans-Light" font-size="36.0" fill="#525252" transform="matrix(1.00, 0.00, -0.00, -1.00, 571.4, 515.0)">b</text><text xml:space="preserve" font-family="GillSans-Light" font-size="36.0" fill="#525252" transform="matrix(1.00, 0.00, -0.00, -1.00, 589.4, 515.0)">u</text><text xml:space="preserve" font-family="GillSans-Light" font-size="36.0" fill="#525252" transform="matrix(1.00, 0.00, -0.00, -1.00, 607.0, 515.0)">g</text><text xml:space="preserve" font-family="GillSans-Light" font-size="36.0" fill="#525252" transform="matrix(1.00, 0.00, -0.00, -1.00, 622.4, 515.0)">g</text><text xml:space="preserve" font-family="GillSans-Light" font-size="36.0" fill="#525252" transform="matrix(1.00, 0.00, -0.00, -1.00, 637.8, 515.0)">i</text><text xml:space="preserve" font-family="GillSans-Light" font-size="36.0" fill="#525252" transform="matrix(1.00, 0.00, -0.00, -1.00, 644.5, 515.0)">n</text><text xml:space="preserve" font-family="GillSans-Light" font-size="36.0" fill="#525252" transform="matrix(1.00, 0.00, -0.00, -1.00, 662.2, 515.0)">g</text><text xml:space="preserve" font-family="GillSans-Light" font-size="36.0" fill="#525252" transform="matrix(1.00, 0.00, -0.00, -1.00, 677.5, 515.0)">-</text><text xml:space="preserve" font-family="GillSans-Light" font-size="36.0" fill="#525252" transform="matrix(1.00, 0.00, -0.00, -1.00, 688.8, 515.0)">p</text><text xml:space="preserve" font-family="GillSans-Light" font-size="36.0" fill="#525252" transform="matrix(1.00, 0.00, -0.00, -1.00, 707.2, 515.0)">o</text><text xml:space="preserve" font-family="GillSans-Light" font-size="36.0" fill="#525252" transform="matrix(1.00, 0.00, -0.00, -1.00, 726.7, 515.0)">r</text><text xml:space="preserve" font-family="GillSans-Light" font-size="36.0" fill="#525252" transform="matrix(1.00, 0.00, -0.00, -1.00, 741.5, 515.0)">t</text><text xml:space="preserve" font-family="GillSans-Light" font-size="36.0" fill="#525252" transform="matrix(1.00, 0.00, -0.00, -1.00, 752.4, 515.0)">=</text><text xml:space="preserve" font-family="GillSans-Light" font-size="36.0" fill="#525252" transform="matrix(1.00, 0.00, -0.00, -1.00, 776.2, 515.0)">&lt;</text><text xml:space="preserve" font-family="GillSans-Light" font-size="36.0" fill="#525252" transform="matrix(1.00, 0.00, -0.00, -1.00, 799.9, 515.0)">п</text><text xml:space="preserve" font-family="GillSans-Light" font-size="36.0" fill="#525252" transform="matrix(1.00, 0.00, -0.00, -1.00, 817.9, 515.0)">о</text><text xml:space="preserve" font-family="GillSans-Light" font-size="36.0" fill="#525252" transform="matrix(1.00, 0.00, -0.00, -1.00, 837.4, 515.0)">р</text><text xml:space="preserve" font-family="GillSans-Light" font-size="36.0" fill="#525252" transform="matrix(1.00, 0.00, -0.00, -1.00, 855.7, 515.0)">т</text><text xml:space="preserve" font-family="GillSans-Light" font-size="36.0" fill="#525252" transform="matrix(1.00, 0.00, -0.00, -1.00, 872.4, 515.0)">&gt;</text><text xml:space="preserve" font-family="GillSans-Light" font-size="36.0" fill="#525252" transform="matrix(1.00, 0.00, -0.00, -1.00, 106.0, 387.0)">В</text><text xml:space="preserve" font-family="GillSans-Light" font-size="36.0" fill="#525252" transform="matrix(1.00, 0.00, -0.00, -1.00, 125.6, 387.0)"> </text><text xml:space="preserve" font-family="GillSans-Light" font-size="36.0" fill="#525252" transform="matrix(1.00, 0.00, -0.00, -1.00, 135.6, 387.0)">к</text><text xml:space="preserve" font-family="GillSans-Light" font-size="36.0" fill="#525252" transform="matrix(1.00, 0.00, -0.00, -1.00, 150.0, 387.0)">о</text><text xml:space="preserve" font-family="GillSans-Light" font-size="36.0" fill="#525252" transform="matrix(1.00, 0.00, -0.00, -1.00, 169.5, 387.0)">н</text><text xml:space="preserve" font-family="GillSans-Light" font-size="36.0" fill="#525252" transform="matrix(1.00, 0.00, -0.00, -1.00, 187.5, 387.0)">с</text><text xml:space="preserve" font-family="GillSans-Light" font-size="36.0" fill="#525252" transform="matrix(1.00, 0.00, -0.00, -1.00, 202.5, 387.0)">о</text><text xml:space="preserve" font-family="GillSans-Light" font-size="36.0" fill="#525252" transform="matrix(1.00, 0.00, -0.00, -1.00, 222.0, 387.0)">л</text><text xml:space="preserve" font-family="GillSans-Light" font-size="36.0" fill="#525252" transform="matrix(1.00, 0.00, -0.00, -1.00, 237.4, 387.0)">и</text><text xml:space="preserve" font-family="GillSans-Light" font-size="36.0" fill="#525252" transform="matrix(1.00, 0.00, -0.00, -1.00, 255.3, 387.0)"> </text><text xml:space="preserve" font-family="GillSans-Light" font-size="36.0" fill="#525252" transform="matrix(1.00, 0.00, -0.00, -1.00, 265.3, 387.0)">з</text><text xml:space="preserve" font-family="GillSans-Light" font-size="36.0" fill="#525252" transform="matrix(1.00, 0.00, -0.00, -1.00, 279.5, 387.0)">а</text><text xml:space="preserve" font-family="GillSans-Light" font-size="36.0" fill="#525252" transform="matrix(1.00, 0.00, -0.00, -1.00, 294.9, 387.0)">п</text><text xml:space="preserve" font-family="GillSans-Light" font-size="36.0" fill="#525252" transform="matrix(1.00, 0.00, -0.00, -1.00, 312.8, 387.0)">у</text><text xml:space="preserve" font-family="GillSans-Light" font-size="36.0" fill="#525252" transform="matrix(1.00, 0.00, -0.00, -1.00, 327.8, 387.0)">с</text><text xml:space="preserve" font-family="GillSans-Light" font-size="36.0" fill="#525252" transform="matrix(1.00, 0.00, -0.00, -1.00, 342.8, 387.0)">к</text><text xml:space="preserve" font-family="GillSans-Light" font-size="36.0" fill="#525252" transform="matrix(1.00, 0.00, -0.00, -1.00, 357.3, 387.0)">а</text><text xml:space="preserve" font-family="GillSans-Light" font-size="36.0" fill="#525252" transform="matrix(1.00, 0.00, -0.00, -1.00, 372.6, 387.0)"> </text><text xml:space="preserve" font-family="GillSans-Light" font-size="36.0" fill="#525252" transform="matrix(1.00, 0.00, -0.00, -1.00, 382.6, 387.0)">м</text><text xml:space="preserve" font-family="GillSans-Light" font-size="36.0" fill="#525252" transform="matrix(1.00, 0.00, -0.00, -1.00, 404.4, 387.0)">ы</text><text xml:space="preserve" font-family="GillSans-Light" font-size="36.0" fill="#525252" transform="matrix(1.00, 0.00, -0.00, -1.00, 425.4, 387.0)"> </text><text xml:space="preserve" font-family="GillSans-Light" font-size="36.0" fill="#525252" transform="matrix(1.00, 0.00, -0.00, -1.00, 435.4, 387.0)">м</text><text xml:space="preserve" font-family="GillSans-Light" font-size="36.0" fill="#525252" transform="matrix(1.00, 0.00, -0.00, -1.00, 457.1, 387.0)">о</text><text xml:space="preserve" font-family="GillSans-Light" font-size="36.0" fill="#525252" transform="matrix(1.00, 0.00, -0.00, -1.00, 476.6, 387.0)">ж</text><text xml:space="preserve" font-family="GillSans-Light" font-size="36.0" fill="#525252" transform="matrix(1.00, 0.00, -0.00, -1.00, 498.9, 387.0)">е</text><text xml:space="preserve" font-family="GillSans-Light" font-size="36.0" fill="#525252" transform="matrix(1.00, 0.00, -0.00, -1.00, 516.2, 387.0)">м</text><text xml:space="preserve" font-family="GillSans-Light" font-size="36.0" fill="#525252" transform="matrix(1.00, 0.00, -0.00, -1.00, 537.9, 387.0)"> </text><text xml:space="preserve" font-family="GillSans-Light" font-size="36.0" fill="#525252" transform="matrix(1.00, 0.00, -0.00, -1.00, 547.9, 387.0)">у</text><text xml:space="preserve" font-family="GillSans-Light" font-size="36.0" fill="#525252" transform="matrix(1.00, 0.00, -0.00, -1.00, 562.9, 387.0)">в</text><text xml:space="preserve" font-family="GillSans-Light" font-size="36.0" fill="#525252" transform="matrix(1.00, 0.00, -0.00, -1.00, 578.2, 387.0)">и</text><text xml:space="preserve" font-family="GillSans-Light" font-size="36.0" fill="#525252" transform="matrix(1.00, 0.00, -0.00, -1.00, 596.1, 387.0)">д</text><text xml:space="preserve" font-family="GillSans-Light" font-size="36.0" fill="#525252" transform="matrix(1.00, 0.00, -0.00, -1.00, 613.5, 387.0)">е</text><text xml:space="preserve" font-family="GillSans-Light" font-size="36.0" fill="#525252" transform="matrix(1.00, 0.00, -0.00, -1.00, 630.8, 387.0)">т</text><text xml:space="preserve" font-family="GillSans-Light" font-size="36.0" fill="#525252" transform="matrix(1.00, 0.00, -0.00, -1.00, 647.5, 387.0)">ь</text><text xml:space="preserve" font-family="GillSans-Light" font-size="36.0" fill="#525252" transform="matrix(1.00, 0.00, -0.00, -1.00, 662.6, 387.0)"> </text><text xml:space="preserve" font-family="GillSans-Light" font-size="36.0" fill="#525252" transform="matrix(1.00, 0.00, -0.00, -1.00, 672.6, 387.0)">л</text><text xml:space="preserve" font-family="GillSans-Light" font-size="36.0" fill="#525252" transform="matrix(1.00, 0.00, -0.00, -1.00, 687.9, 387.0)">о</text><text xml:space="preserve" font-family="GillSans-Light" font-size="36.0" fill="#525252" transform="matrix(1.00, 0.00, -0.00, -1.00, 707.4, 387.0)">г</text><text xml:space="preserve" font-family="GillSans-Light" font-size="36.0" fill="#525252" transform="matrix(1.00, 0.00, -0.00, -1.00, 720.3, 387.0)"> </text><text xml:space="preserve" font-family="GillSans-Light" font-size="36.0" fill="#525252" transform="matrix(1.00, 0.00, -0.00, -1.00, 730.3, 387.0)">а</text><text xml:space="preserve" font-family="GillSans-Light" font-size="36.0" fill="#525252" transform="matrix(1.00, 0.00, -0.00, -1.00, 745.6, 387.0)">н</text><text xml:space="preserve" font-family="GillSans-Light" font-size="36.0" fill="#525252" transform="matrix(1.00, 0.00, -0.00, -1.00, 763.6, 387.0)">а</text><text xml:space="preserve" font-family="GillSans-Light" font-size="36.0" fill="#525252" transform="matrix(1.00, 0.00, -0.00, -1.00, 778.9, 387.0)">л</text><text xml:space="preserve" font-family="GillSans-Light" font-size="36.0" fill="#525252" transform="matrix(1.00, 0.00, -0.00, -1.00, 794.3, 387.0)">о</text><text xml:space="preserve" font-family="GillSans-Light" font-size="36.0" fill="#525252" transform="matrix(1.00, 0.00, -0.00, -1.00, 813.8, 387.0)">г</text><text xml:space="preserve" font-family="GillSans-Light" font-size="36.0" fill="#525252" transform="matrix(1.00, 0.00, -0.00, -1.00, 826.6, 387.0)">и</text><text xml:space="preserve" font-family="GillSans-Light" font-size="36.0" fill="#525252" transform="matrix(1.00, 0.00, -0.00, -1.00, 844.6, 387.0)">ч</text><text xml:space="preserve" font-family="GillSans-Light" font-size="36.0" fill="#525252" transform="matrix(1.00, 0.00, -0.00, -1.00, 860.6, 387.0)">н</text><text xml:space="preserve" font-family="GillSans-Light" font-size="36.0" fill="#525252" transform="matrix(1.00, 0.00, -0.00, -1.00, 878.5, 387.0)">ы</text><text xml:space="preserve" font-family="GillSans-Light" font-size="36.0" fill="#525252" transform="matrix(1.00, 0.00, -0.00, -1.00, 899.5, 387.0)">й</text><text xml:space="preserve" font-family="GillSans-Light" font-size="36.0" fill="#525252" transform="matrix(1.00, 0.00, -0.00, -1.00, 917.4, 387.0)"> </text><text xml:space="preserve" font-family="GillSans-Light" font-size="36.0" fill="#525252" transform="matrix(1.00, 0.00, -0.00, -1.00, 314.0, 346.0)">к</text><text xml:space="preserve" font-family="GillSans-Light" font-size="36.0" fill="#525252" transform="matrix(1.00, 0.00, -0.00, -1.00, 328.4, 346.0)">о</text><text xml:space="preserve" font-family="GillSans-Light" font-size="36.0" fill="#525252" transform="matrix(1.00, 0.00, -0.00, -1.00, 347.9, 346.0)">н</text><text xml:space="preserve" font-family="GillSans-Light" font-size="36.0" fill="#525252" transform="matrix(1.00, 0.00, -0.00, -1.00, 365.9, 346.0)">с</text><text xml:space="preserve" font-family="GillSans-Light" font-size="36.0" fill="#525252" transform="matrix(1.00, 0.00, -0.00, -1.00, 380.9, 346.0)">о</text><text xml:space="preserve" font-family="GillSans-Light" font-size="36.0" fill="#525252" transform="matrix(1.00, 0.00, -0.00, -1.00, 400.4, 346.0)">л</text><text xml:space="preserve" font-family="GillSans-Light" font-size="36.0" fill="#525252" transform="matrix(1.00, 0.00, -0.00, -1.00, 415.7, 346.0)">и</text><text xml:space="preserve" font-family="GillSans-Light" font-size="36.0" fill="#525252" transform="matrix(1.00, 0.00, -0.00, -1.00, 433.7, 346.0)"> </text><text xml:space="preserve" font-family="GillSans-Light" font-size="36.0" fill="#525252" transform="matrix(1.00, 0.00, -0.00, -1.00, 443.7, 346.0)">C</text><text xml:space="preserve" font-family="GillSans-Light" font-size="36.0" fill="#525252" transform="matrix(1.00, 0.00, -0.00, -1.00, 468.0, 346.0)">h</text><text xml:space="preserve" font-family="GillSans-Light" font-size="36.0" fill="#525252" transform="matrix(1.00, 0.00, -0.00, -1.00, 485.7, 346.0)">r</text><text xml:space="preserve" font-family="GillSans-Light" font-size="36.0" fill="#525252" transform="matrix(1.00, 0.00, -0.00, -1.00, 497.7, 346.0)">o</text><text xml:space="preserve" font-family="GillSans-Light" font-size="36.0" fill="#525252" transform="matrix(1.00, 0.00, -0.00, -1.00, 517.2, 346.0)">m</text><text xml:space="preserve" font-family="GillSans-Light" font-size="36.0" fill="#525252" transform="matrix(1.00, 0.00, -0.00, -1.00, 545.0, 346.0)">e</text><text xml:space="preserve" font-family="GillSans-Light" font-size="36.0" fill="#525252" transform="matrix(1.00, 0.00, -0.00, -1.00, 562.2, 346.0)"> </text><text xml:space="preserve" font-family="GillSans-Light" font-size="36.0" fill="#525252" transform="matrix(1.00, 0.00, -0.00, -1.00, 572.2, 346.0)">D</text><text xml:space="preserve" font-family="GillSans-Light" font-size="36.0" fill="#525252" transform="matrix(1.00, 0.00, -0.00, -1.00, 598.9, 346.0)">e</text><text xml:space="preserve" font-family="GillSans-Light" font-size="36.0" fill="#525252" transform="matrix(1.00, 0.00, -0.00, -1.00, 616.1, 346.0)">v</text><text xml:space="preserve" font-family="GillSans-Light" font-size="36.0" fill="#525252" transform="matrix(1.00, 0.00, -0.00, -1.00, 631.5, 346.0)"> </text><text xml:space="preserve" font-family="GillSans-Light" font-size="36.0" fill="#525252" transform="matrix(1.00, 0.00, -0.00, -1.00, 636.4, 346.0)">T</text><text xml:space="preserve" font-family="GillSans-Light" font-size="36.0" fill="#525252" transform="matrix(1.00, 0.00, -0.00, -1.00, 652.0, 346.0)">o</text><text xml:space="preserve" font-family="GillSans-Light" font-size="36.0" fill="#525252" transform="matrix(1.00, 0.00, -0.00, -1.00, 671.5, 346.0)">o</text><text xml:space="preserve" font-family="GillSans-Light" font-size="36.0" fill="#525252" transform="matrix(1.00, 0.00, -0.00, -1.00, 691.0, 346.0)">l</text><text xml:space="preserve" font-family="GillSans-Light" font-size="36.0" fill="#525252" transform="matrix(1.00, 0.00, -0.00, -1.00, 697.8, 346.0)">s</text><image xlink:href="../../D6AA5E5E-D766-41A9-900C-0EB26AA6F1E3/assets/F63C75C09DF2F046D01BE553A1637506.png" width="858.00" height="59.00" transform="matrix(1.00, 0.00, -0.00, -1.02, 83.0, 493.0)"></image><text xml:space="preserve" font-family="GillSans-Light" font-size="32.0" fill="#525252" transform="matrix(1.00, 0.00, -0.00, -1.00, 227.0, 293.0)">Т</text><text xml:space="preserve" font-family="GillSans-Light" font-size="32.0" fill="#525252" transform="matrix(1.00, 0.00, -0.00, -1.00, 245.4, 293.0)">а</text><text xml:space="preserve" font-family="GillSans-Light" font-size="32.0" fill="#525252" transform="matrix(1.00, 0.00, -0.00, -1.00, 259.0, 293.0)">к</text><text xml:space="preserve" font-family="GillSans-Light" font-size="32.0" fill="#525252" transform="matrix(1.00, 0.00, -0.00, -1.00, 271.8, 293.0)">-</text><text xml:space="preserve" font-family="GillSans-Light" font-size="32.0" fill="#525252" transform="matrix(1.00, 0.00, -0.00, -1.00, 281.8, 293.0)">ж</text><text xml:space="preserve" font-family="GillSans-Light" font-size="32.0" fill="#525252" transform="matrix(1.00, 0.00, -0.00, -1.00, 301.7, 293.0)">е</text><text xml:space="preserve" font-family="GillSans-Light" font-size="32.0" fill="#525252" transform="matrix(1.00, 0.00, -0.00, -1.00, 317.0, 293.0)"> </text><text xml:space="preserve" font-family="GillSans-Light" font-size="32.0" fill="#525252" transform="matrix(1.00, 0.00, -0.00, -1.00, 325.9, 293.0)">о</text><text xml:space="preserve" font-family="GillSans-Light" font-size="32.0" fill="#525252" transform="matrix(1.00, 0.00, -0.00, -1.00, 343.2, 293.0)">т</text><text xml:space="preserve" font-family="GillSans-Light" font-size="32.0" fill="#525252" transform="matrix(1.00, 0.00, -0.00, -1.00, 358.1, 293.0)">л</text><text xml:space="preserve" font-family="GillSans-Light" font-size="32.0" fill="#525252" transform="matrix(1.00, 0.00, -0.00, -1.00, 371.8, 293.0)">а</text><text xml:space="preserve" font-family="GillSans-Light" font-size="32.0" fill="#525252" transform="matrix(1.00, 0.00, -0.00, -1.00, 385.4, 293.0)">д</text><text xml:space="preserve" font-family="GillSans-Light" font-size="32.0" fill="#525252" transform="matrix(1.00, 0.00, -0.00, -1.00, 400.9, 293.0)">ч</text><text xml:space="preserve" font-family="GillSans-Light" font-size="32.0" fill="#525252" transform="matrix(1.00, 0.00, -0.00, -1.00, 415.1, 293.0)">и</text><text xml:space="preserve" font-family="GillSans-Light" font-size="32.0" fill="#525252" transform="matrix(1.00, 0.00, -0.00, -1.00, 431.1, 293.0)">к</text><text xml:space="preserve" font-family="GillSans-Light" font-size="32.0" fill="#525252" transform="matrix(1.00, 0.00, -0.00, -1.00, 443.9, 293.0)"> </text><text xml:space="preserve" font-family="GillSans-Light" font-size="32.0" fill="#525252" transform="matrix(1.00, 0.00, -0.00, -1.00, 452.8, 293.0)">б</text><text xml:space="preserve" font-family="GillSans-Light" font-size="32.0" fill="#525252" transform="matrix(1.00, 0.00, -0.00, -1.00, 469.4, 293.0)">у</text><text xml:space="preserve" font-family="GillSans-Light" font-size="32.0" fill="#525252" transform="matrix(1.00, 0.00, -0.00, -1.00, 482.8, 293.0)">д</text><text xml:space="preserve" font-family="GillSans-Light" font-size="32.0" fill="#525252" transform="matrix(1.00, 0.00, -0.00, -1.00, 498.3, 293.0)">е</text><text xml:space="preserve" font-family="GillSans-Light" font-size="32.0" fill="#525252" transform="matrix(1.00, 0.00, -0.00, -1.00, 513.6, 293.0)">т</text><text xml:space="preserve" font-family="GillSans-Light" font-size="32.0" fill="#525252" transform="matrix(1.00, 0.00, -0.00, -1.00, 528.5, 293.0)"> </text><text xml:space="preserve" font-family="GillSans-Light" font-size="32.0" fill="#525252" transform="matrix(1.00, 0.00, -0.00, -1.00, 537.3, 293.0)">д</text><text xml:space="preserve" font-family="GillSans-Light" font-size="32.0" fill="#525252" transform="matrix(1.00, 0.00, -0.00, -1.00, 552.8, 293.0)">о</text><text xml:space="preserve" font-family="GillSans-Light" font-size="32.0" fill="#525252" transform="matrix(1.00, 0.00, -0.00, -1.00, 570.2, 293.0)">с</text><text xml:space="preserve" font-family="GillSans-Light" font-size="32.0" fill="#525252" transform="matrix(1.00, 0.00, -0.00, -1.00, 583.5, 293.0)">т</text><text xml:space="preserve" font-family="GillSans-Light" font-size="32.0" fill="#525252" transform="matrix(1.00, 0.00, -0.00, -1.00, 598.4, 293.0)">у</text><text xml:space="preserve" font-family="GillSans-Light" font-size="32.0" fill="#525252" transform="matrix(1.00, 0.00, -0.00, -1.00, 611.7, 293.0)">п</text><text xml:space="preserve" font-family="GillSans-Light" font-size="32.0" fill="#525252" transform="matrix(1.00, 0.00, -0.00, -1.00, 627.7, 293.0)">е</text><text xml:space="preserve" font-family="GillSans-Light" font-size="32.0" fill="#525252" transform="matrix(1.00, 0.00, -0.00, -1.00, 643.0, 293.0)">н</text><text xml:space="preserve" font-family="GillSans-Light" font-size="32.0" fill="#525252" transform="matrix(1.00, 0.00, -0.00, -1.00, 658.9, 293.0)"> </text><text xml:space="preserve" font-family="GillSans-Light" font-size="32.0" fill="#525252" transform="matrix(1.00, 0.00, -0.00, -1.00, 667.8, 293.0)">п</text><text xml:space="preserve" font-family="GillSans-Light" font-size="32.0" fill="#525252" transform="matrix(1.00, 0.00, -0.00, -1.00, 683.8, 293.0)">о</text><text xml:space="preserve" font-family="GillSans-Light" font-size="32.0" fill="#525252" transform="matrix(1.00, 0.00, -0.00, -1.00, 701.1, 293.0)"> </text><text xml:space="preserve" font-family="GillSans-Light" font-size="32.0" fill="#525252" transform="matrix(1.00, 0.00, -0.00, -1.00, 710.0, 293.0)">а</text><text xml:space="preserve" font-family="GillSans-Light" font-size="32.0" fill="#525252" transform="matrix(1.00, 0.00, -0.00, -1.00, 723.6, 293.0)">д</text><text xml:space="preserve" font-family="GillSans-Light" font-size="32.0" fill="#525252" transform="matrix(1.00, 0.00, -0.00, -1.00, 739.1, 293.0)">р</text><text xml:space="preserve" font-family="GillSans-Light" font-size="32.0" fill="#525252" transform="matrix(1.00, 0.00, -0.00, -1.00, 755.4, 293.0)">е</text><text xml:space="preserve" font-family="GillSans-Light" font-size="32.0" fill="#525252" transform="matrix(1.00, 0.00, -0.00, -1.00, 770.7, 293.0)">с</text><text xml:space="preserve" font-family="GillSans-Light" font-size="32.0" fill="#525252" transform="matrix(1.00, 0.00, -0.00, -1.00, 784.1, 293.0)">у</text><text xml:space="preserve" font-family="GillSans-Light" font-size="32.0" fill="#525252" transform="matrix(1.00, 0.00, -0.00, -1.00, 229.0, 256.0)">h</text><text xml:space="preserve" font-family="GillSans-Light" font-size="32.0" fill="#525252" transform="matrix(1.00, 0.00, -0.00, -1.00, 244.7, 256.0)">t</text><text xml:space="preserve" font-family="GillSans-Light" font-size="32.0" fill="#525252" transform="matrix(1.00, 0.00, -0.00, -1.00, 254.3, 256.0)">t</text><text xml:space="preserve" font-family="GillSans-Light" font-size="32.0" fill="#525252" transform="matrix(1.00, 0.00, -0.00, -1.00, 264.0, 256.0)">p</text><text xml:space="preserve" font-family="GillSans-Light" font-size="32.0" fill="#525252" transform="matrix(1.00, 0.00, -0.00, -1.00, 280.3, 256.0)">:</text><text xml:space="preserve" font-family="GillSans-Light" font-size="32.0" fill="#525252" transform="matrix(1.00, 0.00, -0.00, -1.00, 285.9, 256.0)">/</text><text xml:space="preserve" font-family="GillSans-Light" font-size="32.0" fill="#525252" transform="matrix(1.00, 0.00, -0.00, -1.00, 294.9, 256.0)">/</text><text xml:space="preserve" font-family="GillSans-Light" font-size="32.0" fill="#525252" transform="matrix(1.00, 0.00, -0.00, -1.00, 303.9, 256.0)">l</text><text xml:space="preserve" font-family="GillSans-Light" font-size="32.0" fill="#525252" transform="matrix(1.00, 0.00, -0.00, -1.00, 309.9, 256.0)">o</text><text xml:space="preserve" font-family="GillSans-Light" font-size="32.0" fill="#525252" transform="matrix(1.00, 0.00, -0.00, -1.00, 327.3, 256.0)">c</text><text xml:space="preserve" font-family="GillSans-Light" font-size="32.0" fill="#525252" transform="matrix(1.00, 0.00, -0.00, -1.00, 340.6, 256.0)">a</text><text xml:space="preserve" font-family="GillSans-Light" font-size="32.0" fill="#525252" transform="matrix(1.00, 0.00, -0.00, -1.00, 354.3, 256.0)">l</text><text xml:space="preserve" font-family="GillSans-Light" font-size="32.0" fill="#525252" transform="matrix(1.00, 0.00, -0.00, -1.00, 360.3, 256.0)">h</text><text xml:space="preserve" font-family="GillSans-Light" font-size="32.0" fill="#525252" transform="matrix(1.00, 0.00, -0.00, -1.00, 376.0, 256.0)">o</text><text xml:space="preserve" font-family="GillSans-Light" font-size="32.0" fill="#525252" transform="matrix(1.00, 0.00, -0.00, -1.00, 393.3, 256.0)">s</text><text xml:space="preserve" font-family="GillSans-Light" font-size="32.0" fill="#525252" transform="matrix(1.00, 0.00, -0.00, -1.00, 404.6, 256.0)">t</text><text xml:space="preserve" font-family="GillSans-Light" font-size="32.0" fill="#525252" transform="matrix(1.00, 0.00, -0.00, -1.00, 414.3, 256.0)">:</text><text xml:space="preserve" font-family="GillSans-Light" font-size="32.0" fill="#525252" transform="matrix(1.00, 0.00, -0.00, -1.00, 419.9, 256.0)">1</text><text xml:space="preserve" font-family="GillSans-Light" font-size="32.0" fill="#525252" transform="matrix(1.00, 0.00, -0.00, -1.00, 435.9, 256.0)">2</text><text xml:space="preserve" font-family="GillSans-Light" font-size="32.0" fill="#525252" transform="matrix(1.00, 0.00, -0.00, -1.00, 451.9, 256.0)">3</text><text xml:space="preserve" font-family="GillSans-Light" font-size="32.0" fill="#525252" transform="matrix(1.00, 0.00, -0.00, -1.00, 467.9, 256.0)">4</text><text xml:space="preserve" font-family="GillSans-Light" font-size="32.0" fill="#525252" transform="matrix(1.00, 0.00, -0.00, -1.00, 484.0, 256.0)"> </text><text xml:space="preserve" font-family="GillSans-Light" font-size="32.0" fill="#525252" transform="matrix(1.00, 0.00, -0.00, -1.00, 492.9, 256.0)">ч</text><text xml:space="preserve" font-family="GillSans-Light" font-size="32.0" fill="#525252" transform="matrix(1.00, 0.00, -0.00, -1.00, 507.1, 256.0)">е</text><text xml:space="preserve" font-family="GillSans-Light" font-size="32.0" fill="#525252" transform="matrix(1.00, 0.00, -0.00, -1.00, 522.4, 256.0)">р</text><text xml:space="preserve" font-family="GillSans-Light" font-size="32.0" fill="#525252" transform="matrix(1.00, 0.00, -0.00, -1.00, 538.7, 256.0)">е</text><text xml:space="preserve" font-family="GillSans-Light" font-size="32.0" fill="#525252" transform="matrix(1.00, 0.00, -0.00, -1.00, 554.1, 256.0)">з</text><text xml:space="preserve" font-family="GillSans-Light" font-size="32.0" fill="#525252" transform="matrix(1.00, 0.00, -0.00, -1.00, 566.7, 256.0)"> </text><text xml:space="preserve" font-family="GillSans-Light" font-size="32.0" fill="#525252" transform="matrix(1.00, 0.00, -0.00, -1.00, 575.6, 256.0)">б</text><text xml:space="preserve" font-family="GillSans-Light" font-size="32.0" fill="#525252" transform="matrix(1.00, 0.00, -0.00, -1.00, 592.3, 256.0)">р</text><text xml:space="preserve" font-family="GillSans-Light" font-size="32.0" fill="#525252" transform="matrix(1.00, 0.00, -0.00, -1.00, 608.6, 256.0)">а</text><text xml:space="preserve" font-family="GillSans-Light" font-size="32.0" fill="#525252" transform="matrix(1.00, 0.00, -0.00, -1.00, 622.2, 256.0)">у</text><text xml:space="preserve" font-family="GillSans-Light" font-size="32.0" fill="#525252" transform="matrix(1.00, 0.00, -0.00, -1.00, 635.6, 256.0)">з</text><text xml:space="preserve" font-family="GillSans-Light" font-size="32.0" fill="#525252" transform="matrix(1.00, 0.00, -0.00, -1.00, 648.3, 256.0)">е</text><text xml:space="preserve" font-family="GillSans-Light" font-size="32.0" fill="#525252" transform="matrix(1.00, 0.00, -0.00, -1.00, 663.6, 256.0)">р</text><text xml:space="preserve" font-family="GillSans-Light" font-size="32.0" fill="#525252" transform="matrix(1.00, 0.00, -0.00, -1.00, 679.9, 256.0)"> </text><text xml:space="preserve" font-family="GillSans-Light" font-size="32.0" fill="#525252" transform="matrix(1.00, 0.00, -0.00, -1.00, 688.8, 256.0)">C</text><text xml:space="preserve" font-family="GillSans-Light" font-size="32.0" fill="#525252" transform="matrix(1.00, 0.00, -0.00, -1.00, 710.5, 256.0)">h</text><text xml:space="preserve" font-family="GillSans-Light" font-size="32.0" fill="#525252" transform="matrix(1.00, 0.00, -0.00, -1.00, 726.2, 256.0)">r</text><text xml:space="preserve" font-family="GillSans-Light" font-size="32.0" fill="#525252" transform="matrix(1.00, 0.00, -0.00, -1.00, 736.8, 256.0)">o</text><text xml:space="preserve" font-family="GillSans-Light" font-size="32.0" fill="#525252" transform="matrix(1.00, 0.00, -0.00, -1.00, 754.2, 256.0)">m</text><text xml:space="preserve" font-family="GillSans-Light" font-size="32.0" fill="#525252" transform="matrix(1.00, 0.00, -0.00, -1.00, 778.8, 256.0)">e</text><g><clipPath id="clip-64"><path d="M 228.4 251.4 L 484.4 251.4 L 484.4 255.0 L 228.4 255.0 Z M 228.4 251.4 "></path></clipPath><g clip-path="url(#clip-64)"><path d="M 11.6 72.8 L 266.6 72.8 " fill="none" stroke="#525252" stroke-width="1.59" stroke-miterlimit="0.00" transform="matrix(1.00, 0.00, 0.00, -1.00, 217.8, 326.0)"></path></g></g><image xlink:href="237FF1C94A960E9C785E72801DC28C5B.png" width="481.00" height="217.00" transform="matrix(1.00, 0.00, -0.00, -1.00, 272.0, 237.0)"></image></g></svg>