<?xml version="1.0" encoding="UTF-8" standalone="no"?><svg xmlns="http://www.w3.org/2000/svg" xmlns:xlink="http://www.w3.org/1999/xlink" clip-rule="evenodd" stroke-miterlimit="4.00" viewBox="0 0 1024 768"><desc>SVG generated by Keynote</desc><defs></defs><g transform="matrix(1.00, 0.00, -0.00, -1.00, 0.0, 768.0)"><g><clipPath id="clip-31"><path d="M 0.0 768.0 L 1024.0 768.0 L 1024.0 0.0 L 0.0 0.0 Z M 0.0 768.0 "></path></clipPath><g clip-path="url(#clip-31)"><image xlink:href="../../293415CD-D1BA-41BB-8703-BAEDA9FFCE27/assets/D3CB8578D364082F6943B53F933CCC32.jpeg" width="1024.00" height="768.00" transform="matrix(1.00, 0.00, -0.00, -1.00, 0.0, 768.0)"></image></g></g><text xml:space="preserve" font-family="GillSans-Light" font-size="72.0" fill="#525252" transform="matrix(1.00, 0.00, -0.00, -1.00, 90.0, 628.0)">О</text><text xml:space="preserve" font-family="GillSans-Light" font-size="72.0" fill="#525252" transform="matrix(1.00, 0.00, -0.00, -1.00, 149.3, 628.0)">Т</text><text xml:space="preserve" font-family="GillSans-Light" font-size="72.0" fill="#525252" transform="matrix(1.00, 0.00, -0.00, -1.00, 190.6, 628.0)">Л</text><text xml:space="preserve" font-family="GillSans-Light" font-size="72.0" fill="#525252" transform="matrix(1.00, 0.00, -0.00, -1.00, 238.6, 628.0)">А</text><text xml:space="preserve" font-family="GillSans-Light" font-size="72.0" fill="#525252" transform="matrix(1.00, 0.00, -0.00, -1.00, 286.6, 628.0)">Д</text><text xml:space="preserve" font-family="GillSans-Light" font-size="72.0" fill="#525252" transform="matrix(1.00, 0.00, -0.00, -1.00, 335.5, 628.0)">К</text><text xml:space="preserve" font-family="GillSans-Light" font-size="72.0" fill="#525252" transform="matrix(1.00, 0.00, -0.00, -1.00, 374.9, 628.0)">А</text><text xml:space="preserve" font-family="GillSans-Light" font-size="72.0" fill="#525252" transform="matrix(1.00, 0.00, -0.00, -1.00, 422.9, 628.0)"> </text><text xml:space="preserve" font-family="GillSans-Light" font-size="72.0" fill="#525252" transform="matrix(1.00, 0.00, -0.00, -1.00, 442.9, 628.0)">П</text><text xml:space="preserve" font-family="GillSans-Light" font-size="72.0" fill="#525252" transform="matrix(1.00, 0.00, -0.00, -1.00, 494.7, 628.0)">Р</text><text xml:space="preserve" font-family="GillSans-Light" font-size="72.0" fill="#525252" transform="matrix(1.00, 0.00, -0.00, -1.00, 531.4, 628.0)">И</text><text xml:space="preserve" font-family="GillSans-Light" font-size="72.0" fill="#525252" transform="matrix(1.00, 0.00, -0.00, -1.00, 583.2, 628.0)">Л</text><text xml:space="preserve" font-family="GillSans-Light" font-size="72.0" fill="#525252" transform="matrix(1.00, 0.00, -0.00, -1.00, 631.2, 628.0)">О</text><text xml:space="preserve" font-family="GillSans-Light" font-size="72.0" fill="#525252" transform="matrix(1.00, 0.00, -0.00, -1.00, 690.5, 628.0)">Ж</text><text xml:space="preserve" font-family="GillSans-Light" font-size="72.0" fill="#525252" transform="matrix(1.00, 0.00, -0.00, -1.00, 752.2, 628.0)">Е</text><text xml:space="preserve" font-family="GillSans-Light" font-size="72.0" fill="#525252" transform="matrix(1.00, 0.00, -0.00, -1.00, 787.5, 628.0)">Н</text><text xml:space="preserve" font-family="GillSans-Light" font-size="72.0" fill="#525252" transform="matrix(1.00, 0.00, -0.00, -1.00, 839.3, 628.0)">И</text><text xml:space="preserve" font-family="GillSans-Light" font-size="72.0" fill="#525252" transform="matrix(1.00, 0.00, -0.00, -1.00, 891.1, 628.0)">Я</text><g><clipPath id="clip-32"><path d="M 255.4 406.0 L 786.2 406.0 L 786.2 491.4 L 255.4 491.4 Z M 255.4 406.0 "></path></clipPath><g clip-path="url(#clip-32)"><text xml:space="preserve" font-family="GillSans-Light" font-size="50.0" fill="#525252" transform="matrix(1.00, 0.00, -0.00, -1.00, 269.6, 432.1)">1</text><text xml:space="preserve" font-family="GillSans-Light" font-size="50.0" fill="#525252" transform="matrix(1.00, 0.00, -0.00, -1.00, 294.6, 432.1)">.</text><text xml:space="preserve" font-family="GillSans-Light" font-size="50.0" fill="#525252" transform="matrix(1.00, 0.00, -0.00, -1.00, 339.0, 432.0)">В</text><text xml:space="preserve" font-family="GillSans-Light" font-size="50.0" fill="#525252" transform="matrix(1.00, 0.00, -0.00, -1.00, 366.2, 432.0)">с</text><text xml:space="preserve" font-family="GillSans-Light" font-size="50.0" fill="#525252" transform="matrix(1.00, 0.00, -0.00, -1.00, 387.1, 432.0)">т</text><text xml:space="preserve" font-family="GillSans-Light" font-size="50.0" fill="#525252" transform="matrix(1.00, 0.00, -0.00, -1.00, 410.3, 432.0)">р</text><text xml:space="preserve" font-family="GillSans-Light" font-size="50.0" fill="#525252" transform="matrix(1.00, 0.00, -0.00, -1.00, 435.8, 432.0)">о</text><text xml:space="preserve" font-family="GillSans-Light" font-size="50.0" fill="#525252" transform="matrix(1.00, 0.00, -0.00, -1.00, 462.9, 432.0)">е</text><text xml:space="preserve" font-family="GillSans-Light" font-size="50.0" fill="#525252" transform="matrix(1.00, 0.00, -0.00, -1.00, 486.9, 432.0)">н</text><text xml:space="preserve" font-family="GillSans-Light" font-size="50.0" fill="#525252" transform="matrix(1.00, 0.00, -0.00, -1.00, 511.8, 432.0)">н</text><text xml:space="preserve" font-family="GillSans-Light" font-size="50.0" fill="#525252" transform="matrix(1.00, 0.00, -0.00, -1.00, 536.7, 432.0)">а</text><text xml:space="preserve" font-family="GillSans-Light" font-size="50.0" fill="#525252" transform="matrix(1.00, 0.00, -0.00, -1.00, 558.0, 432.0)">я</text><text xml:space="preserve" font-family="GillSans-Light" font-size="50.0" fill="#525252" transform="matrix(1.00, 0.00, -0.00, -1.00, 580.7, 432.0)"> </text><text xml:space="preserve" font-family="GillSans-Light" font-size="50.0" fill="#525252" transform="matrix(1.00, 0.00, -0.00, -1.00, 594.6, 432.0)">о</text><text xml:space="preserve" font-family="GillSans-Light" font-size="50.0" fill="#525252" transform="matrix(1.00, 0.00, -0.00, -1.00, 621.7, 432.0)">т</text><text xml:space="preserve" font-family="GillSans-Light" font-size="50.0" fill="#525252" transform="matrix(1.00, 0.00, -0.00, -1.00, 644.9, 432.0)">л</text><text xml:space="preserve" font-family="GillSans-Light" font-size="50.0" fill="#525252" transform="matrix(1.00, 0.00, -0.00, -1.00, 666.2, 432.0)">а</text><text xml:space="preserve" font-family="GillSans-Light" font-size="50.0" fill="#525252" transform="matrix(1.00, 0.00, -0.00, -1.00, 687.6, 432.0)">д</text><text xml:space="preserve" font-family="GillSans-Light" font-size="50.0" fill="#525252" transform="matrix(1.00, 0.00, -0.00, -1.00, 711.8, 432.0)">к</text><text xml:space="preserve" font-family="GillSans-Light" font-size="50.0" fill="#525252" transform="matrix(1.00, 0.00, -0.00, -1.00, 731.8, 432.0)">а</text></g></g><g><clipPath id="clip-33"><path d="M 255.4 329.0 L 768.6 329.0 L 768.6 414.4 L 255.4 414.4 Z M 255.4 329.0 "></path></clipPath><g clip-path="url(#clip-33)"><text xml:space="preserve" font-family="GillSans-Light" font-size="50.0" fill="#525252" transform="matrix(1.00, 0.00, -0.00, -1.00, 269.6, 355.1)">2</text><text xml:space="preserve" font-family="GillSans-Light" font-size="50.0" fill="#525252" transform="matrix(1.00, 0.00, -0.00, -1.00, 294.6, 355.1)">.</text><text xml:space="preserve" font-family="GillSans-Light" font-size="50.0" fill="#525252" transform="matrix(1.00, 0.00, -0.00, -1.00, 339.0, 355.0)">У</text><text xml:space="preserve" font-family="GillSans-Light" font-size="50.0" fill="#525252" transform="matrix(1.00, 0.00, -0.00, -1.00, 368.7, 355.0)">д</text><text xml:space="preserve" font-family="GillSans-Light" font-size="50.0" fill="#525252" transform="matrix(1.00, 0.00, -0.00, -1.00, 392.9, 355.0)">а</text><text xml:space="preserve" font-family="GillSans-Light" font-size="50.0" fill="#525252" transform="matrix(1.00, 0.00, -0.00, -1.00, 414.2, 355.0)">л</text><text xml:space="preserve" font-family="GillSans-Light" font-size="50.0" fill="#525252" transform="matrix(1.00, 0.00, -0.00, -1.00, 435.6, 355.0)">е</text><text xml:space="preserve" font-family="GillSans-Light" font-size="50.0" fill="#525252" transform="matrix(1.00, 0.00, -0.00, -1.00, 459.5, 355.0)">н</text><text xml:space="preserve" font-family="GillSans-Light" font-size="50.0" fill="#525252" transform="matrix(1.00, 0.00, -0.00, -1.00, 484.4, 355.0)">н</text><text xml:space="preserve" font-family="GillSans-Light" font-size="50.0" fill="#525252" transform="matrix(1.00, 0.00, -0.00, -1.00, 509.3, 355.0)">а</text><text xml:space="preserve" font-family="GillSans-Light" font-size="50.0" fill="#525252" transform="matrix(1.00, 0.00, -0.00, -1.00, 530.6, 355.0)">я</text><text xml:space="preserve" font-family="GillSans-Light" font-size="50.0" fill="#525252" transform="matrix(1.00, 0.00, -0.00, -1.00, 553.4, 355.0)"> </text><text xml:space="preserve" font-family="GillSans-Light" font-size="50.0" fill="#525252" transform="matrix(1.00, 0.00, -0.00, -1.00, 567.2, 355.0)">о</text><text xml:space="preserve" font-family="GillSans-Light" font-size="50.0" fill="#525252" transform="matrix(1.00, 0.00, -0.00, -1.00, 594.3, 355.0)">т</text><text xml:space="preserve" font-family="GillSans-Light" font-size="50.0" fill="#525252" transform="matrix(1.00, 0.00, -0.00, -1.00, 617.6, 355.0)">л</text><text xml:space="preserve" font-family="GillSans-Light" font-size="50.0" fill="#525252" transform="matrix(1.00, 0.00, -0.00, -1.00, 638.9, 355.0)">а</text><text xml:space="preserve" font-family="GillSans-Light" font-size="50.0" fill="#525252" transform="matrix(1.00, 0.00, -0.00, -1.00, 660.2, 355.0)">д</text><text xml:space="preserve" font-family="GillSans-Light" font-size="50.0" fill="#525252" transform="matrix(1.00, 0.00, -0.00, -1.00, 684.4, 355.0)">к</text><text xml:space="preserve" font-family="GillSans-Light" font-size="50.0" fill="#525252" transform="matrix(1.00, 0.00, -0.00, -1.00, 704.5, 355.0)">а</text></g></g></g></svg>