<?xml version="1.0" encoding="UTF-8" standalone="no"?><svg xmlns="http://www.w3.org/2000/svg" xmlns:xlink="http://www.w3.org/1999/xlink" clip-rule="evenodd" stroke-miterlimit="4.00" viewBox="0 0 1024 768"><desc>SVG generated by Keynote</desc><defs></defs><g transform="matrix(1.00, 0.00, -0.00, -1.00, 0.0, 768.0)"><g><clipPath id="clip-25"><path d="M 0.0 768.0 L 1024.0 768.0 L 1024.0 0.0 L 0.0 0.0 Z M 0.0 768.0 "></path></clipPath><g clip-path="url(#clip-25)"><image xlink:href="../../293415CD-D1BA-41BB-8703-BAEDA9FFCE27/assets/D3CB8578D364082F6943B53F933CCC32.jpeg" width="1024.00" height="768.00" transform="matrix(1.00, 0.00, -0.00, -1.00, 0.0, 768.0)"></image></g></g><text xml:space="preserve" font-family="GillSans-SemiBold" font-weight="bold" font-size="50.0" fill="#525252" transform="matrix(1.00, 0.00, -0.00, -1.00, 63.0, 541.0)">С</text><text xml:space="preserve" font-family="GillSans-SemiBold" font-weight="bold" font-size="50.0" fill="#525252" transform="matrix(1.00, 0.00, -0.00, -1.00, 99.3, 541.0)">о</text><text xml:space="preserve" font-family="GillSans-SemiBold" font-weight="bold" font-size="50.0" fill="#525252" transform="matrix(1.00, 0.00, -0.00, -1.00, 127.9, 541.0)">з</text><text xml:space="preserve" font-family="GillSans-SemiBold" font-weight="bold" font-size="50.0" fill="#525252" transform="matrix(1.00, 0.00, -0.00, -1.00, 149.9, 541.0)">д</text><text xml:space="preserve" font-family="GillSans-SemiBold" font-weight="bold" font-size="50.0" fill="#525252" transform="matrix(1.00, 0.00, -0.00, -1.00, 178.1, 541.0)">а</text><text xml:space="preserve" font-family="GillSans-SemiBold" font-weight="bold" font-size="50.0" fill="#525252" transform="matrix(1.00, 0.00, -0.00, -1.00, 201.8, 541.0)">е</text><text xml:space="preserve" font-family="GillSans-SemiBold" font-weight="bold" font-size="50.0" fill="#525252" transform="matrix(1.00, 0.00, -0.00, -1.00, 227.6, 541.0)">м</text><text xml:space="preserve" font-family="GillSans-SemiBold" font-weight="bold" font-size="50.0" fill="#525252" transform="matrix(1.00, 0.00, -0.00, -1.00, 260.6, 541.0)"> </text><text xml:space="preserve" font-family="GillSans-SemiBold" font-weight="bold" font-size="50.0" fill="#525252" transform="matrix(1.00, 0.00, -0.00, -1.00, 274.5, 541.0)">ф</text><text xml:space="preserve" font-family="GillSans-SemiBold" font-weight="bold" font-size="50.0" fill="#525252" transform="matrix(1.00, 0.00, -0.00, -1.00, 309.8, 541.0)">а</text><text xml:space="preserve" font-family="GillSans-SemiBold" font-weight="bold" font-size="50.0" fill="#525252" transform="matrix(1.00, 0.00, -0.00, -1.00, 333.6, 541.0)">й</text><text xml:space="preserve" font-family="GillSans-SemiBold" font-weight="bold" font-size="50.0" fill="#525252" transform="matrix(1.00, 0.00, -0.00, -1.00, 360.9, 541.0)">л</text><text xml:space="preserve" font-family="GillSans-SemiBold" font-weight="bold" font-size="50.0" fill="#525252" transform="matrix(1.00, 0.00, -0.00, -1.00, 384.4, 541.0)"> </text><text xml:space="preserve" font-family="GillSans-SemiBold" font-weight="bold" font-size="50.0" fill="#525252" transform="matrix(1.00, 0.00, -0.00, -1.00, 398.3, 541.0)">i</text><text xml:space="preserve" font-family="GillSans-SemiBold" font-weight="bold" font-size="50.0" fill="#525252" transform="matrix(1.00, 0.00, -0.00, -1.00, 410.7, 541.0)">n</text><text xml:space="preserve" font-family="GillSans-SemiBold" font-weight="bold" font-size="50.0" fill="#525252" transform="matrix(1.00, 0.00, -0.00, -1.00, 437.8, 541.0)">d</text><text xml:space="preserve" font-family="GillSans-SemiBold" font-weight="bold" font-size="50.0" fill="#525252" transform="matrix(1.00, 0.00, -0.00, -1.00, 465.1, 541.0)">e</text><text xml:space="preserve" font-family="GillSans-SemiBold" font-weight="bold" font-size="50.0" fill="#525252" transform="matrix(1.00, 0.00, -0.00, -1.00, 490.9, 541.0)">x</text><text xml:space="preserve" font-family="GillSans-SemiBold" font-weight="bold" font-size="50.0" fill="#525252" transform="matrix(1.00, 0.00, -0.00, -1.00, 517.4, 541.0)">.</text><text xml:space="preserve" font-family="GillSans-SemiBold" font-weight="bold" font-size="50.0" fill="#525252" transform="matrix(1.00, 0.00, -0.00, -1.00, 529.7, 541.0)">h</text><text xml:space="preserve" font-family="GillSans-SemiBold" font-weight="bold" font-size="50.0" fill="#525252" transform="matrix(1.00, 0.00, -0.00, -1.00, 556.7, 541.0)">t</text><text xml:space="preserve" font-family="GillSans-SemiBold" font-weight="bold" font-size="50.0" fill="#525252" transform="matrix(1.00, 0.00, -0.00, -1.00, 575.2, 541.0)">m</text><text xml:space="preserve" font-family="GillSans-SemiBold" font-weight="bold" font-size="50.0" fill="#525252" transform="matrix(1.00, 0.00, -0.00, -1.00, 617.5, 541.0)">l</text><text xml:space="preserve" font-family="GillSans-SemiBold" font-weight="bold" font-size="50.0" fill="#525252" transform="matrix(1.00, 0.00, -0.00, -1.00, 629.9, 541.0)"> </text><text xml:space="preserve" font-family="GillSans-SemiBold" font-weight="bold" font-size="50.0" fill="#525252" transform="matrix(1.00, 0.00, -0.00, -1.00, 643.8, 541.0)">и</text><text xml:space="preserve" font-family="GillSans-SemiBold" font-weight="bold" font-size="50.0" fill="#525252" transform="matrix(1.00, 0.00, -0.00, -1.00, 671.1, 541.0)"> </text><text xml:space="preserve" font-family="GillSans-SemiBold" font-weight="bold" font-size="50.0" fill="#525252" transform="matrix(1.00, 0.00, -0.00, -1.00, 685.0, 541.0)">p</text><text xml:space="preserve" font-family="GillSans-SemiBold" font-weight="bold" font-size="50.0" fill="#525252" transform="matrix(1.00, 0.00, -0.00, -1.00, 712.4, 541.0)">a</text><text xml:space="preserve" font-family="GillSans-SemiBold" font-weight="bold" font-size="50.0" fill="#525252" transform="matrix(1.00, 0.00, -0.00, -1.00, 736.5, 541.0)">c</text><text xml:space="preserve" font-family="GillSans-SemiBold" font-weight="bold" font-size="50.0" fill="#525252" transform="matrix(1.00, 0.00, -0.00, -1.00, 759.6, 541.0)">k</text><text xml:space="preserve" font-family="GillSans-SemiBold" font-weight="bold" font-size="50.0" fill="#525252" transform="matrix(1.00, 0.00, -0.00, -1.00, 785.5, 541.0)">a</text><text xml:space="preserve" font-family="GillSans-SemiBold" font-weight="bold" font-size="50.0" fill="#525252" transform="matrix(1.00, 0.00, -0.00, -1.00, 809.6, 541.0)">g</text><text xml:space="preserve" font-family="GillSans-SemiBold" font-weight="bold" font-size="50.0" fill="#525252" transform="matrix(1.00, 0.00, -0.00, -1.00, 834.2, 541.0)">e</text><text xml:space="preserve" font-family="GillSans-SemiBold" font-weight="bold" font-size="50.0" fill="#525252" transform="matrix(1.00, 0.00, -0.00, -1.00, 860.0, 541.0)">.</text><text xml:space="preserve" font-family="GillSans-SemiBold" font-weight="bold" font-size="50.0" fill="#525252" transform="matrix(1.00, 0.00, -0.00, -1.00, 872.3, 541.0)">j</text><text xml:space="preserve" font-family="GillSans-SemiBold" font-weight="bold" font-size="50.0" fill="#525252" transform="matrix(1.00, 0.00, -0.00, -1.00, 884.7, 541.0)">s</text><text xml:space="preserve" font-family="GillSans-SemiBold" font-weight="bold" font-size="50.0" fill="#525252" transform="matrix(1.00, 0.00, -0.00, -1.00, 904.9, 541.0)">o</text><text xml:space="preserve" font-family="GillSans-SemiBold" font-weight="bold" font-size="50.0" fill="#525252" transform="matrix(1.00, 0.00, -0.00, -1.00, 933.5, 541.0)">n</text><image xlink:href="CCB8D0EFB92444E151151186D1B70A4E.png" width="447.00" height="304.00" transform="matrix(1.00, 0.00, -0.00, -1.00, 528.0, 479.0)"></image><text xml:space="preserve" font-family="GillSans-SemiBold" font-weight="bold" font-size="48.0" fill="#525252" transform="matrix(1.00, 0.00, -0.00, -1.00, 61.0, 699.0)">С</text><text xml:space="preserve" font-family="GillSans-SemiBold" font-weight="bold" font-size="48.0" fill="#525252" transform="matrix(1.00, 0.00, -0.00, -1.00, 95.8, 699.0)">О</text><text xml:space="preserve" font-family="GillSans-SemiBold" font-weight="bold" font-size="48.0" fill="#525252" transform="matrix(1.00, 0.00, -0.00, -1.00, 136.6, 699.0)">З</text><text xml:space="preserve" font-family="GillSans-SemiBold" font-weight="bold" font-size="48.0" fill="#525252" transform="matrix(1.00, 0.00, -0.00, -1.00, 163.4, 699.0)">Д</text><text xml:space="preserve" font-family="GillSans-SemiBold" font-weight="bold" font-size="48.0" fill="#525252" transform="matrix(1.00, 0.00, -0.00, -1.00, 200.1, 699.0)">А</text><text xml:space="preserve" font-family="GillSans-SemiBold" font-weight="bold" font-size="48.0" fill="#525252" transform="matrix(1.00, 0.00, -0.00, -1.00, 235.0, 699.0)">Д</text><text xml:space="preserve" font-family="GillSans-SemiBold" font-weight="bold" font-size="48.0" fill="#525252" transform="matrix(1.00, 0.00, -0.00, -1.00, 271.7, 699.0)">И</text><text xml:space="preserve" font-family="GillSans-SemiBold" font-weight="bold" font-size="48.0" fill="#525252" transform="matrix(1.00, 0.00, -0.00, -1.00, 308.7, 699.0)">М</text><text xml:space="preserve" font-family="GillSans-SemiBold" font-weight="bold" font-size="48.0" fill="#525252" transform="matrix(1.00, 0.00, -0.00, -1.00, 348.8, 699.0)"> </text><text xml:space="preserve" font-family="GillSans-SemiBold" font-weight="bold" font-size="48.0" fill="#525252" transform="matrix(1.00, 0.00, -0.00, -1.00, 362.1, 699.0)">П</text><text xml:space="preserve" font-family="GillSans-SemiBold" font-weight="bold" font-size="48.0" fill="#525252" transform="matrix(1.00, 0.00, -0.00, -1.00, 399.3, 699.0)">Р</text><text xml:space="preserve" font-family="GillSans-SemiBold" font-weight="bold" font-size="48.0" fill="#525252" transform="matrix(1.00, 0.00, -0.00, -1.00, 427.3, 699.0)">О</text><text xml:space="preserve" font-family="GillSans-SemiBold" font-weight="bold" font-size="48.0" fill="#525252" transform="matrix(1.00, 0.00, -0.00, -1.00, 468.1, 699.0)">С</text><text xml:space="preserve" font-family="GillSans-SemiBold" font-weight="bold" font-size="48.0" fill="#525252" transform="matrix(1.00, 0.00, -0.00, -1.00, 502.9, 699.0)">Т</text><text xml:space="preserve" font-family="GillSans-SemiBold" font-weight="bold" font-size="48.0" fill="#525252" transform="matrix(1.00, 0.00, -0.00, -1.00, 533.4, 699.0)">О</text><text xml:space="preserve" font-family="GillSans-SemiBold" font-weight="bold" font-size="48.0" fill="#525252" transform="matrix(1.00, 0.00, -0.00, -1.00, 574.2, 699.0)">Е</text><text xml:space="preserve" font-family="GillSans-SemiBold" font-weight="bold" font-size="48.0" fill="#525252" transform="matrix(1.00, 0.00, -0.00, -1.00, 601.6, 699.0)"> </text><text xml:space="preserve" font-family="GillSans-SemiBold" font-weight="bold" font-size="48.0" fill="#525252" transform="matrix(1.00, 0.00, -0.00, -1.00, 614.9, 699.0)">П</text><text xml:space="preserve" font-family="GillSans-SemiBold" font-weight="bold" font-size="48.0" fill="#525252" transform="matrix(1.00, 0.00, -0.00, -1.00, 652.0, 699.0)">Р</text><text xml:space="preserve" font-family="GillSans-SemiBold" font-weight="bold" font-size="48.0" fill="#525252" transform="matrix(1.00, 0.00, -0.00, -1.00, 680.1, 699.0)">И</text><text xml:space="preserve" font-family="GillSans-SemiBold" font-weight="bold" font-size="48.0" fill="#525252" transform="matrix(1.00, 0.00, -0.00, -1.00, 717.1, 699.0)">Л</text><text xml:space="preserve" font-family="GillSans-SemiBold" font-weight="bold" font-size="48.0" fill="#525252" transform="matrix(1.00, 0.00, -0.00, -1.00, 750.1, 699.0)">О</text><text xml:space="preserve" font-family="GillSans-SemiBold" font-weight="bold" font-size="48.0" fill="#525252" transform="matrix(1.00, 0.00, -0.00, -1.00, 789.0, 699.0)">Ж</text><text xml:space="preserve" font-family="GillSans-SemiBold" font-weight="bold" font-size="48.0" fill="#525252" transform="matrix(1.00, 0.00, -0.00, -1.00, 835.1, 699.0)">Е</text><text xml:space="preserve" font-family="GillSans-SemiBold" font-weight="bold" font-size="48.0" fill="#525252" transform="matrix(1.00, 0.00, -0.00, -1.00, 862.5, 699.0)">Н</text><text xml:space="preserve" font-family="GillSans-SemiBold" font-weight="bold" font-size="48.0" fill="#525252" transform="matrix(1.00, 0.00, -0.00, -1.00, 899.4, 699.0)">И</text><text xml:space="preserve" font-family="GillSans-SemiBold" font-weight="bold" font-size="48.0" fill="#525252" transform="matrix(1.00, 0.00, -0.00, -1.00, 936.4, 699.0)">Е</text><image xlink:href="47A98A559B0326949E94E6E1F6E5BF39.png" width="447.00" height="305.00" transform="matrix(1.00, 0.00, -0.00, -1.00, 50.0, 479.0)"></image></g></svg>