<?xml version="1.0" encoding="UTF-8" standalone="no"?><svg xmlns="http://www.w3.org/2000/svg" xmlns:xlink="http://www.w3.org/1999/xlink" clip-rule="evenodd" stroke-miterlimit="4.00" viewBox="0 0 1024 768"><desc>SVG generated by Keynote</desc><defs></defs><g transform="matrix(1.00, 0.00, -0.00, -1.00, 0.0, 768.0)"><g><clipPath id="clip-1"><path d="M 0.0 768.0 L 1024.0 768.0 L 1024.0 0.0 L 0.0 0.0 Z M 0.0 768.0 "></path></clipPath><g clip-path="url(#clip-1)"><image xlink:href="../../293415CD-D1BA-41BB-8703-BAEDA9FFCE27/assets/D3CB8578D364082F6943B53F933CCC32.jpeg" width="1024.00" height="768.00" transform="matrix(1.00, 0.00, -0.00, -1.00, 0.0, 768.0)"></image></g></g><text xml:space="preserve" font-family="GillSans-Light" font-size="72.0" fill="#525252" transform="matrix(1.00, 0.00, -0.00, -1.00, 393.0, 628.0)">З</text><text xml:space="preserve" font-family="GillSans-Light" font-size="72.0" fill="#525252" transform="matrix(1.00, 0.00, -0.00, -1.00, 429.0, 628.0)">А</text><text xml:space="preserve" font-family="GillSans-Light" font-size="72.0" fill="#525252" transform="matrix(1.00, 0.00, -0.00, -1.00, 477.0, 628.0)">Ч</text><text xml:space="preserve" font-family="GillSans-Light" font-size="72.0" fill="#525252" transform="matrix(1.00, 0.00, -0.00, -1.00, 518.9, 628.0)">Е</text><text xml:space="preserve" font-family="GillSans-Light" font-size="72.0" fill="#525252" transform="matrix(1.00, 0.00, -0.00, -1.00, 554.2, 628.0)">М</text><text xml:space="preserve" font-family="GillSans-Light" font-size="72.0" fill="#525252" transform="matrix(1.00, 0.00, -0.00, -1.00, 610.4, 628.0)">?</text><text xml:space="preserve" font-family="GillSans-Light" font-size="37.7" fill="#525252" transform="matrix(1.00, 0.00, -0.00, -1.00, 32.0, 463.5)">•</text><text xml:space="preserve" font-family="GillSans-Light" font-size="46.0" fill="#525252" transform="matrix(1.00, 0.00, -0.00, -1.00, 73.0, 461.0)">Б</text><text xml:space="preserve" font-family="GillSans-Light" font-size="46.0" fill="#525252" transform="matrix(1.00, 0.00, -0.00, -1.00, 98.5, 461.0)">ы</text><text xml:space="preserve" font-family="GillSans-Light" font-size="46.0" fill="#525252" transform="matrix(1.00, 0.00, -0.00, -1.00, 125.3, 461.0)">с</text><text xml:space="preserve" font-family="GillSans-Light" font-size="46.0" fill="#525252" transform="matrix(1.00, 0.00, -0.00, -1.00, 144.5, 461.0)">т</text><text xml:space="preserve" font-family="GillSans-Light" font-size="46.0" fill="#525252" transform="matrix(1.00, 0.00, -0.00, -1.00, 165.9, 461.0)">р</text><text xml:space="preserve" font-family="GillSans-Light" font-size="46.0" fill="#525252" transform="matrix(1.00, 0.00, -0.00, -1.00, 189.3, 461.0)">а</text><text xml:space="preserve" font-family="GillSans-Light" font-size="46.0" fill="#525252" transform="matrix(1.00, 0.00, -0.00, -1.00, 208.9, 461.0)">я</text><text xml:space="preserve" font-family="GillSans-Light" font-size="46.0" fill="#525252" transform="matrix(1.00, 0.00, -0.00, -1.00, 229.8, 461.0)"> </text><text xml:space="preserve" font-family="GillSans-Light" font-size="46.0" fill="#525252" transform="matrix(1.00, 0.00, -0.00, -1.00, 242.6, 461.0)">р</text><text xml:space="preserve" font-family="GillSans-Light" font-size="46.0" fill="#525252" transform="matrix(1.00, 0.00, -0.00, -1.00, 266.0, 461.0)">а</text><text xml:space="preserve" font-family="GillSans-Light" font-size="46.0" fill="#525252" transform="matrix(1.00, 0.00, -0.00, -1.00, 285.7, 461.0)">з</text><text xml:space="preserve" font-family="GillSans-Light" font-size="46.0" fill="#525252" transform="matrix(1.00, 0.00, -0.00, -1.00, 303.9, 461.0)">р</text><text xml:space="preserve" font-family="GillSans-Light" font-size="46.0" fill="#525252" transform="matrix(1.00, 0.00, -0.00, -1.00, 327.3, 461.0)">а</text><text xml:space="preserve" font-family="GillSans-Light" font-size="46.0" fill="#525252" transform="matrix(1.00, 0.00, -0.00, -1.00, 346.9, 461.0)">б</text><text xml:space="preserve" font-family="GillSans-Light" font-size="46.0" fill="#525252" transform="matrix(1.00, 0.00, -0.00, -1.00, 370.9, 461.0)">о</text><text xml:space="preserve" font-family="GillSans-Light" font-size="46.0" fill="#525252" transform="matrix(1.00, 0.00, -0.00, -1.00, 395.8, 461.0)">т</text><text xml:space="preserve" font-family="GillSans-Light" font-size="46.0" fill="#525252" transform="matrix(1.00, 0.00, -0.00, -1.00, 417.2, 461.0)">к</text><text xml:space="preserve" font-family="GillSans-Light" font-size="46.0" fill="#525252" transform="matrix(1.00, 0.00, -0.00, -1.00, 435.6, 461.0)">а</text><text xml:space="preserve" font-family="GillSans-Light" font-size="46.0" fill="#525252" transform="matrix(1.00, 0.00, -0.00, -1.00, 455.3, 461.0)"> </text><text xml:space="preserve" font-family="GillSans-Light" font-size="46.0" fill="#525252" transform="matrix(1.00, 0.00, -0.00, -1.00, 468.0, 461.0)">к</text><text xml:space="preserve" font-family="GillSans-Light" font-size="46.0" fill="#525252" transform="matrix(1.00, 0.00, -0.00, -1.00, 486.5, 461.0)">р</text><text xml:space="preserve" font-family="GillSans-Light" font-size="46.0" fill="#525252" transform="matrix(1.00, 0.00, -0.00, -1.00, 509.9, 461.0)">о</text><text xml:space="preserve" font-family="GillSans-Light" font-size="46.0" fill="#525252" transform="matrix(1.00, 0.00, -0.00, -1.00, 534.8, 461.0)">с</text><text xml:space="preserve" font-family="GillSans-Light" font-size="46.0" fill="#525252" transform="matrix(1.00, 0.00, -0.00, -1.00, 554.0, 461.0)">с</text><text xml:space="preserve" font-family="GillSans-Light" font-size="46.0" fill="#525252" transform="matrix(1.00, 0.00, -0.00, -1.00, 573.2, 461.0)">-</text><text xml:space="preserve" font-family="GillSans-Light" font-size="46.0" fill="#525252" transform="matrix(1.00, 0.00, -0.00, -1.00, 587.6, 461.0)">п</text><text xml:space="preserve" font-family="GillSans-Light" font-size="46.0" fill="#525252" transform="matrix(1.00, 0.00, -0.00, -1.00, 610.5, 461.0)">л</text><text xml:space="preserve" font-family="GillSans-Light" font-size="46.0" fill="#525252" transform="matrix(1.00, 0.00, -0.00, -1.00, 630.1, 461.0)">а</text><text xml:space="preserve" font-family="GillSans-Light" font-size="46.0" fill="#525252" transform="matrix(1.00, 0.00, -0.00, -1.00, 649.8, 461.0)">т</text><text xml:space="preserve" font-family="GillSans-Light" font-size="46.0" fill="#525252" transform="matrix(1.00, 0.00, -0.00, -1.00, 671.1, 461.0)">ф</text><text xml:space="preserve" font-family="GillSans-Light" font-size="46.0" fill="#525252" transform="matrix(1.00, 0.00, -0.00, -1.00, 700.9, 461.0)">о</text><text xml:space="preserve" font-family="GillSans-Light" font-size="46.0" fill="#525252" transform="matrix(1.00, 0.00, -0.00, -1.00, 725.9, 461.0)">р</text><text xml:space="preserve" font-family="GillSans-Light" font-size="46.0" fill="#525252" transform="matrix(1.00, 0.00, -0.00, -1.00, 749.3, 461.0)">м</text><text xml:space="preserve" font-family="GillSans-Light" font-size="46.0" fill="#525252" transform="matrix(1.00, 0.00, -0.00, -1.00, 777.1, 461.0)">е</text><text xml:space="preserve" font-family="GillSans-Light" font-size="46.0" fill="#525252" transform="matrix(1.00, 0.00, -0.00, -1.00, 799.1, 461.0)">н</text><text xml:space="preserve" font-family="GillSans-Light" font-size="46.0" fill="#525252" transform="matrix(1.00, 0.00, -0.00, -1.00, 822.0, 461.0)">н</text><text xml:space="preserve" font-family="GillSans-Light" font-size="46.0" fill="#525252" transform="matrix(1.00, 0.00, -0.00, -1.00, 844.9, 461.0)">ы</text><text xml:space="preserve" font-family="GillSans-Light" font-size="46.0" fill="#525252" transform="matrix(1.00, 0.00, -0.00, -1.00, 871.8, 461.0)">х</text><text xml:space="preserve" font-family="GillSans-Light" font-size="46.0" fill="#525252" transform="matrix(1.00, 0.00, -0.00, -1.00, 893.8, 461.0)"> </text><text xml:space="preserve" font-family="GillSans-Light" font-size="46.0" fill="#525252" transform="matrix(1.00, 0.00, -0.00, -1.00, 73.0, 399.0)">п</text><text xml:space="preserve" font-family="GillSans-Light" font-size="46.0" fill="#525252" transform="matrix(1.00, 0.00, -0.00, -1.00, 95.9, 399.0)">р</text><text xml:space="preserve" font-family="GillSans-Light" font-size="46.0" fill="#525252" transform="matrix(1.00, 0.00, -0.00, -1.00, 119.4, 399.0)">и</text><text xml:space="preserve" font-family="GillSans-Light" font-size="46.0" fill="#525252" transform="matrix(1.00, 0.00, -0.00, -1.00, 142.3, 399.0)">л</text><text xml:space="preserve" font-family="GillSans-Light" font-size="46.0" fill="#525252" transform="matrix(1.00, 0.00, -0.00, -1.00, 161.9, 399.0)">о</text><text xml:space="preserve" font-family="GillSans-Light" font-size="46.0" fill="#525252" transform="matrix(1.00, 0.00, -0.00, -1.00, 186.8, 399.0)">ж</text><text xml:space="preserve" font-family="GillSans-Light" font-size="46.0" fill="#525252" transform="matrix(1.00, 0.00, -0.00, -1.00, 215.3, 399.0)">е</text><text xml:space="preserve" font-family="GillSans-Light" font-size="46.0" fill="#525252" transform="matrix(1.00, 0.00, -0.00, -1.00, 237.4, 399.0)">н</text><text xml:space="preserve" font-family="GillSans-Light" font-size="46.0" fill="#525252" transform="matrix(1.00, 0.00, -0.00, -1.00, 260.3, 399.0)">и</text><text xml:space="preserve" font-family="GillSans-Light" font-size="46.0" fill="#525252" transform="matrix(1.00, 0.00, -0.00, -1.00, 283.2, 399.0)">й</text><text xml:space="preserve" font-family="GillSans-Light" font-size="46.0" fill="#525252" transform="matrix(1.00, 0.00, -0.00, -1.00, 306.1, 399.0)"> </text><text xml:space="preserve" font-family="GillSans-Light" font-size="46.0" fill="#525252" transform="matrix(1.00, 0.00, -0.00, -1.00, 318.9, 399.0)">(</text><text xml:space="preserve" font-family="GillSans-Light" font-size="46.0" fill="#525252" transform="matrix(1.00, 0.00, -0.00, -1.00, 334.2, 399.0)">W</text><text xml:space="preserve" font-family="GillSans-Light" font-size="46.0" fill="#525252" transform="matrix(1.00, 0.00, -0.00, -1.00, 381.6, 399.0)">i</text><text xml:space="preserve" font-family="GillSans-Light" font-size="46.0" fill="#525252" transform="matrix(1.00, 0.00, -0.00, -1.00, 390.3, 399.0)">n</text><text xml:space="preserve" font-family="GillSans-Light" font-size="46.0" fill="#525252" transform="matrix(1.00, 0.00, -0.00, -1.00, 412.8, 399.0)">d</text><text xml:space="preserve" font-family="GillSans-Light" font-size="46.0" fill="#525252" transform="matrix(1.00, 0.00, -0.00, -1.00, 436.3, 399.0)">o</text><text xml:space="preserve" font-family="GillSans-Light" font-size="46.0" fill="#525252" transform="matrix(1.00, 0.00, -0.00, -1.00, 460.5, 399.0)">w</text><text xml:space="preserve" font-family="GillSans-Light" font-size="46.0" fill="#525252" transform="matrix(1.00, 0.00, -0.00, -1.00, 493.1, 399.0)">s</text><text xml:space="preserve" font-family="GillSans-Light" font-size="46.0" fill="#525252" transform="matrix(1.00, 0.00, -0.00, -1.00, 509.3, 399.0)">,</text><text xml:space="preserve" font-family="GillSans-Light" font-size="46.0" fill="#525252" transform="matrix(1.00, 0.00, -0.00, -1.00, 513.8, 399.0)"> </text><text xml:space="preserve" font-family="GillSans-Light" font-size="46.0" fill="#525252" transform="matrix(1.00, 0.00, -0.00, -1.00, 526.5, 399.0)">M</text><text xml:space="preserve" font-family="GillSans-Light" font-size="46.0" fill="#525252" transform="matrix(1.00, 0.00, -0.00, -1.00, 562.5, 399.0)">a</text><text xml:space="preserve" font-family="GillSans-Light" font-size="46.0" fill="#525252" transform="matrix(1.00, 0.00, -0.00, -1.00, 582.1, 399.0)">c</text><text xml:space="preserve" font-family="GillSans-Light" font-size="46.0" fill="#525252" transform="matrix(1.00, 0.00, -0.00, -1.00, 601.3, 399.0)"> </text><text xml:space="preserve" font-family="GillSans-Light" font-size="46.0" fill="#525252" transform="matrix(1.00, 0.00, -0.00, -1.00, 614.0, 399.0)">O</text><text xml:space="preserve" font-family="GillSans-Light" font-size="46.0" fill="#525252" transform="matrix(1.00, 0.00, -0.00, -1.00, 651.9, 399.0)">S</text><text xml:space="preserve" font-family="GillSans-Light" font-size="46.0" fill="#525252" transform="matrix(1.00, 0.00, -0.00, -1.00, 673.5, 399.0)">,</text><text xml:space="preserve" font-family="GillSans-Light" font-size="46.0" fill="#525252" transform="matrix(1.00, 0.00, -0.00, -1.00, 677.9, 399.0)"> </text><text xml:space="preserve" font-family="GillSans-Light" font-size="46.0" fill="#525252" transform="matrix(1.00, 0.00, -0.00, -1.00, 690.7, 399.0)">U</text><text xml:space="preserve" font-family="GillSans-Light" font-size="46.0" fill="#525252" transform="matrix(1.00, 0.00, -0.00, -1.00, 722.8, 399.0)">n</text><text xml:space="preserve" font-family="GillSans-Light" font-size="46.0" fill="#525252" transform="matrix(1.00, 0.00, -0.00, -1.00, 745.4, 399.0)">i</text><text xml:space="preserve" font-family="GillSans-Light" font-size="46.0" fill="#525252" transform="matrix(1.00, 0.00, -0.00, -1.00, 754.0, 399.0)">x</text><text xml:space="preserve" font-family="GillSans-Light" font-size="46.0" fill="#525252" transform="matrix(1.00, 0.00, -0.00, -1.00, 776.1, 399.0)">)</text><text xml:space="preserve" font-family="GillSans-Light" font-size="37.7" fill="#525252" transform="matrix(1.00, 0.00, -0.00, -1.00, 32.0, 292.7)">•</text><text xml:space="preserve" font-family="GillSans-Light" font-size="46.0" fill="#525252" transform="matrix(1.00, 0.00, -0.00, -1.00, 73.0, 290.0)">В</text><text xml:space="preserve" font-family="GillSans-Light" font-size="46.0" fill="#525252" transform="matrix(1.00, 0.00, -0.00, -1.00, 98.1, 290.0)">о</text><text xml:space="preserve" font-family="GillSans-Light" font-size="46.0" fill="#525252" transform="matrix(1.00, 0.00, -0.00, -1.00, 123.0, 290.0)">з</text><text xml:space="preserve" font-family="GillSans-Light" font-size="46.0" fill="#525252" transform="matrix(1.00, 0.00, -0.00, -1.00, 141.2, 290.0)">м</text><text xml:space="preserve" font-family="GillSans-Light" font-size="46.0" fill="#525252" transform="matrix(1.00, 0.00, -0.00, -1.00, 169.0, 290.0)">о</text><text xml:space="preserve" font-family="GillSans-Light" font-size="46.0" fill="#525252" transform="matrix(1.00, 0.00, -0.00, -1.00, 193.9, 290.0)">ж</text><text xml:space="preserve" font-family="GillSans-Light" font-size="46.0" fill="#525252" transform="matrix(1.00, 0.00, -0.00, -1.00, 222.5, 290.0)">н</text><text xml:space="preserve" font-family="GillSans-Light" font-size="46.0" fill="#525252" transform="matrix(1.00, 0.00, -0.00, -1.00, 245.4, 290.0)">о</text><text xml:space="preserve" font-family="GillSans-Light" font-size="46.0" fill="#525252" transform="matrix(1.00, 0.00, -0.00, -1.00, 270.3, 290.0)">с</text><text xml:space="preserve" font-family="GillSans-Light" font-size="46.0" fill="#525252" transform="matrix(1.00, 0.00, -0.00, -1.00, 289.5, 290.0)">т</text><text xml:space="preserve" font-family="GillSans-Light" font-size="46.0" fill="#525252" transform="matrix(1.00, 0.00, -0.00, -1.00, 310.9, 290.0)">ь</text><text xml:space="preserve" font-family="GillSans-Light" font-size="46.0" fill="#525252" transform="matrix(1.00, 0.00, -0.00, -1.00, 330.1, 290.0)"> </text><text xml:space="preserve" font-family="GillSans-Light" font-size="46.0" fill="#525252" transform="matrix(1.00, 0.00, -0.00, -1.00, 342.9, 290.0)">а</text><text xml:space="preserve" font-family="GillSans-Light" font-size="46.0" fill="#525252" transform="matrix(1.00, 0.00, -0.00, -1.00, 362.5, 290.0)">в</text><text xml:space="preserve" font-family="GillSans-Light" font-size="46.0" fill="#525252" transform="matrix(1.00, 0.00, -0.00, -1.00, 382.0, 290.0)">т</text><text xml:space="preserve" font-family="GillSans-Light" font-size="46.0" fill="#525252" transform="matrix(1.00, 0.00, -0.00, -1.00, 403.4, 290.0)">о</text><text xml:space="preserve" font-family="GillSans-Light" font-size="46.0" fill="#525252" transform="matrix(1.00, 0.00, -0.00, -1.00, 428.3, 290.0)">м</text><text xml:space="preserve" font-family="GillSans-Light" font-size="46.0" fill="#525252" transform="matrix(1.00, 0.00, -0.00, -1.00, 456.1, 290.0)">а</text><text xml:space="preserve" font-family="GillSans-Light" font-size="46.0" fill="#525252" transform="matrix(1.00, 0.00, -0.00, -1.00, 475.7, 290.0)">т</text><text xml:space="preserve" font-family="GillSans-Light" font-size="46.0" fill="#525252" transform="matrix(1.00, 0.00, -0.00, -1.00, 497.1, 290.0)">и</text><text xml:space="preserve" font-family="GillSans-Light" font-size="46.0" fill="#525252" transform="matrix(1.00, 0.00, -0.00, -1.00, 520.0, 290.0)">ч</text><text xml:space="preserve" font-family="GillSans-Light" font-size="46.0" fill="#525252" transform="matrix(1.00, 0.00, -0.00, -1.00, 540.4, 290.0)">е</text><text xml:space="preserve" font-family="GillSans-Light" font-size="46.0" fill="#525252" transform="matrix(1.00, 0.00, -0.00, -1.00, 562.5, 290.0)">с</text><text xml:space="preserve" font-family="GillSans-Light" font-size="46.0" fill="#525252" transform="matrix(1.00, 0.00, -0.00, -1.00, 581.7, 290.0)">к</text><text xml:space="preserve" font-family="GillSans-Light" font-size="46.0" fill="#525252" transform="matrix(1.00, 0.00, -0.00, -1.00, 600.1, 290.0)">и</text><text xml:space="preserve" font-family="GillSans-Light" font-size="46.0" fill="#525252" transform="matrix(1.00, 0.00, -0.00, -1.00, 623.0, 290.0)">х</text><text xml:space="preserve" font-family="GillSans-Light" font-size="46.0" fill="#525252" transform="matrix(1.00, 0.00, -0.00, -1.00, 645.0, 290.0)"> </text><text xml:space="preserve" font-family="GillSans-Light" font-size="46.0" fill="#525252" transform="matrix(1.00, 0.00, -0.00, -1.00, 657.8, 290.0)">о</text><text xml:space="preserve" font-family="GillSans-Light" font-size="46.0" fill="#525252" transform="matrix(1.00, 0.00, -0.00, -1.00, 682.7, 290.0)">б</text><text xml:space="preserve" font-family="GillSans-Light" font-size="46.0" fill="#525252" transform="matrix(1.00, 0.00, -0.00, -1.00, 706.7, 290.0)">н</text><text xml:space="preserve" font-family="GillSans-Light" font-size="46.0" fill="#525252" transform="matrix(1.00, 0.00, -0.00, -1.00, 729.6, 290.0)">о</text><text xml:space="preserve" font-family="GillSans-Light" font-size="46.0" fill="#525252" transform="matrix(1.00, 0.00, -0.00, -1.00, 754.6, 290.0)">в</text><text xml:space="preserve" font-family="GillSans-Light" font-size="46.0" fill="#525252" transform="matrix(1.00, 0.00, -0.00, -1.00, 774.0, 290.0)">л</text><text xml:space="preserve" font-family="GillSans-Light" font-size="46.0" fill="#525252" transform="matrix(1.00, 0.00, -0.00, -1.00, 793.7, 290.0)">е</text><text xml:space="preserve" font-family="GillSans-Light" font-size="46.0" fill="#525252" transform="matrix(1.00, 0.00, -0.00, -1.00, 815.7, 290.0)">н</text><text xml:space="preserve" font-family="GillSans-Light" font-size="46.0" fill="#525252" transform="matrix(1.00, 0.00, -0.00, -1.00, 838.6, 290.0)">и</text><text xml:space="preserve" font-family="GillSans-Light" font-size="46.0" fill="#525252" transform="matrix(1.00, 0.00, -0.00, -1.00, 861.5, 290.0)">й</text><text xml:space="preserve" font-family="GillSans-Light" font-size="37.7" fill="#525252" transform="matrix(1.00, 0.00, -0.00, -1.00, 32.0, 184.3)">•</text><text xml:space="preserve" font-family="GillSans-Light" font-size="46.0" fill="#525252" transform="matrix(1.00, 0.00, -0.00, -1.00, 73.0, 182.0)">Х</text><text xml:space="preserve" font-family="GillSans-Light" font-size="46.0" fill="#525252" transform="matrix(1.00, 0.00, -0.00, -1.00, 104.6, 182.0)">о</text><text xml:space="preserve" font-family="GillSans-Light" font-size="46.0" fill="#525252" transform="matrix(1.00, 0.00, -0.00, -1.00, 129.6, 182.0)">р</text><text xml:space="preserve" font-family="GillSans-Light" font-size="46.0" fill="#525252" transform="matrix(1.00, 0.00, -0.00, -1.00, 153.0, 182.0)">о</text><text xml:space="preserve" font-family="GillSans-Light" font-size="46.0" fill="#525252" transform="matrix(1.00, 0.00, -0.00, -1.00, 178.0, 182.0)">ш</text><text xml:space="preserve" font-family="GillSans-Light" font-size="46.0" fill="#525252" transform="matrix(1.00, 0.00, -0.00, -1.00, 208.3, 182.0)">а</text><text xml:space="preserve" font-family="GillSans-Light" font-size="46.0" fill="#525252" transform="matrix(1.00, 0.00, -0.00, -1.00, 227.9, 182.0)">я</text><text xml:space="preserve" font-family="GillSans-Light" font-size="46.0" fill="#525252" transform="matrix(1.00, 0.00, -0.00, -1.00, 248.8, 182.0)"> </text><text xml:space="preserve" font-family="GillSans-Light" font-size="46.0" fill="#525252" transform="matrix(1.00, 0.00, -0.00, -1.00, 261.6, 182.0)">и</text><text xml:space="preserve" font-family="GillSans-Light" font-size="46.0" fill="#525252" transform="matrix(1.00, 0.00, -0.00, -1.00, 284.5, 182.0)">н</text><text xml:space="preserve" font-family="GillSans-Light" font-size="46.0" fill="#525252" transform="matrix(1.00, 0.00, -0.00, -1.00, 307.4, 182.0)">т</text><text xml:space="preserve" font-family="GillSans-Light" font-size="46.0" fill="#525252" transform="matrix(1.00, 0.00, -0.00, -1.00, 328.8, 182.0)">е</text><text xml:space="preserve" font-family="GillSans-Light" font-size="46.0" fill="#525252" transform="matrix(1.00, 0.00, -0.00, -1.00, 350.8, 182.0)">г</text><text xml:space="preserve" font-family="GillSans-Light" font-size="46.0" fill="#525252" transform="matrix(1.00, 0.00, -0.00, -1.00, 367.3, 182.0)">р</text><text xml:space="preserve" font-family="GillSans-Light" font-size="46.0" fill="#525252" transform="matrix(1.00, 0.00, -0.00, -1.00, 390.7, 182.0)">а</text><text xml:space="preserve" font-family="GillSans-Light" font-size="46.0" fill="#525252" transform="matrix(1.00, 0.00, -0.00, -1.00, 410.3, 182.0)">ц</text><text xml:space="preserve" font-family="GillSans-Light" font-size="46.0" fill="#525252" transform="matrix(1.00, 0.00, -0.00, -1.00, 433.2, 182.0)">и</text><text xml:space="preserve" font-family="GillSans-Light" font-size="46.0" fill="#525252" transform="matrix(1.00, 0.00, -0.00, -1.00, 456.1, 182.0)">я</text><text xml:space="preserve" font-family="GillSans-Light" font-size="46.0" fill="#525252" transform="matrix(1.00, 0.00, -0.00, -1.00, 477.0, 182.0)"> </text><text xml:space="preserve" font-family="GillSans-Light" font-size="46.0" fill="#525252" transform="matrix(1.00, 0.00, -0.00, -1.00, 489.8, 182.0)">с</text><text xml:space="preserve" font-family="GillSans-Light" font-size="46.0" fill="#525252" transform="matrix(1.00, 0.00, -0.00, -1.00, 508.9, 182.0)"> </text><text xml:space="preserve" font-family="GillSans-Light" font-size="46.0" fill="#525252" transform="matrix(1.00, 0.00, -0.00, -1.00, 521.7, 182.0)">о</text><text xml:space="preserve" font-family="GillSans-Light" font-size="46.0" fill="#525252" transform="matrix(1.00, 0.00, -0.00, -1.00, 546.6, 182.0)">п</text><text xml:space="preserve" font-family="GillSans-Light" font-size="46.0" fill="#525252" transform="matrix(1.00, 0.00, -0.00, -1.00, 569.6, 182.0)">е</text><text xml:space="preserve" font-family="GillSans-Light" font-size="46.0" fill="#525252" transform="matrix(1.00, 0.00, -0.00, -1.00, 591.6, 182.0)">р</text><text xml:space="preserve" font-family="GillSans-Light" font-size="46.0" fill="#525252" transform="matrix(1.00, 0.00, -0.00, -1.00, 615.0, 182.0)">а</text><text xml:space="preserve" font-family="GillSans-Light" font-size="46.0" fill="#525252" transform="matrix(1.00, 0.00, -0.00, -1.00, 634.7, 182.0)">ц</text><text xml:space="preserve" font-family="GillSans-Light" font-size="46.0" fill="#525252" transform="matrix(1.00, 0.00, -0.00, -1.00, 657.5, 182.0)">и</text><text xml:space="preserve" font-family="GillSans-Light" font-size="46.0" fill="#525252" transform="matrix(1.00, 0.00, -0.00, -1.00, 680.4, 182.0)">о</text><text xml:space="preserve" font-family="GillSans-Light" font-size="46.0" fill="#525252" transform="matrix(1.00, 0.00, -0.00, -1.00, 705.4, 182.0)">н</text><text xml:space="preserve" font-family="GillSans-Light" font-size="46.0" fill="#525252" transform="matrix(1.00, 0.00, -0.00, -1.00, 728.3, 182.0)">н</text><text xml:space="preserve" font-family="GillSans-Light" font-size="46.0" fill="#525252" transform="matrix(1.00, 0.00, -0.00, -1.00, 751.2, 182.0)">ы</text><text xml:space="preserve" font-family="GillSans-Light" font-size="46.0" fill="#525252" transform="matrix(1.00, 0.00, -0.00, -1.00, 778.0, 182.0)">м</text><text xml:space="preserve" font-family="GillSans-Light" font-size="46.0" fill="#525252" transform="matrix(1.00, 0.00, -0.00, -1.00, 805.8, 182.0)">и</text><text xml:space="preserve" font-family="GillSans-Light" font-size="46.0" fill="#525252" transform="matrix(1.00, 0.00, -0.00, -1.00, 828.7, 182.0)"> </text><text xml:space="preserve" font-family="GillSans-Light" font-size="46.0" fill="#525252" transform="matrix(1.00, 0.00, -0.00, -1.00, 73.0, 119.0)">с</text><text xml:space="preserve" font-family="GillSans-Light" font-size="46.0" fill="#525252" transform="matrix(1.00, 0.00, -0.00, -1.00, 92.2, 119.0)">и</text><text xml:space="preserve" font-family="GillSans-Light" font-size="46.0" fill="#525252" transform="matrix(1.00, 0.00, -0.00, -1.00, 115.1, 119.0)">с</text><text xml:space="preserve" font-family="GillSans-Light" font-size="46.0" fill="#525252" transform="matrix(1.00, 0.00, -0.00, -1.00, 134.3, 119.0)">т</text><text xml:space="preserve" font-family="GillSans-Light" font-size="46.0" fill="#525252" transform="matrix(1.00, 0.00, -0.00, -1.00, 155.6, 119.0)">е</text><text xml:space="preserve" font-family="GillSans-Light" font-size="46.0" fill="#525252" transform="matrix(1.00, 0.00, -0.00, -1.00, 177.7, 119.0)">м</text><text xml:space="preserve" font-family="GillSans-Light" font-size="46.0" fill="#525252" transform="matrix(1.00, 0.00, -0.00, -1.00, 205.5, 119.0)">а</text><text xml:space="preserve" font-family="GillSans-Light" font-size="46.0" fill="#525252" transform="matrix(1.00, 0.00, -0.00, -1.00, 225.1, 119.0)">м</text><text xml:space="preserve" font-family="GillSans-Light" font-size="46.0" fill="#525252" transform="matrix(1.00, 0.00, -0.00, -1.00, 252.9, 119.0)">и</text></g></svg>