<?xml version="1.0" encoding="UTF-8" standalone="no"?><svg xmlns="http://www.w3.org/2000/svg" xmlns:xlink="http://www.w3.org/1999/xlink" clip-rule="evenodd" stroke-miterlimit="4.00" viewBox="0 0 1024 768"><desc>SVG generated by Keynote</desc><defs></defs><g transform="matrix(1.00, 0.00, -0.00, -1.00, 0.0, 768.0)"><g><clipPath id="clip-0"><path d="M 0.0 768.0 L 1024.0 768.0 L 1024.0 0.0 L 0.0 0.0 Z M 0.0 768.0 "></path></clipPath><g clip-path="url(#clip-0)"><image xlink:href="D3CB8578D364082F6943B53F933CCC32.jpeg" width="1024.00" height="768.00" transform="matrix(1.00, 0.00, -0.00, -1.00, 0.0, 768.0)"></image></g></g><text xml:space="preserve" font-family="GillSans-Light" font-size="60.0" fill="#525252" transform="matrix(1.00, 0.00, -0.00, -1.00, 289.0, 334.0)">n</text><text xml:space="preserve" font-family="GillSans-Light" font-size="60.0" fill="#525252" transform="matrix(1.00, 0.00, -0.00, -1.00, 318.4, 334.0)">w</text><text xml:space="preserve" font-family="GillSans-Light" font-size="60.0" fill="#525252" transform="matrix(1.00, 0.00, -0.00, -1.00, 357.6, 334.0)">.</text><text xml:space="preserve" font-family="GillSans-Light" font-size="60.0" fill="#525252" transform="matrix(1.00, 0.00, -0.00, -1.00, 368.2, 334.0)">j</text><text xml:space="preserve" font-family="GillSans-Light" font-size="60.0" fill="#525252" transform="matrix(1.00, 0.00, -0.00, -1.00, 379.5, 334.0)">s</text><text xml:space="preserve" font-family="GillSans-Light" font-size="60.0" fill="#525252" transform="matrix(1.00, 0.00, -0.00, -1.00, 400.7, 334.0)"> </text><text xml:space="preserve" font-family="GillSans-Light" font-size="60.0" fill="#525252" transform="matrix(1.00, 0.00, -0.00, -1.00, 417.4, 334.0)">(</text><text xml:space="preserve" font-family="GillSans-Light" font-size="60.0" fill="#525252" transform="matrix(1.00, 0.00, -0.00, -1.00, 437.3, 334.0)">n</text><text xml:space="preserve" font-family="GillSans-Light" font-size="60.0" fill="#525252" transform="matrix(1.00, 0.00, -0.00, -1.00, 466.8, 334.0)">o</text><text xml:space="preserve" font-family="GillSans-Light" font-size="60.0" fill="#525252" transform="matrix(1.00, 0.00, -0.00, -1.00, 499.3, 334.0)">d</text><text xml:space="preserve" font-family="GillSans-Light" font-size="60.0" fill="#525252" transform="matrix(1.00, 0.00, -0.00, -1.00, 529.9, 334.0)">e</text><text xml:space="preserve" font-family="GillSans-Light" font-size="60.0" fill="#525252" transform="matrix(1.00, 0.00, -0.00, -1.00, 558.6, 334.0)">-</text><text xml:space="preserve" font-family="GillSans-Light" font-size="60.0" fill="#525252" transform="matrix(1.00, 0.00, -0.00, -1.00, 577.4, 334.0)">w</text><text xml:space="preserve" font-family="GillSans-Light" font-size="60.0" fill="#525252" transform="matrix(1.00, 0.00, -0.00, -1.00, 619.0, 334.0)">e</text><text xml:space="preserve" font-family="GillSans-Light" font-size="60.0" fill="#525252" transform="matrix(1.00, 0.00, -0.00, -1.00, 647.7, 334.0)">b</text><text xml:space="preserve" font-family="GillSans-Light" font-size="60.0" fill="#525252" transform="matrix(1.00, 0.00, -0.00, -1.00, 678.3, 334.0)">k</text><text xml:space="preserve" font-family="GillSans-Light" font-size="60.0" fill="#525252" transform="matrix(1.00, 0.00, -0.00, -1.00, 703.9, 334.0)">i</text><text xml:space="preserve" font-family="GillSans-Light" font-size="60.0" fill="#525252" transform="matrix(1.00, 0.00, -0.00, -1.00, 715.1, 334.0)">t</text><text xml:space="preserve" font-family="GillSans-Light" font-size="60.0" fill="#525252" transform="matrix(1.00, 0.00, -0.00, -1.00, 733.2, 334.0)">)</text><image xlink:href="54AF194512EAEBF9E3711FF6A7F11844.png" width="128.00" height="128.00" transform="matrix(1.71, 0.00, -0.00, -1.71, 412.0, 667.0)"></image><text xml:space="preserve" font-family="GillSans-Light" font-size="34.0" fill="#525252" transform="matrix(1.00, 0.00, -0.00, -1.00, 351.0, 134.0)">П</text><text xml:space="preserve" font-family="GillSans-Light" font-size="34.0" fill="#525252" transform="matrix(1.00, 0.00, -0.00, -1.00, 375.5, 134.0)">о</text><text xml:space="preserve" font-family="GillSans-Light" font-size="34.0" fill="#525252" transform="matrix(1.00, 0.00, -0.00, -1.00, 393.9, 134.0)">л</text><text xml:space="preserve" font-family="GillSans-Light" font-size="34.0" fill="#525252" transform="matrix(1.00, 0.00, -0.00, -1.00, 408.4, 134.0)">у</text><text xml:space="preserve" font-family="GillSans-Light" font-size="34.0" fill="#525252" transform="matrix(1.00, 0.00, -0.00, -1.00, 422.6, 134.0)">б</text><text xml:space="preserve" font-family="GillSans-Light" font-size="34.0" fill="#525252" transform="matrix(1.00, 0.00, -0.00, -1.00, 440.3, 134.0)">о</text><text xml:space="preserve" font-family="GillSans-Light" font-size="34.0" fill="#525252" transform="matrix(1.00, 0.00, -0.00, -1.00, 458.7, 134.0)">я</text><text xml:space="preserve" font-family="GillSans-Light" font-size="34.0" fill="#525252" transform="matrix(1.00, 0.00, -0.00, -1.00, 474.2, 134.0)">р</text><text xml:space="preserve" font-family="GillSans-Light" font-size="34.0" fill="#525252" transform="matrix(1.00, 0.00, -0.00, -1.00, 491.5, 134.0)">и</text><text xml:space="preserve" font-family="GillSans-Light" font-size="34.0" fill="#525252" transform="matrix(1.00, 0.00, -0.00, -1.00, 508.4, 134.0)">н</text><text xml:space="preserve" font-family="GillSans-Light" font-size="34.0" fill="#525252" transform="matrix(1.00, 0.00, -0.00, -1.00, 525.3, 134.0)">о</text><text xml:space="preserve" font-family="GillSans-Light" font-size="34.0" fill="#525252" transform="matrix(1.00, 0.00, -0.00, -1.00, 543.8, 134.0)">в</text><text xml:space="preserve" font-family="GillSans-Light" font-size="34.0" fill="#525252" transform="matrix(1.00, 0.00, -0.00, -1.00, 558.2, 134.0)"> </text><text xml:space="preserve" font-family="GillSans-Light" font-size="34.0" fill="#525252" transform="matrix(1.00, 0.00, -0.00, -1.00, 567.6, 134.0)">М</text><text xml:space="preserve" font-family="GillSans-Light" font-size="34.0" fill="#525252" transform="matrix(1.00, 0.00, -0.00, -1.00, 594.2, 134.0)">и</text><text xml:space="preserve" font-family="GillSans-Light" font-size="34.0" fill="#525252" transform="matrix(1.00, 0.00, -0.00, -1.00, 611.1, 134.0)">х</text><text xml:space="preserve" font-family="GillSans-Light" font-size="34.0" fill="#525252" transform="matrix(1.00, 0.00, -0.00, -1.00, 627.4, 134.0)">а</text><text xml:space="preserve" font-family="GillSans-Light" font-size="34.0" fill="#525252" transform="matrix(1.00, 0.00, -0.00, -1.00, 641.9, 134.0)">и</text><text xml:space="preserve" font-family="GillSans-Light" font-size="34.0" fill="#525252" transform="matrix(1.00, 0.00, -0.00, -1.00, 658.8, 134.0)">л</text><text xml:space="preserve" font-family="GillSans-Light" font-size="34.0" fill="#525252" transform="matrix(1.00, 0.00, -0.00, -1.00, 406.0, 95.0)">P</text><text xml:space="preserve" font-family="GillSans-Light" font-size="34.0" fill="#525252" transform="matrix(1.00, 0.00, -0.00, -1.00, 423.3, 95.0)">i</text><text xml:space="preserve" font-family="GillSans-Light" font-size="34.0" fill="#525252" transform="matrix(1.00, 0.00, -0.00, -1.00, 429.7, 95.0)">t</text><text xml:space="preserve" font-family="GillSans-Light" font-size="34.0" fill="#525252" transform="matrix(1.00, 0.00, -0.00, -1.00, 440.0, 95.0)">e</text><text xml:space="preserve" font-family="GillSans-Light" font-size="34.0" fill="#525252" transform="matrix(1.00, 0.00, -0.00, -1.00, 456.3, 95.0)">r</text><text xml:space="preserve" font-family="GillSans-Light" font-size="34.0" fill="#525252" transform="matrix(1.00, 0.00, -0.00, -1.00, 467.6, 95.0)">J</text><text xml:space="preserve" font-family="GillSans-Light" font-size="34.0" fill="#525252" transform="matrix(1.00, 0.00, -0.00, -1.00, 474.7, 95.0)">S</text><text xml:space="preserve" font-family="GillSans-Light" font-size="34.0" fill="#525252" transform="matrix(1.00, 0.00, -0.00, -1.00, 490.6, 95.0)"> </text><text xml:space="preserve" font-family="GillSans-Light" font-size="34.0" fill="#525252" transform="matrix(1.00, 0.00, -0.00, -1.00, 500.1, 95.0)">#</text><text xml:space="preserve" font-family="GillSans-Light" font-size="34.0" fill="#525252" transform="matrix(1.00, 0.00, -0.00, -1.00, 522.5, 95.0)">5</text><text xml:space="preserve" font-family="GillSans-Light" font-size="34.0" fill="#525252" transform="matrix(1.00, 0.00, -0.00, -1.00, 539.5, 95.0)">,</text><text xml:space="preserve" font-family="GillSans-Light" font-size="34.0" fill="#525252" transform="matrix(1.00, 0.00, -0.00, -1.00, 542.8, 95.0)"> </text><text xml:space="preserve" font-family="GillSans-Light" font-size="34.0" fill="#525252" transform="matrix(1.00, 0.00, -0.00, -1.00, 552.2, 95.0)">С</text><text xml:space="preserve" font-family="GillSans-Light" font-size="34.0" fill="#525252" transform="matrix(1.00, 0.00, -0.00, -1.00, 575.2, 95.0)">П</text><text xml:space="preserve" font-family="GillSans-Light" font-size="34.0" fill="#525252" transform="matrix(1.00, 0.00, -0.00, -1.00, 599.7, 95.0)">Б</text><text xml:space="preserve" font-family="GillSans-Light" font-size="34.0" fill="#525252" transform="matrix(1.00, 0.00, -0.00, -1.00, 401.0, 56.0)">2</text><text xml:space="preserve" font-family="GillSans-Light" font-size="34.0" fill="#525252" transform="matrix(1.00, 0.00, -0.00, -1.00, 418.0, 56.0)">8</text><text xml:space="preserve" font-family="GillSans-Light" font-size="34.0" fill="#525252" transform="matrix(1.00, 0.00, -0.00, -1.00, 435.0, 56.0)"> </text><text xml:space="preserve" font-family="GillSans-Light" font-size="34.0" fill="#525252" transform="matrix(1.00, 0.00, -0.00, -1.00, 444.4, 56.0)">н</text><text xml:space="preserve" font-family="GillSans-Light" font-size="34.0" fill="#525252" transform="matrix(1.00, 0.00, -0.00, -1.00, 461.4, 56.0)">о</text><text xml:space="preserve" font-family="GillSans-Light" font-size="34.0" fill="#525252" transform="matrix(1.00, 0.00, -0.00, -1.00, 479.8, 56.0)">я</text><text xml:space="preserve" font-family="GillSans-Light" font-size="34.0" fill="#525252" transform="matrix(1.00, 0.00, -0.00, -1.00, 495.2, 56.0)">б</text><text xml:space="preserve" font-family="GillSans-Light" font-size="34.0" fill="#525252" transform="matrix(1.00, 0.00, -0.00, -1.00, 513.0, 56.0)">р</text><text xml:space="preserve" font-family="GillSans-Light" font-size="34.0" fill="#525252" transform="matrix(1.00, 0.00, -0.00, -1.00, 530.3, 56.0)">я</text><text xml:space="preserve" font-family="GillSans-Light" font-size="34.0" fill="#525252" transform="matrix(1.00, 0.00, -0.00, -1.00, 545.7, 56.0)"> </text><text xml:space="preserve" font-family="GillSans-Light" font-size="34.0" fill="#525252" transform="matrix(1.00, 0.00, -0.00, -1.00, 555.2, 56.0)">2</text><text xml:space="preserve" font-family="GillSans-Light" font-size="34.0" fill="#525252" transform="matrix(1.00, 0.00, -0.00, -1.00, 572.2, 56.0)">0</text><text xml:space="preserve" font-family="GillSans-Light" font-size="34.0" fill="#525252" transform="matrix(1.00, 0.00, -0.00, -1.00, 589.2, 56.0)">1</text><text xml:space="preserve" font-family="GillSans-Light" font-size="34.0" fill="#525252" transform="matrix(1.00, 0.00, -0.00, -1.00, 606.2, 56.0)">5</text><text xml:space="preserve" font-family="GillSans-Light" font-size="35.0" fill="#525252" transform="matrix(1.00, 0.00, -0.00, -1.00, 147.0, 276.0)">к</text><text xml:space="preserve" font-family="GillSans-Light" font-size="35.0" fill="#525252" transform="matrix(1.00, 0.00, -0.00, -1.00, 161.0, 276.0)">р</text><text xml:space="preserve" font-family="GillSans-Light" font-size="35.0" fill="#525252" transform="matrix(1.00, 0.00, -0.00, -1.00, 178.9, 276.0)">о</text><text xml:space="preserve" font-family="GillSans-Light" font-size="35.0" fill="#525252" transform="matrix(1.00, 0.00, -0.00, -1.00, 197.8, 276.0)">с</text><text xml:space="preserve" font-family="GillSans-Light" font-size="35.0" fill="#525252" transform="matrix(1.00, 0.00, -0.00, -1.00, 212.4, 276.0)">с</text><text xml:space="preserve" font-family="GillSans-Light" font-size="35.0" fill="#525252" transform="matrix(1.00, 0.00, -0.00, -1.00, 227.0, 276.0)">-</text><text xml:space="preserve" font-family="GillSans-Light" font-size="35.0" fill="#525252" transform="matrix(1.00, 0.00, -0.00, -1.00, 238.0, 276.0)">п</text><text xml:space="preserve" font-family="GillSans-Light" font-size="35.0" fill="#525252" transform="matrix(1.00, 0.00, -0.00, -1.00, 255.4, 276.0)">л</text><text xml:space="preserve" font-family="GillSans-Light" font-size="35.0" fill="#525252" transform="matrix(1.00, 0.00, -0.00, -1.00, 270.3, 276.0)">а</text><text xml:space="preserve" font-family="GillSans-Light" font-size="35.0" fill="#525252" transform="matrix(1.00, 0.00, -0.00, -1.00, 285.3, 276.0)">т</text><text xml:space="preserve" font-family="GillSans-Light" font-size="35.0" fill="#525252" transform="matrix(1.00, 0.00, -0.00, -1.00, 301.5, 276.0)">ф</text><text xml:space="preserve" font-family="GillSans-Light" font-size="35.0" fill="#525252" transform="matrix(1.00, 0.00, -0.00, -1.00, 324.2, 276.0)">о</text><text xml:space="preserve" font-family="GillSans-Light" font-size="35.0" fill="#525252" transform="matrix(1.00, 0.00, -0.00, -1.00, 343.2, 276.0)">р</text><text xml:space="preserve" font-family="GillSans-Light" font-size="35.0" fill="#525252" transform="matrix(1.00, 0.00, -0.00, -1.00, 361.0, 276.0)">м</text><text xml:space="preserve" font-family="GillSans-Light" font-size="35.0" fill="#525252" transform="matrix(1.00, 0.00, -0.00, -1.00, 382.1, 276.0)">е</text><text xml:space="preserve" font-family="GillSans-Light" font-size="35.0" fill="#525252" transform="matrix(1.00, 0.00, -0.00, -1.00, 398.9, 276.0)">н</text><text xml:space="preserve" font-family="GillSans-Light" font-size="35.0" fill="#525252" transform="matrix(1.00, 0.00, -0.00, -1.00, 416.3, 276.0)">н</text><text xml:space="preserve" font-family="GillSans-Light" font-size="35.0" fill="#525252" transform="matrix(1.00, 0.00, -0.00, -1.00, 433.8, 276.0)">ы</text><text xml:space="preserve" font-family="GillSans-Light" font-size="35.0" fill="#525252" transform="matrix(1.00, 0.00, -0.00, -1.00, 454.2, 276.0)">е</text><text xml:space="preserve" font-family="GillSans-Light" font-size="35.0" fill="#525252" transform="matrix(1.00, 0.00, -0.00, -1.00, 470.9, 276.0)"> </text><text xml:space="preserve" font-family="GillSans-Light" font-size="35.0" fill="#525252" transform="matrix(1.00, 0.00, -0.00, -1.00, 480.7, 276.0)">д</text><text xml:space="preserve" font-family="GillSans-Light" font-size="35.0" fill="#525252" transform="matrix(1.00, 0.00, -0.00, -1.00, 497.6, 276.0)">е</text><text xml:space="preserve" font-family="GillSans-Light" font-size="35.0" fill="#525252" transform="matrix(1.00, 0.00, -0.00, -1.00, 514.4, 276.0)">с</text><text xml:space="preserve" font-family="GillSans-Light" font-size="35.0" fill="#525252" transform="matrix(1.00, 0.00, -0.00, -1.00, 529.0, 276.0)">к</text><text xml:space="preserve" font-family="GillSans-Light" font-size="35.0" fill="#525252" transform="matrix(1.00, 0.00, -0.00, -1.00, 543.0, 276.0)">т</text><text xml:space="preserve" font-family="GillSans-Light" font-size="35.0" fill="#525252" transform="matrix(1.00, 0.00, -0.00, -1.00, 559.2, 276.0)">о</text><text xml:space="preserve" font-family="GillSans-Light" font-size="35.0" fill="#525252" transform="matrix(1.00, 0.00, -0.00, -1.00, 578.2, 276.0)">п</text><text xml:space="preserve" font-family="GillSans-Light" font-size="35.0" fill="#525252" transform="matrix(1.00, 0.00, -0.00, -1.00, 595.6, 276.0)">н</text><text xml:space="preserve" font-family="GillSans-Light" font-size="35.0" fill="#525252" transform="matrix(1.00, 0.00, -0.00, -1.00, 613.1, 276.0)">ы</text><text xml:space="preserve" font-family="GillSans-Light" font-size="35.0" fill="#525252" transform="matrix(1.00, 0.00, -0.00, -1.00, 633.5, 276.0)">е</text><text xml:space="preserve" font-family="GillSans-Light" font-size="35.0" fill="#525252" transform="matrix(1.00, 0.00, -0.00, -1.00, 650.2, 276.0)"> </text><text xml:space="preserve" font-family="GillSans-Light" font-size="35.0" fill="#525252" transform="matrix(1.00, 0.00, -0.00, -1.00, 660.0, 276.0)">п</text><text xml:space="preserve" font-family="GillSans-Light" font-size="35.0" fill="#525252" transform="matrix(1.00, 0.00, -0.00, -1.00, 677.4, 276.0)">р</text><text xml:space="preserve" font-family="GillSans-Light" font-size="35.0" fill="#525252" transform="matrix(1.00, 0.00, -0.00, -1.00, 695.2, 276.0)">и</text><text xml:space="preserve" font-family="GillSans-Light" font-size="35.0" fill="#525252" transform="matrix(1.00, 0.00, -0.00, -1.00, 712.7, 276.0)">л</text><text xml:space="preserve" font-family="GillSans-Light" font-size="35.0" fill="#525252" transform="matrix(1.00, 0.00, -0.00, -1.00, 727.6, 276.0)">о</text><text xml:space="preserve" font-family="GillSans-Light" font-size="35.0" fill="#525252" transform="matrix(1.00, 0.00, -0.00, -1.00, 746.6, 276.0)">ж</text><text xml:space="preserve" font-family="GillSans-Light" font-size="35.0" fill="#525252" transform="matrix(1.00, 0.00, -0.00, -1.00, 768.3, 276.0)">е</text><text xml:space="preserve" font-family="GillSans-Light" font-size="35.0" fill="#525252" transform="matrix(1.00, 0.00, -0.00, -1.00, 785.0, 276.0)">н</text><text xml:space="preserve" font-family="GillSans-Light" font-size="35.0" fill="#525252" transform="matrix(1.00, 0.00, -0.00, -1.00, 802.5, 276.0)">и</text><text xml:space="preserve" font-family="GillSans-Light" font-size="35.0" fill="#525252" transform="matrix(1.00, 0.00, -0.00, -1.00, 819.9, 276.0)">я</text><text xml:space="preserve" font-family="GillSans-Light" font-size="35.0" fill="#525252" transform="matrix(1.00, 0.00, -0.00, -1.00, 835.8, 276.0)"> </text><text xml:space="preserve" font-family="GillSans-Light" font-size="35.0" fill="#525252" transform="matrix(1.00, 0.00, -0.00, -1.00, 845.5, 276.0)">н</text><text xml:space="preserve" font-family="GillSans-Light" font-size="35.0" fill="#525252" transform="matrix(1.00, 0.00, -0.00, -1.00, 862.9, 276.0)">а</text><text xml:space="preserve" font-family="GillSans-Light" font-size="35.0" fill="#525252" transform="matrix(1.00, 0.00, -0.00, -1.00, 877.9, 276.0)"> </text><text xml:space="preserve" font-family="GillSans-Light" font-size="35.0" fill="#525252" transform="matrix(1.00, 0.00, -0.00, -1.00, 272.0, 237.0)">H</text><text xml:space="preserve" font-family="GillSans-Light" font-size="35.0" fill="#525252" transform="matrix(1.00, 0.00, -0.00, -1.00, 297.2, 237.0)">T</text><text xml:space="preserve" font-family="GillSans-Light" font-size="35.0" fill="#525252" transform="matrix(1.00, 0.00, -0.00, -1.00, 317.3, 237.0)">M</text><text xml:space="preserve" font-family="GillSans-Light" font-size="35.0" fill="#525252" transform="matrix(1.00, 0.00, -0.00, -1.00, 344.6, 237.0)">L</text><text xml:space="preserve" font-family="GillSans-Light" font-size="35.0" fill="#525252" transform="matrix(1.00, 0.00, -0.00, -1.00, 361.0, 237.0)">5</text><text xml:space="preserve" font-family="GillSans-Light" font-size="35.0" fill="#525252" transform="matrix(1.00, 0.00, -0.00, -1.00, 378.5, 237.0)">,</text><text xml:space="preserve" font-family="GillSans-Light" font-size="35.0" fill="#525252" transform="matrix(1.00, 0.00, -0.00, -1.00, 381.9, 237.0)"> </text><text xml:space="preserve" font-family="GillSans-Light" font-size="35.0" fill="#525252" transform="matrix(1.00, 0.00, -0.00, -1.00, 391.6, 237.0)">C</text><text xml:space="preserve" font-family="GillSans-Light" font-size="35.0" fill="#525252" transform="matrix(1.00, 0.00, -0.00, -1.00, 415.3, 237.0)">S</text><text xml:space="preserve" font-family="GillSans-Light" font-size="35.0" fill="#525252" transform="matrix(1.00, 0.00, -0.00, -1.00, 431.7, 237.0)">S</text><text xml:space="preserve" font-family="GillSans-Light" font-size="35.0" fill="#525252" transform="matrix(1.00, 0.00, -0.00, -1.00, 448.1, 237.0)">3</text><text xml:space="preserve" font-family="GillSans-Light" font-size="35.0" fill="#525252" transform="matrix(1.00, 0.00, -0.00, -1.00, 465.6, 237.0)">,</text><text xml:space="preserve" font-family="GillSans-Light" font-size="35.0" fill="#525252" transform="matrix(1.00, 0.00, -0.00, -1.00, 469.0, 237.0)"> </text><text xml:space="preserve" font-family="GillSans-Light" font-size="35.0" fill="#525252" transform="matrix(1.00, 0.00, -0.00, -1.00, 478.7, 237.0)">J</text><text xml:space="preserve" font-family="GillSans-Light" font-size="35.0" fill="#525252" transform="matrix(1.00, 0.00, -0.00, -1.00, 486.0, 237.0)">a</text><text xml:space="preserve" font-family="GillSans-Light" font-size="35.0" fill="#525252" transform="matrix(1.00, 0.00, -0.00, -1.00, 500.1, 237.0)">v</text><text xml:space="preserve" font-family="GillSans-Light" font-size="35.0" fill="#525252" transform="matrix(1.00, 0.00, -0.00, -1.00, 515.0, 237.0)">a</text><text xml:space="preserve" font-family="GillSans-Light" font-size="35.0" fill="#525252" transform="matrix(1.00, 0.00, -0.00, -1.00, 529.9, 237.0)">S</text><text xml:space="preserve" font-family="GillSans-Light" font-size="35.0" fill="#525252" transform="matrix(1.00, 0.00, -0.00, -1.00, 546.4, 237.0)">c</text><text xml:space="preserve" font-family="GillSans-Light" font-size="35.0" fill="#525252" transform="matrix(1.00, 0.00, -0.00, -1.00, 560.9, 237.0)">r</text><text xml:space="preserve" font-family="GillSans-Light" font-size="35.0" fill="#525252" transform="matrix(1.00, 0.00, -0.00, -1.00, 573.5, 237.0)">i</text><text xml:space="preserve" font-family="GillSans-Light" font-size="35.0" fill="#525252" transform="matrix(1.00, 0.00, -0.00, -1.00, 580.1, 237.0)">p</text><text xml:space="preserve" font-family="GillSans-Light" font-size="35.0" fill="#525252" transform="matrix(1.00, 0.00, -0.00, -1.00, 597.9, 237.0)">t</text><text xml:space="preserve" font-family="GillSans-Light" font-size="35.0" fill="#525252" transform="matrix(1.00, 0.00, -0.00, -1.00, 608.4, 237.0)"> </text><text xml:space="preserve" font-family="GillSans-Light" font-size="35.0" fill="#525252" transform="matrix(1.00, 0.00, -0.00, -1.00, 618.2, 237.0)">и</text><text xml:space="preserve" font-family="GillSans-Light" font-size="35.0" fill="#525252" transform="matrix(1.00, 0.00, -0.00, -1.00, 635.6, 237.0)"> </text><text xml:space="preserve" font-family="GillSans-Light" font-size="35.0" fill="#525252" transform="matrix(1.00, 0.00, -0.00, -1.00, 641.9, 237.0)">W</text><text xml:space="preserve" font-family="GillSans-Light" font-size="35.0" fill="#525252" transform="matrix(1.00, 0.00, -0.00, -1.00, 675.5, 237.0)">e</text><text xml:space="preserve" font-family="GillSans-Light" font-size="35.0" fill="#525252" transform="matrix(1.00, 0.00, -0.00, -1.00, 692.2, 237.0)">b</text><text xml:space="preserve" font-family="GillSans-Light" font-size="35.0" fill="#525252" transform="matrix(1.00, 0.00, -0.00, -1.00, 710.1, 237.0)">G</text><text xml:space="preserve" font-family="GillSans-Light" font-size="35.0" fill="#525252" transform="matrix(1.00, 0.00, -0.00, -1.00, 735.3, 237.0)">L</text></g></svg>