<?xml version="1.0" encoding="UTF-8" standalone="no"?><svg xmlns="http://www.w3.org/2000/svg" xmlns:xlink="http://www.w3.org/1999/xlink" clip-rule="evenodd" stroke-miterlimit="4.00" viewBox="0 0 1024 768"><desc>SVG generated by Keynote</desc><defs></defs><g transform="matrix(1.00, 0.00, -0.00, -1.00, 0.0, 768.0)"><g><clipPath id="clip-17"><path d="M 0.0 768.0 L 1024.0 768.0 L 1024.0 0.0 L 0.0 0.0 Z M 0.0 768.0 "></path></clipPath><g clip-path="url(#clip-17)"><image xlink:href="../../293415CD-D1BA-41BB-8703-BAEDA9FFCE27/assets/D3CB8578D364082F6943B53F933CCC32.jpeg" width="1024.00" height="768.00" transform="matrix(1.00, 0.00, -0.00, -1.00, 0.0, 768.0)"></image></g></g><text xml:space="preserve" font-family="GillSans-Light" font-size="72.0" fill="#525252" transform="matrix(1.00, 0.00, -0.00, -1.00, 195.0, 628.0)">К</text><text xml:space="preserve" font-family="GillSans-Light" font-size="72.0" fill="#525252" transform="matrix(1.00, 0.00, -0.00, -1.00, 234.4, 628.0)">Т</text><text xml:space="preserve" font-family="GillSans-Light" font-size="72.0" fill="#525252" transform="matrix(1.00, 0.00, -0.00, -1.00, 275.7, 628.0)">О</text><text xml:space="preserve" font-family="GillSans-Light" font-size="72.0" fill="#525252" transform="matrix(1.00, 0.00, -0.00, -1.00, 334.9, 628.0)"> </text><text xml:space="preserve" font-family="GillSans-Light" font-size="72.0" fill="#525252" transform="matrix(1.00, 0.00, -0.00, -1.00, 354.9, 628.0)">И</text><text xml:space="preserve" font-family="GillSans-Light" font-size="72.0" fill="#525252" transform="matrix(1.00, 0.00, -0.00, -1.00, 406.7, 628.0)">С</text><text xml:space="preserve" font-family="GillSans-Light" font-size="72.0" fill="#525252" transform="matrix(1.00, 0.00, -0.00, -1.00, 455.4, 628.0)">П</text><text xml:space="preserve" font-family="GillSans-Light" font-size="72.0" fill="#525252" transform="matrix(1.00, 0.00, -0.00, -1.00, 507.2, 628.0)">О</text><text xml:space="preserve" font-family="GillSans-Light" font-size="72.0" fill="#525252" transform="matrix(1.00, 0.00, -0.00, -1.00, 566.5, 628.0)">Л</text><text xml:space="preserve" font-family="GillSans-Light" font-size="72.0" fill="#525252" transform="matrix(1.00, 0.00, -0.00, -1.00, 614.6, 628.0)">Ь</text><text xml:space="preserve" font-family="GillSans-Light" font-size="72.0" fill="#525252" transform="matrix(1.00, 0.00, -0.00, -1.00, 654.5, 628.0)">З</text><text xml:space="preserve" font-family="GillSans-Light" font-size="72.0" fill="#525252" transform="matrix(1.00, 0.00, -0.00, -1.00, 690.5, 628.0)">У</text><text xml:space="preserve" font-family="GillSans-Light" font-size="72.0" fill="#525252" transform="matrix(1.00, 0.00, -0.00, -1.00, 733.3, 628.0)">Е</text><text xml:space="preserve" font-family="GillSans-Light" font-size="72.0" fill="#525252" transform="matrix(1.00, 0.00, -0.00, -1.00, 768.6, 628.0)">Т</text><text xml:space="preserve" font-family="GillSans-Light" font-size="72.0" fill="#525252" transform="matrix(1.00, 0.00, -0.00, -1.00, 809.9, 628.0)">?</text><text xml:space="preserve" font-family="GillSans-SemiBold" font-weight="bold" font-size="50.0" fill="#525252" transform="matrix(1.00, 0.00, -0.00, -1.00, 403.0, 528.0)">L</text><text xml:space="preserve" font-family="GillSans-SemiBold" font-weight="bold" font-size="50.0" fill="#525252" transform="matrix(1.00, 0.00, -0.00, -1.00, 430.7, 528.0)">i</text><text xml:space="preserve" font-family="GillSans-SemiBold" font-weight="bold" font-size="50.0" fill="#525252" transform="matrix(1.00, 0.00, -0.00, -1.00, 443.1, 528.0)">g</text><text xml:space="preserve" font-family="GillSans-SemiBold" font-weight="bold" font-size="50.0" fill="#525252" transform="matrix(1.00, 0.00, -0.00, -1.00, 467.6, 528.0)">h</text><text xml:space="preserve" font-family="GillSans-SemiBold" font-weight="bold" font-size="50.0" fill="#525252" transform="matrix(1.00, 0.00, -0.00, -1.00, 494.6, 528.0)">t</text><text xml:space="preserve" font-family="GillSans-SemiBold" font-weight="bold" font-size="50.0" fill="#525252" transform="matrix(1.00, 0.00, -0.00, -1.00, 513.1, 528.0)">t</text><text xml:space="preserve" font-family="GillSans-SemiBold" font-weight="bold" font-size="50.0" fill="#525252" transform="matrix(1.00, 0.00, -0.00, -1.00, 531.6, 528.0)">a</text><text xml:space="preserve" font-family="GillSans-SemiBold" font-weight="bold" font-size="50.0" fill="#525252" transform="matrix(1.00, 0.00, -0.00, -1.00, 555.7, 528.0)">b</text><text xml:space="preserve" font-family="GillSans-SemiBold" font-weight="bold" font-size="50.0" fill="#525252" transform="matrix(1.00, 0.00, -0.00, -1.00, 583.1, 528.0)">l</text><text xml:space="preserve" font-family="GillSans-SemiBold" font-weight="bold" font-size="50.0" fill="#525252" transform="matrix(1.00, 0.00, -0.00, -1.00, 595.5, 528.0)">e</text><image xlink:href="4B701A7A806F1F6EDBA2916DAB27C233.png" width="550.00" height="331.00" transform="matrix(1.49, 0.00, -0.00, -1.49, 102.0, 516.0)"></image></g></svg>